<?xml version="1.0" encoding="UTF-8" standalone="no"?>
<svg
   width="434.04669"
   height="360"
   viewBox="0 0 434.04669 360"
   version="1.1"
   id="svg523"
   sodipodi:docname="PatternStrichpunktGrossKreis.svg"
   inkscape:version="1.1.1 (3bf5ae0d25, 2021-09-20)"
   xmlns:inkscape="http://www.inkscape.org/namespaces/inkscape"
   xmlns:sodipodi="http://sodipodi.sourceforge.net/DTD/sodipodi-0.dtd"
   xmlns="http://www.w3.org/2000/svg"
   xmlns:svg="http://www.w3.org/2000/svg">
  <defs
     id="defs527" />
  <sodipodi:namedview
     id="namedview525"
     pagecolor="#505050"
     bordercolor="#ffffff"
     borderopacity="1"
     inkscape:pageshadow="0"
     inkscape:pageopacity="0"
     inkscape:pagecheckerboard="1"
     showgrid="false"
     inkscape:zoom="2.3111111"
     inkscape:cx="204.44712"
     inkscape:cy="186.05769"
     inkscape:window-width="1342"
     inkscape:window-height="1040"
     inkscape:window-x="345"
     inkscape:window-y="35"
     inkscape:window-maximized="0"
     inkscape:current-layer="layer1" />
  <g
     id="Gruppe_171880"
     data-name="Gruppe 171880"
     transform="translate(74.0407,-303.483)">
    <rect
       id="Rechteck_157037"
       data-name="Rechteck 157037"
       width="27.875"
       height="9.3030005"
       transform="rotate(-36.058,783.41933,115.31735)"
       fill="#161615"
       x="0"
       y="0" />
    <rect
       id="Rechteck_157038"
       data-name="Rechteck 157038"
       width="9.7959995"
       height="9.7959995"
       transform="matrix(0.155,-0.988,0.988,0.155,88.864,434.606)"
       fill="#161615"
       x="0"
       y="0" />
    <rect
       id="Rechteck_157039"
       data-name="Rechteck 157039"
       width="9.7959995"
       height="9.7959995"
       transform="matrix(0.155,-0.988,0.988,0.155,79.237,466.998)"
       fill="#161615"
       x="0"
       y="0" />
    <rect
       id="Rechteck_157040"
       data-name="Rechteck 157040"
       width="9.7959995"
       height="9.7959995"
       transform="rotate(-81.064,295.46643,206.94713)"
       fill="#161615"
       x="0"
       y="0" />
    <rect
       id="Rechteck_157041"
       data-name="Rechteck 157041"
       width="9.7959995"
       height="9.7969999"
       transform="rotate(-81.057,326.14189,209.23715)"
       fill="#161615"
       x="0"
       y="0" />
    <rect
       id="Rechteck_157042"
       data-name="Rechteck 157042"
       width="27.874001"
       height="9.3039999"
       transform="matrix(0.809,-0.588,0.588,0.809,48.969,483.398)"
       fill="#161615"
       x="0"
       y="0" />
    <rect
       id="Rechteck_157043"
       data-name="Rechteck 157043"
       width="27.874001"
       height="9.3030005"
       transform="matrix(0.808,-0.589,0.589,0.808,299.243,547.568)"
       fill="#161615"
       x="0"
       y="0" />
    <rect
       id="Rechteck_157044"
       data-name="Rechteck 157044"
       width="9.7959995"
       height="9.7959995"
       transform="matrix(0.155,-0.988,0.988,0.155,33.331,404.341)"
       fill="#161615"
       x="0"
       y="0" />
    <path
       id="Pfad_101156"
       data-name="Pfad 101156"
       d="m 29.227,390.406 -5.476,-7.522 -11,8.01 q -3.33,7.737 -5.942,15.835 z"
       transform="translate(1.838,21.451)"
       fill="#161615" />
    <rect
       id="Rechteck_157045"
       data-name="Rechteck 157045"
       width="27.872999"
       height="9.3039999"
       transform="matrix(0.808,-0.589,0.589,0.808,69.465,419.643)"
       fill="#161615"
       x="0"
       y="0" />
    <path
       id="Pfad_101157"
       data-name="Pfad 101157"
       d="m 14.846,482.746 -8.4,6.12 q 1.458,4.658 3.165,9.2 l 10.713,-7.8 z"
       transform="translate(1.739,48.431)"
       fill="#161615" />
    <rect
       id="Rechteck_157046"
       data-name="Rechteck 157046"
       width="9.7969999"
       height="9.7959995"
       transform="rotate(-81.056,282.59556,184.90096)"
       fill="#161615"
       x="0"
       y="0" />
    <rect
       id="Rechteck_157047"
       data-name="Rechteck 157047"
       width="9.7959995"
       height="9.7959995"
       transform="matrix(0.155,-0.988,0.988,0.155,66.494,403.996)"
       fill="#161615"
       x="0"
       y="0" />
    <rect
       id="Rechteck_157048"
       data-name="Rechteck 157048"
       width="27.874001"
       height="9.3030005"
       transform="rotate(-36.068,663.74179,154.56574)"
       fill="#161615"
       x="0"
       y="0" />
    <rect
       id="Rechteck_157049"
       data-name="Rechteck 157049"
       width="9.7959995"
       height="9.7969999"
       transform="rotate(-81.057,266.41237,204.72281)"
       fill="#161615"
       x="0"
       y="0" />
    <rect
       id="Rechteck_157050"
       data-name="Rechteck 157050"
       width="27.875"
       height="9.3030005"
       transform="rotate(-36.062,739.59183,83.277621)"
       fill="#161615"
       x="0"
       y="0" />
    <rect
       id="Rechteck_157051"
       data-name="Rechteck 157051"
       width="9.7959995"
       height="9.7959995"
       transform="matrix(0.155,-0.988,0.988,0.155,12.272,467.39)"
       fill="#161615"
       x="0"
       y="0" />
    <rect
       id="Rechteck_157052"
       data-name="Rechteck 157052"
       width="27.875"
       height="9.3030005"
       transform="matrix(0.808,-0.589,0.589,0.808,25.734,451.719)"
       fill="#161615"
       x="0"
       y="0" />
    <rect
       id="Rechteck_157053"
       data-name="Rechteck 157053"
       width="9.7959995"
       height="9.7959995"
       transform="matrix(0.155,-0.988,0.988,0.155,122.97,434.921)"
       fill="#161615"
       x="0"
       y="0" />
    <rect
       id="Rechteck_157054"
       data-name="Rechteck 157054"
       width="9.7959995"
       height="9.7959995"
       transform="matrix(0.155,-0.988,0.988,0.155,112.482,466.813)"
       fill="#161615"
       x="0"
       y="0" />
    <path
       id="Pfad_101158"
       data-name="Pfad 101158"
       d="m 3.972,415.619 q -1.475,6.565 -2.465,13.3 l 18.588,-13.537 -5.477,-7.521 z"
       transform="translate(0.406,28.201)"
       fill="#161615" />
    <path
       id="Pfad_101159"
       data-name="Pfad 101159"
       d="M 4.542,432.534 0.467,435.5 q -0.423,5.87 -0.461,11.843 l 10.011,-7.291 z"
       transform="translate(0,34.865)"
       fill="#161615" />
    <rect
       id="Rechteck_157055"
       data-name="Rechteck 157055"
       width="27.875"
       height="9.3039999"
       transform="matrix(0.808,-0.589,0.589,0.808,14.861,483.087)"
       fill="#161615"
       x="0"
       y="0" />
    <rect
       id="Rechteck_157056"
       data-name="Rechteck 157056"
       width="27.872999"
       height="9.3030005"
       transform="rotate(-36.058,794.51755,249.68815)"
       fill="#161615"
       x="0"
       y="0" />
    <rect
       id="Rechteck_157057"
       data-name="Rechteck 157057"
       width="9.7959995"
       height="9.7969999"
       transform="rotate(-81.065,292.35023,248.56143)"
       fill="#161615"
       x="0"
       y="0" />
    <rect
       id="Rechteck_157058"
       data-name="Rechteck 157058"
       width="9.7959995"
       height="9.7959995"
       transform="matrix(0.155,-0.988,0.988,0.155,35.508,499.074)"
       fill="#161615"
       x="0"
       y="0" />
    <rect
       id="Rechteck_157059"
       data-name="Rechteck 157059"
       width="9.7959995"
       height="9.7959995"
       transform="matrix(0.155,-0.988,0.988,0.155,271.794,498.643)"
       fill="#161615"
       x="0"
       y="0" />
    <rect
       id="Rechteck_157060"
       data-name="Rechteck 157060"
       width="27.874001"
       height="9.3030005"
       transform="matrix(0.808,-0.589,0.589,0.808,207.628,515.343)"
       fill="#161615"
       x="0"
       y="0" />
    <rect
       id="Rechteck_157061"
       data-name="Rechteck 157061"
       width="27.874001"
       height="9.3030005"
       transform="matrix(0.808,-0.589,0.589,0.808,231.238,547.538)"
       fill="#161615"
       x="0"
       y="0" />
    <rect
       id="Rechteck_157062"
       data-name="Rechteck 157062"
       width="27.875"
       height="9.302"
       transform="matrix(0.808,-0.589,0.589,0.808,163.421,547.767)"
       fill="#161615"
       x="0"
       y="0" />
    <rect
       id="Rechteck_157063"
       data-name="Rechteck 157063"
       width="9.7959995"
       height="9.7959995"
       transform="matrix(0.155,-0.988,0.988,0.155,25.021,530.965)"
       fill="#161615"
       x="0"
       y="0" />
    <rect
       id="Rechteck_157064"
       data-name="Rechteck 157064"
       width="9.7959995"
       height="9.7959995"
       transform="matrix(0.155,-0.988,0.988,0.155,183.197,563.241)"
       fill="#161615"
       x="0"
       y="0" />
    <rect
       id="Rechteck_157065"
       data-name="Rechteck 157065"
       width="9.7959995"
       height="9.7959995"
       transform="rotate(-81.064,407.56858,152.41747)"
       fill="#161615"
       x="0"
       y="0" />
    <rect
       id="Rechteck_157066"
       data-name="Rechteck 157066"
       width="27.874001"
       height="9.3030005"
       transform="rotate(-36.062,939.39984,-28.282269)"
       fill="#161615"
       x="0"
       y="0" />
    <rect
       id="Rechteck_157067"
       data-name="Rechteck 157067"
       width="27.875"
       height="9.302"
       transform="matrix(0.808,-0.589,0.589,0.808,275.626,515.359)"
       fill="#161615"
       x="0"
       y="0" />
    <rect
       id="Rechteck_157068"
       data-name="Rechteck 157068"
       width="9.7959995"
       height="9.7969999"
       transform="rotate(-81.065,458.11944,92.683843)"
       fill="#161615"
       x="0"
       y="0" />
    <rect
       id="Rechteck_157069"
       data-name="Rechteck 157069"
       width="9.7959995"
       height="9.7969999"
       transform="rotate(-81.057,301.74521,123.26586)"
       fill="#161615"
       x="0"
       y="0" />
    <rect
       id="Rechteck_157070"
       data-name="Rechteck 157070"
       width="9.7959995"
       height="9.7959995"
       transform="matrix(0.155,-0.988,0.988,0.155,261.508,531.131)"
       fill="#161615"
       x="0"
       y="0" />
    <rect
       id="Rechteck_157071"
       data-name="Rechteck 157071"
       width="27.875"
       height="9.3030005"
       transform="rotate(-36.068,911.56197,-112.33001)"
       fill="#161615"
       x="0"
       y="0" />
    <rect
       id="Rechteck_157072"
       data-name="Rechteck 157072"
       width="9.7959995"
       height="9.7969999"
       transform="rotate(-81.064,424.10421,132.43102)"
       fill="#161615"
       x="0"
       y="0" />
    <rect
       id="Rechteck_157073"
       data-name="Rechteck 157073"
       width="27.875"
       height="9.3030005"
       transform="matrix(0.809,-0.588,0.588,0.809,61.965,547.318)"
       fill="#161615"
       x="0"
       y="0" />
    <rect
       id="Rechteck_157074"
       data-name="Rechteck 157074"
       width="9.7959995"
       height="9.7969999"
       transform="matrix(0.155,-0.988,0.988,0.155,92.237,530.918)"
       fill="#161615"
       x="0"
       y="0" />
    <rect
       id="Rechteck_157075"
       data-name="Rechteck 157075"
       width="27.875"
       height="9.3030005"
       transform="rotate(-36.066,828.182,146.32822)"
       fill="#161615"
       x="0"
       y="0" />
    <rect
       id="Rechteck_157076"
       data-name="Rechteck 157076"
       width="9.7959995"
       height="9.7959995"
       transform="matrix(0.155,-0.988,0.988,0.155,59.129,531.28)"
       fill="#161615"
       x="0"
       y="0" />
    <rect
       id="Rechteck_157077"
       data-name="Rechteck 157077"
       width="27.875"
       height="9.3030005"
       transform="matrix(0.808,-0.589,0.589,0.808,38.482,515.295)"
       fill="#161615"
       x="0"
       y="0" />
    <rect
       id="Rechteck_157078"
       data-name="Rechteck 157078"
       width="27.874001"
       height="9.3039999"
       transform="matrix(0.808,-0.589,0.589,0.808,28.864,547.697)"
       fill="#161615"
       x="0"
       y="0" />
    <rect
       id="Rechteck_157079"
       data-name="Rechteck 157079"
       width="9.7959995"
       height="9.7969999"
       transform="rotate(-81.065,404.45362,194.02988)"
       fill="#161615"
       x="0"
       y="0" />
    <rect
       id="Rechteck_157080"
       data-name="Rechteck 157080"
       width="27.874001"
       height="9.3039999"
       transform="rotate(-36.06,905.59999,75.0826)"
       fill="#161615"
       x="0"
       y="0" />
    <rect
       id="Rechteck_157081"
       data-name="Rechteck 157081"
       width="9.7959995"
       height="9.7959995"
       transform="rotate(-81.064,390.3308,172.2034)"
       fill="#161615"
       x="0"
       y="0" />
    <rect
       id="Rechteck_157082"
       data-name="Rechteck 157082"
       width="9.7959995"
       height="9.7959995"
       transform="rotate(-81.056,373.8598,191.72541)"
       fill="#161615"
       x="0"
       y="0" />
    <rect
       id="Rechteck_157083"
       data-name="Rechteck 157083"
       width="27.875"
       height="9.3030005"
       transform="matrix(0.808,-0.589,0.589,0.808,105.697,515.244)"
       fill="#161615"
       x="0"
       y="0" />
    <rect
       id="Rechteck_157084"
       data-name="Rechteck 157084"
       width="9.7959995"
       height="9.7959995"
       transform="rotate(-81.064,343.3436,189.45619)"
       fill="#161615"
       x="0"
       y="0" />
    <rect
       id="Rechteck_157085"
       data-name="Rechteck 157085"
       width="27.874001"
       height="9.3030005"
       transform="matrix(0.808,-0.589,0.589,0.808,58.593,451.011)"
       fill="#161615"
       x="0"
       y="0" />
    <rect
       id="Rechteck_157086"
       data-name="Rechteck 157086"
       width="27.875"
       height="9.3030005"
       transform="matrix(0.809,-0.588,0.588,0.809,308.988,515.339)"
       fill="#161615"
       x="0"
       y="0" />
    <rect
       id="Rechteck_157087"
       data-name="Rechteck 157087"
       width="27.875"
       height="9.302"
       transform="matrix(0.808,-0.589,0.589,0.808,319.478,483.45)"
       fill="#161615"
       x="0"
       y="0" />
    <rect
       id="Rechteck_157088"
       data-name="Rechteck 157088"
       width="9.7959995"
       height="9.7959995"
       transform="matrix(0.155,-0.988,0.988,0.155,326.022,434.688)"
       fill="#161615"
       x="0"
       y="0" />
    <rect
       id="Rechteck_157089"
       data-name="Rechteck 157089"
       width="9.7959995"
       height="9.7959995"
       transform="rotate(-81.057,430.62584,48.75396)"
       fill="#161615"
       x="0"
       y="0" />
    <rect
       id="Rechteck_157090"
       data-name="Rechteck 157090"
       width="9.7959995"
       height="9.7959995"
       transform="matrix(0.155,-0.988,0.988,0.155,291.913,434.373)"
       fill="#161615"
       x="0"
       y="0" />
    <rect
       id="Rechteck_157091"
       data-name="Rechteck 157091"
       width="27.874001"
       height="9.3039999"
       transform="matrix(0.808,-0.589,0.589,0.808,295.869,451.259)"
       fill="#161615"
       x="0"
       y="0" />
    <rect
       id="Rechteck_157092"
       data-name="Rechteck 157092"
       width="9.7959995"
       height="9.7959995"
       transform="rotate(-81.056,444.7604,70.577095)"
       fill="#161615"
       x="0"
       y="0" />
    <path
       id="Pfad_101160"
       data-name="Pfad 101160"
       d="m 283.891,474.46 q 1.212,-6.392 1.965,-12.939 l -15.708,11.44 5.476,7.519 z"
       transform="translate(72.951,42.696)"
       fill="#161615" />
    <rect
       id="Rechteck_157093"
       data-name="Rechteck 157093"
       width="9.7959995"
       height="9.7959995"
       transform="matrix(0.155,-0.988,0.988,0.155,302.402,402.482)"
       fill="#161615"
       x="0"
       y="0" />
    <rect
       id="Rechteck_157094"
       data-name="Rechteck 157094"
       width="27.874001"
       height="9.3030005"
       transform="rotate(-36.062,795.90097,-259.73524)"
       fill="#161615"
       x="0"
       y="0" />
    <path
       id="Pfad_101161"
       data-name="Pfad 101161"
       d="m 269.745,383.641 q -2.077,-4.153 -4.355,-8.182 l -1.15,7.316 z"
       transform="translate(71.355,19.445)"
       fill="#161615" />
    <path
       id="Pfad_101162"
       data-name="Pfad 101162"
       d="m 272.8,403.031 4.663,-3.4 q -1.616,-4.55 -3.462,-8.986 l -6.676,4.861 z"
       transform="translate(72.189,23.549)"
       fill="#161615" />
    <rect
       id="Rechteck_157095"
       data-name="Rechteck 157095"
       width="27.875"
       height="9.3030005"
       transform="rotate(-36.058,711.96437,-0.86133312)"
       fill="#161615"
       x="0"
       y="0" />
    <path
       id="Pfad_101163"
       data-name="Pfad 101163"
       d="m 31.622,525.941 -1.357,8.627 c 0.326,0.414 0.663,0.821 0.992,1.232 l 8.52,1.34 1.522,-9.677 z"
       transform="translate(8.175,60.1)"
       fill="#161615" />
    <path
       id="Pfad_101164"
       data-name="Pfad 101164"
       d="m 12.95,500.726 -0.518,3.292 q 1.614,3.582 3.382,7.074 l 5.292,0.833 1.522,-9.677 z"
       transform="translate(3.357,53.288)"
       fill="#161615" />
    <rect
       id="Rechteck_157096"
       data-name="Rechteck 157096"
       width="27.874001"
       height="9.3039999"
       transform="matrix(0.808,-0.589,0.589,0.808,261.767,450.943)"
       fill="#161615"
       x="0"
       y="0" />
    <path
       id="Pfad_101165"
       data-name="Pfad 101165"
       d="M 35.158,364.411 31.364,359.2 A 180.793,180.793 0 0 0 20.5,375.09 Z"
       transform="translate(5.536,15.053)"
       fill="#161615" />
    <rect
       id="Rechteck_157097"
       data-name="Rechteck 157097"
       width="27.874001"
       height="9.302"
       transform="matrix(0.808,-0.589,0.589,0.808,132.811,643.929)"
       fill="#161615"
       x="0"
       y="0" />
    <rect
       id="Rechteck_157098"
       data-name="Rechteck 157098"
       width="27.874001"
       height="9.3030005"
       transform="matrix(0.808,-0.589,0.589,0.808,168.673,323.89)"
       fill="#161615"
       x="0"
       y="0" />
    <rect
       id="Rechteck_157099"
       data-name="Rechteck 157099"
       width="27.875"
       height="9.3030005"
       transform="matrix(0.808,-0.589,0.589,0.808,252.019,483.17)"
       fill="#161615"
       x="0"
       y="0" />
    <path
       id="Pfad_101166"
       data-name="Pfad 101166"
       d="m 284.918,452.279 c 0.064,-1.964 0.108,-3.932 0.108,-5.911 0,-1.876 -0.039,-3.743 -0.1,-5.605 l -7.272,5.3 5.476,7.519 z"
       transform="translate(74.98,37.088)"
       fill="#161615" />
    <path
       id="Pfad_101167"
       data-name="Pfad 101167"
       d="m 275.292,434.184 9.677,1.523 0.041,-0.26 q -0.417,-4.952 -1.1,-9.823 l -7.1,-1.116 z"
       transform="translate(74.341,32.696)"
       fill="#161615" />
    <path
       id="Pfad_101168"
       data-name="Pfad 101168"
       d="m 264.539,430.584 20.983,-15.279 q -0.562,-2.458 -1.188,-4.888 l -2.74,-3.765 -22.531,16.412 z"
       transform="translate(69.956,27.873)"
       fill="#161615" />
    <rect
       id="Rechteck_157100"
       data-name="Rechteck 157100"
       width="27.874001"
       height="9.3030005"
       transform="matrix(0.808,-0.589,0.589,0.808,285.369,483.133)"
       fill="#161615"
       x="0"
       y="0" />
    <rect
       id="Rechteck_157101"
       data-name="Rechteck 157101"
       width="9.7969999"
       height="9.7959995"
       transform="matrix(0.155,-0.988,0.988,0.155,282.292,466.765)"
       fill="#161615"
       x="0"
       y="0" />
    <rect
       id="Rechteck_157102"
       data-name="Rechteck 157102"
       width="9.7959995"
       height="9.7959995"
       transform="matrix(0.155,-0.988,0.988,0.155,339.144,498.773)"
       fill="#161615"
       x="0"
       y="0" />
    <rect
       id="Rechteck_157103"
       data-name="Rechteck 157103"
       width="27.875"
       height="9.3030005"
       transform="rotate(-36.058,878.24188,-8.1460535)"
       fill="#161615"
       x="0"
       y="0" />
    <rect
       id="Rechteck_157104"
       data-name="Rechteck 157104"
       width="9.7959995"
       height="9.7959995"
       transform="matrix(0.155,-0.988,0.988,0.155,180.176,466.417)"
       fill="#161615"
       x="0"
       y="0" />
    <rect
       id="Rechteck_157105"
       data-name="Rechteck 157105"
       width="9.7959995"
       height="9.7959995"
       transform="matrix(0.155,-0.988,0.988,0.155,203.795,498.623)"
       fill="#161615"
       x="0"
       y="0" />
    <rect
       id="Rechteck_157106"
       data-name="Rechteck 157106"
       width="27.874001"
       height="9.3030005"
       transform="matrix(0.808,-0.589,0.589,0.808,184.01,483.137)"
       fill="#161615"
       x="0"
       y="0" />
    <rect
       id="Rechteck_157107"
       data-name="Rechteck 157107"
       width="27.874001"
       height="9.3039999"
       transform="matrix(0.808,-0.589,0.589,0.808,149.43,483.17)"
       fill="#161615"
       x="0"
       y="0" />
    <rect
       id="Rechteck_157108"
       data-name="Rechteck 157108"
       width="9.7969999"
       height="9.7959995"
       transform="rotate(-81.056,376.96687,150.11144)"
       fill="#161615"
       x="0"
       y="0" />
    <rect
       id="Rechteck_157109"
       data-name="Rechteck 157109"
       width="9.7980003"
       height="9.7959995"
       transform="matrix(0.155,-0.988,0.988,0.155,190.795,434.704)"
       fill="#161615"
       x="0"
       y="0" />
    <rect
       id="Rechteck_157110"
       data-name="Rechteck 157110"
       width="27.875"
       height="9.3030005"
       transform="matrix(0.808,-0.589,0.589,0.808,193.637,450.745)"
       fill="#161615"
       x="0"
       y="0" />
    <rect
       id="Rechteck_157111"
       data-name="Rechteck 157111"
       width="9.7959995"
       height="9.7959995"
       transform="matrix(0.155,-0.988,0.988,0.155,156.69,434.389)"
       fill="#161615"
       x="0"
       y="0" />
    <rect
       id="Rechteck_157112"
       data-name="Rechteck 157112"
       width="27.875"
       height="9.3030005"
       transform="matrix(0.808,-0.589,0.589,0.808,160.523,451.108)"
       fill="#161615"
       x="0"
       y="0" />
    <rect
       id="Rechteck_157113"
       data-name="Rechteck 157113"
       width="27.875"
       height="9.3030005"
       transform="rotate(-36.058,861.90204,43.016772)"
       fill="#161615"
       x="0"
       y="0" />
    <rect
       id="Rechteck_157114"
       data-name="Rechteck 157114"
       width="27.874001"
       height="9.3030005"
       transform="matrix(0.808,-0.589,0.589,0.808,170.15,418.717)"
       fill="#161615"
       x="0"
       y="0" />
    <rect
       id="Rechteck_157115"
       data-name="Rechteck 157115"
       width="9.7959995"
       height="9.7959995"
       transform="matrix(0.155,-0.988,0.988,0.155,135.969,498.842)"
       fill="#161615"
       x="0"
       y="0" />
    <rect
       id="Rechteck_157116"
       data-name="Rechteck 157116"
       width="9.7959995"
       height="9.7959995"
       transform="rotate(-81.064,410.71055,110.35385)"
       fill="#161615"
       x="0"
       y="0" />
    <rect
       id="Rechteck_157117"
       data-name="Rechteck 157117"
       width="27.874001"
       height="9.3030005"
       transform="matrix(0.808,-0.589,0.589,0.808,228.401,450.963)"
       fill="#161615"
       x="0"
       y="0" />
    <rect
       id="Rechteck_157118"
       data-name="Rechteck 157118"
       width="27.874001"
       height="9.3030005"
       transform="rotate(-36.058,779.86826,-208.71092)"
       fill="#161615"
       x="0"
       y="0" />
    <rect
       id="Rechteck_157119"
       data-name="Rechteck 157119"
       width="9.7959995"
       height="9.7959995"
       transform="matrix(0.155,-0.988,0.988,0.155,248.186,466.45)"
       fill="#161615"
       x="0"
       y="0" />
    <rect
       id="Rechteck_157120"
       data-name="Rechteck 157120"
       width="9.7959995"
       height="9.7959995"
       transform="matrix(0.155,-0.988,0.988,0.155,268.3,402.167)"
       fill="#161615"
       x="0"
       y="0" />
    <rect
       id="Rechteck_157121"
       data-name="Rechteck 157121"
       width="9.7959995"
       height="9.7959995"
       transform="matrix(0.155,-0.988,0.988,0.155,258.674,434.558)"
       fill="#161615"
       x="0"
       y="0" />
    <rect
       id="Rechteck_157122"
       data-name="Rechteck 157122"
       width="27.875"
       height="9.3030005"
       transform="matrix(0.808,-0.589,0.589,0.808,217.255,482.953)"
       fill="#161615"
       x="0"
       y="0" />
    <rect
       id="Rechteck_157123"
       data-name="Rechteck 157123"
       width="27.875"
       height="9.3030005"
       transform="matrix(0.808,-0.589,0.589,0.808,116.316,483.534)"
       fill="#161615"
       x="0"
       y="0" />
    <rect
       id="Rechteck_157124"
       data-name="Rechteck 157124"
       width="9.7959995"
       height="9.7959995"
       transform="matrix(0.155,-0.988,0.988,0.155,146.588,467.128)"
       fill="#161615"
       x="0"
       y="0" />
    <rect
       id="Rechteck_157125"
       data-name="Rechteck 157125"
       width="9.7969999"
       height="9.7959995"
       transform="matrix(0.155,-0.988,0.988,0.155,214.282,466.732)"
       fill="#161615"
       x="0"
       y="0" />
    <rect
       id="Rechteck_157126"
       data-name="Rechteck 157126"
       width="27.875"
       height="9.3030005"
       transform="rotate(-36.058,756.01032,32.098444)"
       fill="#161615"
       x="0"
       y="0" />
    <rect
       id="Rechteck_157127"
       data-name="Rechteck 157127"
       width="9.7959995"
       height="9.7959995"
       transform="matrix(0.155,-0.988,0.988,0.155,224.568,434.243)"
       fill="#161615"
       x="0"
       y="0" />
    <path
       id="Pfad_101169"
       data-name="Pfad 101169"
       d="m 100.938,558.752 -22.538,16.412 0.48,0.658 q 4.34,2.155 8.81,4.084 l 18.718,-13.63 z"
       transform="translate(21.171,68.965)"
       fill="#161615" />
    <rect
       id="Rechteck_157128"
       data-name="Rechteck 157128"
       width="9.7959995"
       height="9.7959995"
       transform="matrix(0.155,-0.988,0.988,0.155,87.162,339.525)"
       fill="#161615"
       x="0"
       y="0" />
    <rect
       id="Rechteck_157129"
       data-name="Rechteck 157129"
       width="27.874001"
       height="9.3039999"
       transform="matrix(0.808,-0.589,0.589,0.808,90.996,356.246)"
       fill="#161615"
       x="0"
       y="0" />
    <path
       id="Pfad_101170"
       data-name="Pfad 101170"
       d="M 53.369,533.319 38.23,544.343 q 3.216,3.435 6.6,6.7 l 14.014,-10.206 z"
       transform="translate(10.327,62.094)"
       fill="#161615" />
    <path
       id="Pfad_101171"
       data-name="Pfad 101171"
       d="m 50,551.3 -0.328,2.084 q 4.291,3.668 8.8,7.071 l 1.2,-7.634 z"
       transform="translate(13.412,66.951)"
       fill="#161615" />
    <rect
       id="Rechteck_157130"
       data-name="Rechteck 157130"
       width="9.7959995"
       height="9.7959995"
       transform="matrix(0.155,-0.988,0.988,0.155,110.701,371.572)"
       fill="#161615"
       x="0"
       y="0" />
    <rect
       id="Rechteck_157131"
       data-name="Rechteck 157131"
       width="9.7959995"
       height="9.7959995"
       transform="matrix(0.155,-0.988,0.988,0.155,121.267,339.84)"
       fill="#161615"
       x="0"
       y="0" />
    <rect
       id="Rechteck_157132"
       data-name="Rechteck 157132"
       width="9.7959995"
       height="9.7959995"
       transform="rotate(-81.057,432.02381,237.92022)"
       fill="#161615"
       x="0"
       y="0" />
    <rect
       id="Rechteck_157133"
       data-name="Rechteck 157133"
       width="9.7959995"
       height="9.7959995"
       transform="matrix(0.155,-0.988,0.988,0.155,153.455,659.915)"
       fill="#161615"
       x="0"
       y="0" />
    <rect
       id="Rechteck_157134"
       data-name="Rechteck 157134"
       width="27.875"
       height="9.3030005"
       transform="matrix(0.809,-0.588,0.588,0.809,109.191,611.717)"
       fill="#161615"
       x="0"
       y="0" />
    <rect
       id="Rechteck_157135"
       data-name="Rechteck 157135"
       width="27.875"
       height="9.3030005"
       transform="rotate(-36.058,565.5264,-45.944888)"
       fill="#161615"
       x="0"
       y="0" />
    <rect
       id="Rechteck_157136"
       data-name="Rechteck 157136"
       width="9.7959995"
       height="9.7959995"
       transform="rotate(-81.057,414.78718,257.70962)"
       fill="#161615"
       x="0"
       y="0" />
    <rect
       id="Rechteck_157137"
       data-name="Rechteck 157137"
       width="9.7959995"
       height="9.7959995"
       transform="matrix(0.155,-0.988,0.988,0.155,106.229,595.516)"
       fill="#161615"
       x="0"
       y="0" />
    <rect
       id="Rechteck_157138"
       data-name="Rechteck 157138"
       width="27.875"
       height="9.302"
       transform="rotate(-36.062,977.92288,189.27913)"
       fill="#161615"
       x="0"
       y="0" />
    <rect
       id="Rechteck_157139"
       data-name="Rechteck 157139"
       width="9.7959995"
       height="9.7959995"
       transform="matrix(0.155,-0.988,0.988,0.155,255.299,338.247)"
       fill="#161615"
       x="0"
       y="0" />
    <path
       id="Pfad_101172"
       data-name="Pfad 101172"
       d="m 215.971,324.492 0.043,-0.032 -0.123,-0.077 z"
       transform="translate(58.3,5.646)"
       fill="#161615" />
    <rect
       id="Rechteck_157140"
       data-name="Rechteck 157140"
       width="9.7959995"
       height="9.7959995"
       transform="matrix(0.155,-0.988,0.988,0.155,244.814,370.139)"
       fill="#161615"
       x="0"
       y="0" />
    <rect
       id="Rechteck_157141"
       data-name="Rechteck 157141"
       width="9.7980003"
       height="9.7969999"
       transform="rotate(-81.057,502.49665,117.19634)"
       fill="#161615"
       x="0"
       y="0" />
    <rect
       id="Rechteck_157142"
       data-name="Rechteck 157142"
       width="27.874001"
       height="9.3039999"
       transform="matrix(0.808,-0.589,0.589,0.808,225.149,354.817)"
       fill="#161615"
       x="0"
       y="0" />
    <path
       id="Pfad_101173"
       data-name="Pfad 101173"
       d="m 254.114,523.408 4.946,6.793 a 179.958,179.958 0 0 0 11.447,-18.732 z"
       transform="translate(68.619,56.19)"
       fill="#161615" />
    <path
       id="Pfad_101174"
       data-name="Pfad 101174"
       d="m 235.714,352.6 9.009,-6.56 q -3.357,-3.338 -6.889,-6.492 l -7.6,5.532 z"
       transform="translate(62.169,9.744)"
       fill="#161615" />
    <rect
       id="Rechteck_157143"
       data-name="Rechteck 157143"
       width="27.875"
       height="9.3030005"
       transform="rotate(-36.062,624.38134,-65.262329)"
       fill="#161615"
       x="0"
       y="0" />
    <rect
       id="Rechteck_157144"
       data-name="Rechteck 157144"
       width="9.7959995"
       height="9.7959995"
       transform="matrix(0.155,-0.988,0.988,0.155,188.333,338.64)"
       fill="#161615"
       x="0"
       y="0" />
    <rect
       id="Rechteck_157145"
       data-name="Rechteck 157145"
       width="9.7959995"
       height="9.7980003"
       transform="rotate(-81.058,308.22704,39.606275)"
       fill="#161615"
       x="0"
       y="0" />
    <rect
       id="Rechteck_157146"
       data-name="Rechteck 157146"
       width="9.7959995"
       height="9.7959995"
       transform="matrix(0.155,-0.988,0.988,0.155,211.568,370.323)"
       fill="#161615"
       x="0"
       y="0" />
    <rect
       id="Rechteck_157147"
       data-name="Rechteck 157147"
       width="27.874001"
       height="9.3030005"
       transform="rotate(-36.062,640.03878,-116.19616)"
       fill="#161615"
       x="0"
       y="0" />
    <rect
       id="Rechteck_157148"
       data-name="Rechteck 157148"
       width="9.7959995"
       height="9.7959995"
       transform="matrix(0.155,-0.988,0.988,0.155,155.093,339.398)"
       fill="#161615"
       x="0"
       y="0" />
    <path
       id="Pfad_101175"
       data-name="Pfad 101175"
       d="m 84.706,329.643 22.531,-16.408 -2.436,-3.347 a 178.281,178.281 0 0 0 -18,6.723 l -7.569,5.512 z"
       transform="translate(21.394,1.73)"
       fill="#161615" />
    <path
       id="Pfad_101176"
       data-name="Pfad 101176"
       d="m 70.328,558.663 -7.475,5.444 q 4.153,2.787 8.471,5.341 l 4.48,-3.262 z"
       transform="translate(16.972,68.941)"
       fill="#161615" />
    <rect
       id="Rechteck_157149"
       data-name="Rechteck 157149"
       width="9.7959995"
       height="9.7959995"
       transform="matrix(0.155,-0.988,0.988,0.155,163.083,627.523)"
       fill="#161615"
       x="0"
       y="0" />
    <path
       id="Pfad_101177"
       data-name="Pfad 101177"
       d="m 140.113,309.189 0.9,-5.706 q -5.03,0.1 -9.991,0.471 l -0.584,3.711 z"
       transform="translate(35.222)"
       fill="#161615" />
    <path
       id="Pfad_101178"
       data-name="Pfad 101178"
       d="m 156.55,307.113 9.677,1.522 0.484,-3.073 q -4.815,-0.781 -9.712,-1.307 z"
       transform="translate(42.274,0.209)"
       fill="#161615" />
    <path
       id="Pfad_101179"
       data-name="Pfad 101179"
       d="m 175.242,576.445 -1.359,8.637 c 3.492,-0.809 6.939,-1.731 10.348,-2.741 l 0.688,-4.374 z"
       transform="translate(46.955,73.745)"
       fill="#161615" />
    <path
       id="Pfad_101180"
       data-name="Pfad 101180"
       d="m 164.46,329.6 22.531,-16.4 -3.449,-4.739 q -2.159,-0.575 -4.339,-1.1 l -20.22,14.725 z"
       transform="translate(42.931,1.047)"
       fill="#161615" />
    <path
       id="Pfad_101181"
       data-name="Pfad 101181"
       d="m 235.95,550.772 -0.065,0.418 c 0.136,-0.121 0.273,-0.241 0.409,-0.363 z"
       transform="translate(63.694,66.809)"
       fill="#161615" />
    <path
       id="Pfad_101182"
       data-name="Pfad 101182"
       d="m 144.771,587.727 -2.852,-3.915 -5.233,3.81 c 2.126,0.075 4.258,0.126 6.4,0.126 0.564,0 1.123,-0.016 1.685,-0.021 z"
       transform="translate(36.91,75.735)"
       fill="#161615" />
    <path
       id="Pfad_101183"
       data-name="Pfad 101183"
       d="m 104.964,577.757 -9.677,-1.522 -0.539,3.422 q 4.664,1.639 9.441,3.028 z"
       transform="translate(25.585,73.688)"
       fill="#161615" />
    <rect
       id="Rechteck_157150"
       data-name="Rechteck 157150"
       width="27.875"
       height="9.3030005"
       transform="matrix(0.809,-0.588,0.588,0.809,200.028,643.877)"
       fill="#161615"
       x="0"
       y="0" />
    <rect
       id="Rechteck_157151"
       data-name="Rechteck 157151"
       width="9.7969999"
       height="9.7959995"
       transform="matrix(0.155,-0.988,0.988,0.155,197.188,627.839)"
       fill="#161615"
       x="0"
       y="0" />
    <rect
       id="Rechteck_157152"
       data-name="Rechteck 157152"
       width="27.874001"
       height="9.3030005"
       transform="rotate(-36.066,1045.5113,-17.437337)"
       fill="#161615"
       x="0"
       y="0" />
    <rect
       id="Rechteck_157153"
       data-name="Rechteck 157153"
       width="9.7959995"
       height="9.7959995"
       transform="rotate(-81.056,479.02013,220.6614)"
       fill="#161615"
       x="0"
       y="0" />
    <rect
       id="Rechteck_157154"
       data-name="Rechteck 157154"
       width="27.874001"
       height="9.302"
       transform="rotate(-36.047,1073.4576,65.621739)"
       fill="#161615"
       x="0"
       y="0" />
    <rect
       id="Rechteck_157155"
       data-name="Rechteck 157155"
       width="9.7959995"
       height="9.7959995"
       transform="matrix(0.155,-0.988,0.988,0.155,230.302,627.476)"
       fill="#161615"
       x="0"
       y="0" />
    <rect
       id="Rechteck_157156"
       data-name="Rechteck 157156"
       width="27.875"
       height="9.3030005"
       transform="rotate(-36.068,1061.4546,-68.452624)"
       fill="#161615"
       x="0"
       y="0" />
    <rect
       id="Rechteck_157157"
       data-name="Rechteck 157157"
       width="27.875"
       height="9.3030005"
       transform="rotate(-36.058,1078.9664,-121.69356)"
       fill="#161615"
       x="0"
       y="0" />
    <rect
       id="Rechteck_157158"
       data-name="Rechteck 157158"
       width="9.7959995"
       height="9.7959995"
       transform="matrix(0.155,-0.988,0.988,0.155,274.509,595.053)"
       fill="#161615"
       x="0"
       y="0" />
    <rect
       id="Rechteck_157159"
       data-name="Rechteck 157159"
       width="27.875"
       height="9.3030005"
       transform="matrix(0.809,-0.588,0.588,0.809,234.134,644.192)"
       fill="#161615"
       x="0"
       y="0" />
    <rect
       id="Rechteck_157160"
       data-name="Rechteck 157160"
       width="9.7959995"
       height="9.7959995"
       transform="rotate(-81.056,499.36384,159.25768)"
       fill="#161615"
       x="0"
       y="0" />
    <path
       id="Pfad_101184"
       data-name="Pfad 101184"
       d="m 190.265,327.314 14.208,-10.349 q -4.944,-2.246 -10.048,-4.19 l -9.637,7.019 z"
       transform="translate(49.9,2.51)"
       fill="#161615" />
    <rect
       id="Rechteck_157161"
       data-name="Rechteck 157161"
       width="27.874001"
       height="9.3030005"
       transform="rotate(-36.062,684.66589,-85.109602)"
       fill="#161615"
       x="0"
       y="0" />
    <rect
       id="Rechteck_157162"
       data-name="Rechteck 157162"
       width="27.874001"
       height="9.3030005"
       transform="rotate(-36.062,666.95107,-31.821665)"
       fill="#161615"
       x="0"
       y="0" />
    <rect
       id="Rechteck_157163"
       data-name="Rechteck 157163"
       width="27.874001"
       height="9.3030005"
       transform="rotate(-36.058,575.51765,91.471985)"
       fill="#161615"
       x="0"
       y="0" />
    <rect
       id="Rechteck_157164"
       data-name="Rechteck 157164"
       width="27.875"
       height="9.3030005"
       transform="rotate(-36.062,608.7477,-12.762971)"
       fill="#161615"
       x="0"
       y="0" />
    <rect
       id="Rechteck_157165"
       data-name="Rechteck 157165"
       width="9.7959995"
       height="9.7959995"
       transform="matrix(0.155,-0.988,0.988,0.155,167.177,402.497)"
       fill="#161615"
       x="0"
       y="0" />
    <rect
       id="Rechteck_157166"
       data-name="Rechteck 157166"
       width="9.7980003"
       height="9.7959995"
       transform="matrix(0.155,-0.988,0.988,0.155,177.463,370.008)"
       fill="#161615"
       x="0"
       y="0" />
    <rect
       id="Rechteck_157167"
       data-name="Rechteck 157167"
       width="9.7959995"
       height="9.7959995"
       transform="matrix(0.155,-0.988,0.988,0.155,318.898,562.877)"
       fill="#161615"
       x="0"
       y="0" />
    <rect
       id="Rechteck_157168"
       data-name="Rechteck 157168"
       width="9.7959995"
       height="9.7959995"
       transform="matrix(0.155,-0.988,0.988,0.155,201.081,402.215)"
       fill="#161615"
       x="0"
       y="0" />
    <rect
       id="Rechteck_157169"
       data-name="Rechteck 157169"
       width="27.875"
       height="9.3030005"
       transform="rotate(-36.058,636.51865,71.337011)"
       fill="#161615"
       x="0"
       y="0" />
    <rect
       id="Rechteck_157170"
       data-name="Rechteck 157170"
       width="9.7959995"
       height="9.7959995"
       transform="matrix(0.155,-0.988,0.988,0.155,77.06,372.265)"
       fill="#161615"
       x="0"
       y="0" />
    <rect
       id="Rechteck_157171"
       data-name="Rechteck 157171"
       width="27.874001"
       height="9.3039999"
       transform="rotate(-36.065,651.55467,19.024339)"
       fill="#161615"
       x="0"
       y="0" />
    <rect
       id="Rechteck_157172"
       data-name="Rechteck 157172"
       width="9.7959995"
       height="9.7959995"
       transform="matrix(0.155,-0.988,0.988,0.155,99.735,403.238)"
       fill="#161615"
       x="0"
       y="0" />
    <rect
       id="Rechteck_157173"
       data-name="Rechteck 157173"
       width="27.872999"
       height="9.3030005"
       transform="rotate(-36.063,694.63373,52.298043)"
       fill="#161615"
       x="0"
       y="0" />
    <rect
       id="Rechteck_157174"
       data-name="Rechteck 157174"
       width="9.7959995"
       height="9.7959995"
       transform="matrix(0.155,-0.988,0.988,0.155,143.942,370.814)"
       fill="#161615"
       x="0"
       y="0" />
    <path
       id="Pfad_101185"
       data-name="Pfad 101185"
       d="m 245.642,357.493 8.914,1.4 q -3.71,-4.658 -7.709,-9.066 z"
       transform="translate(66.33,12.521)"
       fill="#161615" />
    <path
       id="Pfad_101186"
       data-name="Pfad 101186"
       d="m 254.207,378.3 10.472,-7.626 q -2.507,-3.927 -5.208,-7.715 l -10.741,7.822 z"
       transform="translate(67.165,16.069)"
       fill="#161615" />
    <rect
       id="Rechteck_157175"
       data-name="Rechteck 157175"
       width="27.875"
       height="9.3030005"
       transform="rotate(-36.058,734.68743,-239.6089)"
       fill="#161615"
       x="0"
       y="0" />
    <path
       id="Pfad_101187"
       data-name="Pfad 101187"
       d="m 277.636,498.692 q 2.818,-7.425 5,-15.149 l -20.845,15.182 5.476,7.519 z"
       transform="translate(70.692,48.646)"
       fill="#161615" />
    <rect
       id="Rechteck_157176"
       data-name="Rechteck 157176"
       width="9.7969999"
       height="9.7959995"
       transform="matrix(0.155,-0.988,0.988,0.155,329.516,531.165)"
       fill="#161615"
       x="0"
       y="0" />
    <rect
       id="Rechteck_157177"
       data-name="Rechteck 157177"
       width="9.7959995"
       height="9.7969999"
       transform="rotate(-81.056,356.11638,22.103065)"
       fill="#161615"
       x="0"
       y="0" />
    <rect
       id="Rechteck_157178"
       data-name="Rechteck 157178"
       width="27.875"
       height="9.3030005"
       transform="rotate(-36.062,745.94528,-105.28367)"
       fill="#161615"
       x="0"
       y="0" />
    <rect
       id="Rechteck_157179"
       data-name="Rechteck 157179"
       width="9.7959995"
       height="9.7959995"
       transform="rotate(-81.056,353.01039,63.716956)"
       fill="#161615"
       x="0"
       y="0" />
    <rect
       id="Rechteck_157180"
       data-name="Rechteck 157180"
       width="27.875"
       height="9.3030005"
       transform="rotate(-36.064,701.28245,-136.34914)"
       fill="#161615"
       x="0"
       y="0" />
    <rect
       id="Rechteck_157181"
       data-name="Rechteck 157181"
       width="27.875"
       height="9.3030005"
       transform="rotate(-36.058,673.74719,-219.55099)"
       fill="#161615"
       x="0"
       y="0" />
    <rect
       id="Rechteck_157182"
       data-name="Rechteck 157182"
       width="27.874001"
       height="9.3030005"
       transform="rotate(-36.063,718.83689,-188.58714)"
       fill="#161615"
       x="0"
       y="0" />
    <rect
       id="Rechteck_157183"
       data-name="Rechteck 157183"
       width="27.874001"
       height="9.3030005"
       transform="rotate(-36.067,762.16331,-156.37786)"
       fill="#161615"
       x="0"
       y="0" />
    <rect
       id="Rechteck_157184"
       data-name="Rechteck 157184"
       width="27.875"
       height="9.3030005"
       transform="rotate(-36.058,1018.0247,-101.63615)"
       fill="#161615"
       x="0"
       y="0" />
    <rect
       id="Rechteck_157185"
       data-name="Rechteck 157185"
       width="27.875"
       height="9.3030005"
       transform="rotate(-36.068,984.18601,2.7514941)"
       fill="#161615"
       x="0"
       y="0" />
    <rect
       id="Rechteck_157186"
       data-name="Rechteck 157186"
       width="9.7959995"
       height="9.7959995"
       transform="matrix(0.155,-0.988,0.988,0.155,206.815,595.447)"
       fill="#161615"
       x="0"
       y="0" />
    <rect
       id="Rechteck_157187"
       data-name="Rechteck 157187"
       width="27.875"
       height="9.3030005"
       transform="matrix(0.809,-0.588,0.588,0.809,220.274,579.773)"
       fill="#161615"
       x="0"
       y="0" />
    <rect
       id="Rechteck_157188"
       data-name="Rechteck 157188"
       width="9.7959995"
       height="9.7959995"
       transform="matrix(0.155,-0.988,0.988,0.155,217.301,563.557)"
       fill="#161615"
       x="0"
       y="0" />
    <rect
       id="Rechteck_157189"
       data-name="Rechteck 157189"
       width="27.875"
       height="9.3030005"
       transform="rotate(-36.066,966.701,54.955991)"
       fill="#161615"
       x="0"
       y="0" />
    <rect
       id="Rechteck_157190"
       data-name="Rechteck 157190"
       width="27.875"
       height="9.3030005"
       transform="matrix(0.809,-0.588,0.588,0.809,176.542,611.849)"
       fill="#161615"
       x="0"
       y="0" />
    <rect
       id="Rechteck_157191"
       data-name="Rechteck 157191"
       width="9.7959995"
       height="9.7959995"
       transform="matrix(0.155,-0.988,0.988,0.155,173.57,595.633)"
       fill="#161615"
       x="0"
       y="0" />
    <rect
       id="Rechteck_157192"
       data-name="Rechteck 157192"
       width="27.875"
       height="9.3039999"
       transform="matrix(0.808,-0.589,0.589,0.808,264.481,547.352)"
       fill="#161615"
       x="0"
       y="0" />
    <rect
       id="Rechteck_157193"
       data-name="Rechteck 157193"
       width="9.7959995"
       height="9.7969999"
       transform="matrix(0.155,-0.988,0.988,0.155,240.92,595.763)"
       fill="#161615"
       x="0"
       y="0" />
    <rect
       id="Rechteck_157194"
       data-name="Rechteck 157194"
       width="9.7980003"
       height="9.7969999"
       transform="rotate(-81.065,471.97756,114.94069)"
       fill="#161615"
       x="0"
       y="0" />
    <rect
       id="Rechteck_157195"
       data-name="Rechteck 157195"
       width="27.875"
       height="9.3030005"
       transform="matrix(0.808,-0.589,0.589,0.808,46.794,388.671)"
       fill="#161615"
       x="0"
       y="0" />
    <rect
       id="Rechteck_157196"
       data-name="Rechteck 157196"
       width="27.875"
       height="9.3030005"
       transform="matrix(0.808,-0.589,0.589,0.808,287.964,579.379)"
       fill="#161615"
       x="0"
       y="0" />
    <rect
       id="Rechteck_157197"
       data-name="Rechteck 157197"
       width="9.7959995"
       height="9.7969999"
       transform="rotate(-81.057,454.78682,134.70493)"
       fill="#161615"
       x="0"
       y="0" />
    <rect
       id="Rechteck_157198"
       data-name="Rechteck 157198"
       width="27.874001"
       height="9.3030005"
       transform="rotate(-36.058,916.75058,209.43394)"
       fill="#161615"
       x="0"
       y="0" />
    <rect
       id="Rechteck_157199"
       data-name="Rechteck 157199"
       width="9.7959995"
       height="9.7959995"
       transform="matrix(0.155,-0.988,0.988,0.155,72.124,595.2)"
       fill="#161615"
       x="0"
       y="0" />
    <rect
       id="Rechteck_157200"
       data-name="Rechteck 157200"
       width="9.7959995"
       height="9.7969999"
       transform="rotate(-81.056,370.75382,233.3393)"
       fill="#161615"
       x="0"
       y="0" />
    <rect
       id="Rechteck_157201"
       data-name="Rechteck 157201"
       width="9.7959995"
       height="9.7969999"
       transform="rotate(-81.056,353.518,253.12572)"
       fill="#161615"
       x="0"
       y="0" />
    <path
       id="Pfad_101188"
       data-name="Pfad 101188"
       d="M 34.832,507.962 19.41,519.194 q 2.364,4.028 4.928,7.919 l 15.97,-11.631 z"
       transform="translate(5.242,55.243)"
       fill="#161615" />
    <rect
       id="Rechteck_157202"
       data-name="Rechteck 157202"
       width="27.875"
       height="9.3030005"
       transform="matrix(0.809,-0.588,0.588,0.809,143.297,612.033)"
       fill="#161615"
       x="0"
       y="0" />
    <path
       id="Pfad_101189"
       data-name="Pfad 101189"
       d="m 34.827,352.988 -1,6.385 9.673,1.527 1.522,-9.677 -7.569,-1.19 q -1.329,1.461 -2.626,2.955 z"
       transform="translate(9.136,12.575)"
       fill="#161615" />
    <rect
       id="Rechteck_157203"
       data-name="Rechteck 157203"
       width="9.7959995"
       height="9.7959995"
       transform="rotate(-81.064,417.85144,216.10509)"
       fill="#161615"
       x="0"
       y="0" />
    <rect
       id="Rechteck_157204"
       data-name="Rechteck 157204"
       width="27.875"
       height="9.3030005"
       transform="matrix(0.808,-0.589,0.589,0.808,119.689,579.842)"
       fill="#161615"
       x="0"
       y="0" />
    <rect
       id="Rechteck_157205"
       data-name="Rechteck 157205"
       width="9.7959995"
       height="9.7959995"
       transform="matrix(0.155,-0.988,0.988,0.155,115.856,563.124)"
       fill="#161615"
       x="0"
       y="0" />
    <rect
       id="Rechteck_157206"
       data-name="Rechteck 157206"
       width="27.875"
       height="9.3030005"
       transform="matrix(0.808,-0.589,0.589,0.808,85.584,579.526)"
       fill="#161615"
       x="0"
       y="0" />
    <rect
       id="Rechteck_157207"
       data-name="Rechteck 157207"
       width="27.875"
       height="9.3030005"
       transform="matrix(0.808,-0.589,0.589,0.808,96.072,547.638)"
       fill="#161615"
       x="0"
       y="0" />
  </g>
  <g
     inkscape:groupmode="layer"
     id="layer1"
     inkscape:label="Kreis"
     transform="translate(74.0467)">
    <ellipse
       style="fill:#000000;fill-opacity:1;stroke-width:0.460693"
       id="path6166"
       cx="101.79807"
       cy="179.56732"
       rx="175.84477"
       ry="179.56731" />
  </g>
</svg>
