<svg xmlns="http://www.w3.org/2000/svg" width="332.041" height="283.464" viewBox="0 0 332.041 283.464"><g fill="#009BB5"><path d="M0 64.781l21.594-21.594 21.591 21.591-21.594 21.594zM43.187 107.964l21.594-21.594 21.592 21.592-21.594 21.594zM43.186 21.595l21.588-21.594 21.596 21.59-21.588 21.594zM86.377 64.779l21.6-21.597 21.593 21.596-21.6 21.597z"/></g><path d="M56.299 180.369c0 4.445-3.264 7.663-8.311 7.663h-4.79v-15.278h4.79c5.047-.001 8.311 3.101 8.311 7.615zm-10.65-5.395v10.858h2.315c3.59 0 5.812-2.294 5.812-5.464 0-3.265-2.222-5.395-5.812-5.395h-2.315zM70.882 174.951h-7.596v3.913h5.717v2.13h-5.717v4.839h7.871v2.199h-10.322v-15.278h10.047v2.197zM87.57 181.85c0 4.072-2.684 6.437-6.249 6.437-3.633 0-6.298-2.364-6.298-6.437v-9.097h2.455v9.26c0 2.685 1.688 4.027 3.843 4.027 2.13 0 3.794-1.343 3.794-4.027v-9.26h2.455v9.097zM103.729 174.951h-5.16v13.081h-2.454v-13.081h-5.14v-2.197h12.754v2.197zM116.256 175.229l-1.716 1.32c-.786-1.181-1.895-1.852-3.215-1.852-1.227 0-2.316.603-2.316 1.852 0 1.155.879 1.574 2.13 2.176l1.716.787c2.313 1.064 3.654 2.246 3.654 4.352 0 2.708-2.197 4.423-5.114 4.423-2.547 0-4.607-1.298-5.763-3.312l1.734-1.32c.879 1.274 2.106 2.431 4.006 2.431 1.574 0 2.637-.81 2.637-2.128 0-1.206-.903-1.668-2.242-2.294l-1.69-.786c-1.969-.903-3.567-2.083-3.567-4.235 0-2.525 2.176-4.146 4.816-4.146 2.245 0 4.003 1.159 4.93 2.732zM134.475 176.016l-1.852 1.367c-1.063-1.644-2.64-2.641-4.675-2.641-3.15 0-5.514 2.384-5.514 5.647 0 3.265 2.363 5.65 5.514 5.65 2.035 0 3.611-.997 4.675-2.641l1.852 1.367c-1.273 2.128-3.679 3.52-6.552 3.52-4.468 0-8.031-3.403-8.031-7.896 0-4.466 3.563-7.894 8.031-7.894 2.873.002 5.254 1.393 6.552 3.521zM151.4 188.032h-2.453v-6.991h-7.688v6.991h-2.453v-15.278h2.453v6.086h7.688v-6.086h2.453v15.278zM166.916 174.951h-7.592v3.913h5.72v2.13h-5.72v4.839h7.868v2.199h-10.323v-15.278h10.047v2.197zM181.086 175.229l-1.713 1.32c-.789-1.181-1.896-1.852-3.22-1.852-1.225 0-2.313.603-2.313 1.852 0 1.155.879 1.574 2.13 2.176l1.713.787c2.314 1.064 3.657 2.246 3.657 4.352 0 2.708-2.2 4.423-5.116 4.423-2.548 0-4.606-1.298-5.763-3.312l1.737-1.32c.877 1.274 2.107 2.431 4.002 2.431 1.576 0 2.639-.81 2.639-2.128 0-1.206-.902-1.668-2.244-2.294l-1.692-.786c-1.966-.903-3.562-2.083-3.562-4.235 0-2.525 2.175-4.146 4.813-4.146 2.245 0 4.004 1.159 4.932 2.732zM204.027 174.951h-7.361v4.562h6.063v2.222h-6.063v6.298h-2.454v-15.278h9.815v2.196zM222.711 180.39c0 4.493-3.612 7.896-8.034 7.896-4.468 0-8.008-3.426-8.008-7.896 0-4.466 3.562-7.894 8.008-7.894 4.422.001 8.034 3.428 8.034 7.894zm-13.497-.021c0 3.286 2.317 5.672 5.488 5.672 3.123 0 5.484-2.386 5.484-5.672 0-3.218-2.361-5.626-5.484-5.626-3.171 0-5.488 2.383-5.488 5.626zM236.876 188.032l-4.354-5.905h-2.801v5.905h-2.453v-15.278h5.578c3.104 0 5.187 1.896 5.187 4.675 0 2.014-1.112 3.588-2.939 4.306l4.581 6.298h-2.799zm-7.154-8.081h3.078c1.736 0 2.709-1.04 2.709-2.499 0-1.48-.973-2.525-2.709-2.525h-3.078v5.024zM255.504 181.85c0 4.072-2.688 6.437-6.252 6.437-3.634 0-6.295-2.364-6.295-6.437v-9.097h2.455v9.26c0 2.685 1.688 4.027 3.84 4.027 2.131 0 3.801-1.343 3.801-4.027v-9.26h2.451v9.097zM275.342 172.497v15.535h-2.455v-9.585l-4.373 5.74h-.836l-4.396-5.74v9.585h-2.453v-15.535h.855l6.414 8.544 6.412-8.544h.832zM53.011 198.747h-7.361v4.559h6.066v2.224h-6.066v6.298h-2.451v-15.281h9.812v2.2zM69.236 205.644c0 4.075-2.684 6.435-6.251 6.435-3.633 0-6.296-2.359-6.296-6.435v-9.099h2.459v9.26c0 2.686 1.687 4.029 3.837 4.029 2.132 0 3.798-1.344 3.798-4.029v-9.26h2.453v9.099zm-7.569-12.342c0 .811-.693 1.503-1.55 1.503-.81 0-1.575-.692-1.575-1.503 0-.856.766-1.504 1.575-1.504.857 0 1.55.648 1.55 1.504zm5.672.023c0 .81-.692 1.505-1.573 1.505-.785 0-1.55-.695-1.55-1.505 0-.855.765-1.526 1.55-1.526.88-.001 1.573.67 1.573 1.526zM84.263 211.827l-4.352-5.903h-2.799v5.903h-2.455v-15.281h5.577c3.103 0 5.186 1.9 5.186 4.679 0 2.014-1.109 3.587-2.939 4.305l4.585 6.298h-2.803zm-7.151-8.08h3.076c1.735 0 2.709-1.042 2.709-2.5 0-1.482-.974-2.522-2.709-2.522h-3.076v5.022zM98.875 196.545h2.452v15.281h-2.452v-15.281zm12.636 15.282h-3.033l-7.081-8.125 6.411-7.156h3.011l-6.345 7.156 7.037 8.125zM127.323 205.644c0 4.075-2.685 6.435-6.252 6.435-3.634 0-6.293-2.359-6.293-6.435v-9.099h2.453v9.26c0 2.686 1.69 4.029 3.84 4.029 2.131 0 3.798-1.344 3.798-4.029v-9.26h2.454v9.099zM145.336 196.545v15.533h-.835l-9.305-10.578v10.326h-2.454v-15.533h.856l9.282 10.554v-10.302h2.456zM160.219 199.023l-1.715 1.32c-.787-1.18-1.896-1.853-3.218-1.853-1.225 0-2.313.602-2.313 1.853 0 1.157.878 1.573 2.128 2.177l1.713.785c2.315 1.066 3.659 2.248 3.659 4.354 0 2.709-2.2 4.42-5.117 4.42-2.547 0-4.607-1.294-5.765-3.308l1.738-1.322c.879 1.273 2.104 2.433 4.004 2.433 1.574 0 2.64-.812 2.64-2.131 0-1.204-.906-1.665-2.247-2.291l-1.687-.785c-1.971-.903-3.566-2.085-3.566-4.239 0-2.522 2.175-4.142 4.813-4.142 2.246-.001 4.004 1.155 4.933 2.729zM176.216 198.747h-5.163v13.08h-2.455v-13.08h-5.139v-2.201h12.757v2.201zM192.882 199.487l-1.782 1.457c-1.063-1.502-2.569-2.405-4.562-2.405-3.261 0-5.484 2.405-5.484 5.623 0 3.287 2.293 5.72 5.627 5.72 2.059 0 3.633-.927 4.559-2.314v-1.644h-4.701v-2.177h7.156v4.307c-1.32 2.382-3.981 4.025-7.132 4.025-4.534 0-8.054-3.426-8.054-7.893s3.544-7.893 8.054-7.893c2.687 0 4.884 1.18 6.319 3.194zM208.453 198.747h-7.592v3.912h5.716v2.13h-5.716v4.837h7.868v2.201h-10.321v-15.281h10.045v2.201zM222.623 199.023l-1.715 1.32c-.787-1.18-1.897-1.853-3.218-1.853-1.229 0-2.316.602-2.316 1.853 0 1.157.884 1.573 2.131 2.177l1.713.785c2.313 1.066 3.657 2.248 3.657 4.354 0 2.709-2.198 4.42-5.114 4.42-2.548 0-4.607-1.294-5.765-3.308l1.735-1.322c.877 1.273 2.107 2.433 4.006 2.433 1.574 0 2.637-.812 2.637-2.131 0-1.204-.901-1.665-2.244-2.291l-1.69-.785c-1.968-.903-3.564-2.085-3.564-4.239 0-2.522 2.173-4.142 4.815-4.142 2.244-.001 4.002 1.155 4.932 2.729zM240.969 199.812l-1.853 1.363c-1.062-1.644-2.635-2.637-4.675-2.637-3.149 0-5.509 2.385-5.509 5.647s2.359 5.648 5.509 5.648c2.04 0 3.612-.996 4.675-2.638l1.853 1.365c-1.271 2.129-3.68 3.517-6.55 3.517-4.467 0-8.035-3.401-8.035-7.893 0-4.467 3.568-7.893 8.035-7.893 2.87.002 5.254 1.39 6.55 3.521zM257.895 211.827h-2.455v-6.992h-7.682v6.992h-2.453v-15.281h2.453v6.091h7.682v-6.091h2.455v15.281zM265.819 211.827h-2.455v-15.281h2.455v15.281zM284.936 199.812l-1.85 1.363c-1.066-1.644-2.641-2.637-4.68-2.637-3.148 0-5.51 2.385-5.51 5.647s2.361 5.648 5.51 5.648c2.039 0 3.613-.996 4.68-2.638l1.85 1.365c-1.273 2.129-3.682 3.517-6.551 3.517-4.467 0-8.031-3.401-8.031-7.893 0-4.467 3.564-7.893 8.031-7.893 2.869.002 5.254 1.39 6.551 3.521zM301.862 211.827h-2.455v-6.992h-7.686v6.992h-2.451v-15.281h2.451v6.091h7.686v-6.091h2.455v15.281zM318.334 198.747h-5.166v13.08h-2.453v-13.08h-5.137v-2.201h12.756v2.201zM332.083 198.747h-7.594v3.912h5.717v2.13h-5.717v4.837h7.873v2.201h-10.326v-15.281h10.047v2.201z"/><path fill="#929395" d="M56.738 223.605l-1.852 1.367c-1.065-1.644-2.641-2.641-4.677-2.641-3.146 0-5.511 2.384-5.511 5.649s2.364 5.648 5.511 5.648c2.036 0 3.611-.997 4.677-2.641l1.852 1.367c-1.273 2.132-3.681 3.52-6.551 3.52-4.469 0-8.034-3.405-8.034-7.895 0-4.468 3.565-7.896 8.034-7.896 2.871.002 5.253 1.394 6.551 3.522zM71.001 222.542h-7.594v3.912h5.717v2.13h-5.717v4.837h7.871v2.197h-10.322v-15.276h10.045v2.2zM88.148 220.342v15.533h-.834l-9.305-10.58v10.323h-2.455v-15.533h.856l9.28 10.558v-10.301h2.458zM104.616 222.542h-5.163v13.076h-2.453v-13.076h-5.137v-2.2h12.753v2.2zM117.929 235.619l-4.354-5.902h-2.799v5.902h-2.455v-15.276h5.576c3.104 0 5.19 1.897 5.19 4.677 0 2.012-1.113 3.588-2.941 4.304l4.581 6.296h-2.798zm-7.154-8.077h3.077c1.734 0 2.708-1.044 2.708-2.501 0-1.48-.974-2.522-2.708-2.522h-3.077v5.023zM134.437 222.542h-7.596v3.912h5.717v2.13h-5.717v4.837h7.872v2.197h-10.325v-15.276h10.049v2.2zM156.217 233.072h-6.875l-1.087 2.547h-2.614l6.735-15.533h.836l6.735 15.533h-2.642l-1.088-2.547zm-3.424-8.447l-2.547 6.344h5.069l-2.522-6.344zM166.104 233.421h6.99v2.197h-9.443v-15.276h2.453v13.079zM178.839 233.421h6.989v2.197h-9.441v-15.276h2.452v13.079zM199.675 222.542h-7.594v3.912h5.716v2.13h-5.716v4.837h7.87v2.197h-10.322v-15.276h10.046v2.2zM218.744 220.085v15.533h-2.455v-9.581l-4.374 5.74h-.834l-4.396-5.74v9.581h-2.455v-15.533h.855l6.413 8.544 6.413-8.544h.833zM233.105 233.072h-6.875l-1.091 2.547h-2.615l6.738-15.533h.832l6.734 15.533h-2.637l-1.086-2.547zm-3.426-8.447l-2.547 6.344h5.067l-2.52-6.344zM253.196 220.342v15.533h-.834l-9.306-10.58v10.323h-2.453v-15.533h.854l9.282 10.558v-10.301h2.457zM271.768 227.958c0 4.442-3.266 7.66-8.311 7.66h-4.793v-15.276h4.793c5.045 0 8.311 3.101 8.311 7.616zm-10.652-5.394v10.857h2.318c3.588 0 5.811-2.294 5.811-5.463 0-3.266-2.223-5.395-5.811-5.395h-2.318zM56.299 251.752c0 4.444-3.264 7.661-8.311 7.661h-4.79v-15.277h4.79c5.047 0 8.311 3.103 8.311 7.616zm-10.65-5.392v10.854h2.315c3.59 0 5.812-2.291 5.812-5.462 0-3.265-2.222-5.393-5.812-5.393h-2.315zM62.505 250.339h-1.874l.206-6.203h2.801l-1.133 6.203zM81.259 259.414h-2.451v-6.99h-7.688v6.99h-2.453v-15.277h2.453v6.089h7.688v-6.089h2.451v15.277zM89.187 259.414h-2.459v-15.277h2.459v15.277zM104.005 246.614l-1.715 1.318c-.787-1.18-1.896-1.851-3.218-1.851-1.227 0-2.314.602-2.314 1.851 0 1.157.879 1.576 2.13 2.177l1.714.787c2.313 1.064 3.656 2.246 3.656 4.354 0 2.707-2.195 4.42-5.114 4.42-2.549 0-4.607-1.296-5.765-3.31l1.736-1.318c.879 1.27 2.106 2.429 4.006 2.429 1.572 0 2.639-.81 2.639-2.131 0-1.201-.907-1.665-2.246-2.291l-1.69-.785c-1.969-.903-3.565-2.085-3.565-4.239 0-2.521 2.175-4.142 4.814-4.142 2.247-.001 4.005 1.157 4.932 2.731zM120 246.335h-5.163v13.078h-2.451v-13.078h-5.141v-2.199h12.755v2.199zM138.22 251.775c0 4.491-3.612 7.895-8.032 7.895-4.466 0-8.009-3.428-8.009-7.895s3.565-7.893 8.009-7.893c4.419 0 8.032 3.426 8.032 7.893zm-13.494-.023c0 3.289 2.312 5.672 5.485 5.672 3.125 0 5.488-2.383 5.488-5.672 0-3.218-2.363-5.625-5.488-5.625-3.173 0-5.485 2.385-5.485 5.625zM145.219 259.414h-2.454v-15.277h2.454v15.277zM160.248 259.414l-4.353-5.901h-2.8v5.901h-2.455v-15.277h5.576c3.104 0 5.188 1.898 5.188 4.677 0 2.014-1.111 3.588-2.938 4.305l4.583 6.296h-2.801zm-7.152-8.079h3.076c1.735 0 2.71-1.041 2.71-2.502 0-1.479-.975-2.521-2.71-2.521h-3.076v5.023zM176.755 246.335h-7.593v3.912h5.718v2.13h-5.718v4.837h7.872v2.199h-10.327v-15.277h10.048v2.199zM202.702 251.752c0 4.444-3.262 7.661-8.307 7.661h-4.791v-15.277h4.791c5.045 0 8.307 3.103 8.307 7.616zm-10.647-5.392v10.854h2.318c3.587 0 5.81-2.291 5.81-5.462 0-3.265-2.223-5.393-5.81-5.393h-2.318zM217.287 246.335h-7.594v3.912h5.72v2.13h-5.72v4.837h7.87v2.199h-10.321v-15.277h10.045v2.199zM232.706 257.214h6.99v2.199h-9.445v-15.277h2.455v13.078zM242.789 250.339h-1.877l.209-6.203h2.802l-1.134 6.203zM256.231 256.869h-6.877l-1.087 2.545h-2.615l6.738-15.531h.832l6.738 15.531h-2.639l-1.09-2.545zm-3.424-8.451l-2.547 6.343h5.066l-2.519-6.343zM273.155 259.414l-4.352-5.901h-2.803v5.901h-2.451v-15.277h5.576c3.1 0 5.188 1.898 5.188 4.677 0 2.014-1.113 3.588-2.939 4.305l4.582 6.296h-2.801zm-7.155-8.079h3.08c1.736 0 2.709-1.041 2.709-2.502 0-1.479-.973-2.521-2.709-2.521h-3.08v5.023zM290.448 246.335h-5.162v13.078h-2.451v-13.078h-5.143v-2.199h12.756v2.199z"/><path d="M53.961 272.608c0 2.754-2.085 4.698-5.185 4.698h-3.127v5.903h-2.451v-15.278h5.578c3.1 0 5.185 1.9 5.185 4.677zm-8.312-2.5v5.022h3.081c1.757 0 2.704-1.042 2.704-2.5 0-1.481-.947-2.522-2.704-2.522h-3.081zM65.792 280.663h-6.878l-1.088 2.547h-2.612l6.731-15.534h.836l6.739 15.534h-2.64l-1.088-2.547zm-3.428-8.449l-2.545 6.343h5.069l-2.524-6.343zM82.714 283.209l-4.352-5.903h-2.802v5.903h-2.451v-15.278h5.578c3.102 0 5.187 1.899 5.187 4.677 0 2.012-1.11 3.586-2.942 4.306l4.583 6.296h-2.801zm-7.154-8.079h3.082c1.735 0 2.707-1.042 2.707-2.5 0-1.481-.972-2.522-2.707-2.522h-3.082v5.022zM91.628 283.209h-2.452v-15.278h2.452v15.278zM106.448 270.409l-1.711 1.32c-.789-1.182-1.901-1.854-3.217-1.854-1.23 0-2.318.603-2.318 1.854 0 1.157.881 1.572 2.132 2.175l1.713.788c2.312 1.062 3.657 2.244 3.657 4.35 0 2.71-2.199 4.423-5.116 4.423-2.547 0-4.608-1.298-5.761-3.31l1.733-1.32c.879 1.273 2.105 2.431 4.003 2.431 1.573 0 2.639-.81 2.639-2.13 0-1.204-.901-1.668-2.245-2.291l-1.689-.788c-1.967-.903-3.565-2.084-3.565-4.236 0-2.522 2.179-4.145 4.818-4.145 2.242-.001 4.003 1.158 4.927 2.733z"/></svg>