<?xml version="1.0" encoding="UTF-8"?>
<svg id="Ebene_1" data-name="Ebene 1" xmlns="http://www.w3.org/2000/svg" viewBox="0 0 577.69 647.85">
  <path d="M510.77,464.86h-190.22v-96.99h-9.78l-.59-3.72c-1.68-10.52-10.64-18.15-21.31-18.15s-19.63,7.63-21.31,18.15l-.59,3.72h-9.78v96.99H66.96v-131.69l15.73-3.37c.04-38.07,0-130.08-.04-167.72l-15.73-3.37v-91.75h443.81v91.77l-15.73,3.25c.12,41.11.14,128.92.04,167.91l15.73,3.25v131.72ZM329.38,456.03h172.56v-115.69l-15.75-3.26v-3.61c.13-37.98.11-134.51-.03-175.07v-3.61s15.74-3.26,15.74-3.26v-75.75H75.75v75.78l15.72,3.37v3.56c.05,36.16.09,138.17.05,174.88v3.56s-15.73,3.37-15.73,3.37v115.72h172.56v-96.99h11.32c3.72-12.88,15.46-21.87,29.2-21.87s25.48,9,29.2,21.87h11.32v96.99ZM67.68,545.67c0-20.93,13.82-35.33,33.5-35.33,16.51,0,28.8,10.46,30.05,24.38h-9.41c-1.82-9.79-9.79-15.84-20.64-15.84-14.59,0-24.29,10.37-24.29,26.78s9.7,26.78,23.9,26.78c13.15,0,20.83-7.01,21.41-19.39h-24.09v-7.97h33.12v34.37h-7.78v-11.62c-3.26,8.06-12.19,13.06-23.61,13.06-18.81,0-32.16-14.69-32.16-35.23ZM223.52,511.78h8.83v28.41h35.52v-28.41h8.83v67.68h-8.83v-31.01h-35.52v31.01h-8.83v-67.68ZM368.8,511.78h8.83v67.68h-8.83v-67.68ZM469.83,511.78h8.83v59.42h30.33v8.26h-39.17v-67.68Z"/>
</svg>