<?xml version="1.0" encoding="UTF-8"?>
<svg id="Ebene_1" data-name="Ebene 1" xmlns="http://www.w3.org/2000/svg" viewBox="0 0 1189.9 532.97">
  <path d="M563.14,101.53c0-20.93,13.82-35.33,33.5-35.33,16.51,0,28.8,10.46,30.05,24.38h-9.41c-1.82-9.79-9.79-15.84-20.64-15.84-14.59,0-24.29,10.37-24.29,26.78s9.7,26.78,23.9,26.78c13.15,0,20.83-7.01,21.41-19.39h-24.09v-7.97h33.12v34.37h-7.78v-11.62c-3.26,8.06-12.19,13.06-23.61,13.06-18.81,0-32.16-14.69-32.16-35.23ZM643.39,67.65h41.18v8.06h-32.35v20.54h30.14v8.06h-30.14v22.94h32.35v8.06h-41.18v-67.68ZM699.07,67.65h24.29c14.59,0,22.56,6.91,22.56,19.2,0,8.45-5.09,14.69-12.96,16.51,5.09.96,8.16,4.42,9.98,11.52l3.46,12.96c.86,3.36,1.63,5.66,2.4,7.49h-9.41c-.38-1.06-1.06-3.55-2.02-7.1l-2.88-11.04c-2.02-7.1-5.38-9.89-12.29-9.89h-14.3v28.03h-8.83v-67.68ZM736.8,87.42c0-7.49-5.18-11.81-14.11-11.81h-14.78v23.81h15.55c8.26,0,13.34-4.7,13.34-12ZM761.86,67.65h12l17.28,42.14,5.86,14.69h.1l5.95-14.69,17.18-42.14h12v67.68h-8.35v-55.68l-4.7,11.52-11.71,28.22-6.53,15.94h-7.78l-6.43-15.94-11.81-28.22-4.61-11.52v55.68h-8.45v-67.68ZM868.7,67.65h9.6l26.78,67.68h-9.6l-7.49-19.39h-29.09l-7.49,19.39h-9.5l26.78-67.68ZM867.84,92.8l-5.86,15.07h22.94l-5.86-15.07-5.57-14.78-5.66,14.78ZM914.68,67.65h9.79l28.41,44.25,6.33,9.89v-54.14h8.83v67.68h-9.89l-28.32-44.16-6.43-9.98v54.14h-8.74v-67.68ZM572.64,177.65h8.83v28.41h35.52v-28.41h8.83v67.67h-8.83v-31.01h-35.52v31.01h-8.83v-67.67ZM644.26,177.65h8.83v67.67h-8.83v-67.67ZM665.47,224.11h9.12c.1,9.12,7.2,14.78,17.09,14.78,8.64,0,14.59-4.32,14.59-11.9,0-5.95-2.78-9.5-10.75-11.23l-12.57-2.78c-10.08-2.21-15.36-8.35-15.36-17.66,0-10.75,8.83-19.1,22.75-19.1,14.88,0,24.29,7.87,24.96,21.5h-9.22c-.96-9.31-6.91-13.63-15.46-13.63-9.31,0-13.82,4.22-13.82,10.75,0,5.95,3.36,8.83,10.46,10.37l11.81,2.59c11.42,2.5,16.32,8.64,16.32,18.91,0,12-10.27,20.06-23.81,20.06-15.65,0-26.11-8.83-26.11-22.65ZM744,185.9h-21.89v-8.25h52.7v8.25h-21.98v59.42h-8.83v-59.42ZM777.79,211.44c0-20.64,13.92-35.23,33.69-35.23s33.6,14.69,33.6,35.23-14.01,35.33-33.6,35.33-33.69-14.69-33.69-35.33ZM835.87,211.53c0-16.13-9.89-26.78-24.38-26.78s-24.38,10.75-24.38,26.78,9.7,26.69,24.38,26.69,24.38-10.75,24.38-26.69ZM857.86,177.65h24.29c14.59,0,22.56,6.91,22.56,19.2,0,8.45-5.09,14.69-12.96,16.51,5.09.96,8.16,4.42,9.98,11.52l3.46,12.96c.86,3.36,1.63,5.66,2.4,7.49h-9.41c-.38-1.06-1.06-3.55-2.02-7.1l-2.88-11.04c-2.02-7.1-5.38-9.89-12.29-9.89h-14.3v28.03h-8.83v-67.67ZM895.58,197.42c0-7.49-5.18-11.81-14.11-11.81h-14.78v23.81h15.55c8.26,0,13.34-4.7,13.34-12ZM920.64,177.65h8.83v67.67h-8.83v-67.67ZM942.34,211.44c0-21.02,14.21-35.23,33.69-35.23,17.47,0,30.05,11.33,30.72,26.4h-9.21c-1.25-11.13-9.41-17.85-21.69-17.85-14.3,0-24.19,10.27-24.19,26.69s9.89,26.78,24.19,26.78c12.38,0,20.45-6.72,21.69-17.85h9.21c-.67,15.07-13.25,26.4-30.72,26.4-19.49,0-33.69-14.3-33.69-35.33ZM1037.09,177.65h9.6l26.78,67.67h-9.6l-7.49-19.39h-29.09l-7.49,19.39h-9.5l26.78-67.67ZM1036.22,202.8l-5.86,15.07h22.94l-5.86-15.07-5.57-14.78-5.66,14.78ZM1083.07,177.65h8.83v59.42h30.33v8.25h-39.17v-67.67ZM572.64,287.65h8.83v67.67h-8.83v-67.67ZM601.92,287.65h9.79l28.41,44.25,6.33,9.89v-54.14h8.83v67.67h-9.89l-28.32-44.16-6.43-9.98v54.14h-8.74v-67.67ZM669.5,334.11h9.12c.1,9.12,7.2,14.78,17.09,14.78,8.64,0,14.59-4.32,14.59-11.9,0-5.95-2.78-9.5-10.75-11.23l-12.57-2.78c-10.08-2.21-15.36-8.35-15.36-17.66,0-10.75,8.83-19.1,22.75-19.1,14.88,0,24.29,7.87,24.96,21.5h-9.22c-.96-9.31-6.91-13.63-15.46-13.63-9.31,0-13.82,4.22-13.82,10.75,0,5.95,3.36,8.83,10.46,10.37l11.81,2.59c11.42,2.5,16.32,8.64,16.32,18.91,0,12-10.27,20.06-23.81,20.06-15.65,0-26.11-8.83-26.11-22.65ZM748.03,295.9h-21.89v-8.25h52.7v8.25h-21.98v59.42h-8.83v-59.42ZM791.14,287.65h8.83v67.67h-8.83v-67.67ZM834.24,295.9h-21.89v-8.25h52.7v8.25h-21.98v59.42h-8.83v-59.42ZM875.42,331.8v-44.16h8.83v43.29c0,11.13,6.34,17.47,16.32,17.47s16.22-6.43,16.22-17.47v-43.29h8.83v44.16c0,15.74-9.7,24.96-25.05,24.96s-25.15-9.31-25.15-24.96ZM957.89,295.9h-21.89v-8.25h52.7v8.25h-21.98v59.42h-8.83v-59.42ZM999.07,287.65h41.18v8.06h-32.35v20.54h30.14v8.06h-30.14v22.94h32.35v8.06h-41.18v-67.67ZM572.64,397.65h8.83v59.42h30.33v8.26h-39.17v-67.67ZM616.22,431.44c0-20.64,13.92-35.23,33.69-35.23s33.6,14.69,33.6,35.23-14.01,35.33-33.6,35.33-33.69-14.69-33.69-35.33ZM674.3,431.53c0-16.13-9.89-26.78-24.38-26.78s-24.38,10.75-24.38,26.78,9.7,26.69,24.38,26.69,24.38-10.75,24.38-26.69ZM696.29,397.65h9.79l28.41,44.25,6.33,9.89v-54.14h8.83v67.67h-9.89l-28.32-44.16-6.43-9.98v54.14h-8.74v-67.67ZM770.01,397.65h23.71c18.72,0,31.39,14.4,31.39,33.88s-12.67,33.79-31.39,33.79h-23.71v-67.67ZM815.9,431.53c0-16.89-9.89-25.63-22.56-25.63h-14.5v51.16h14.5c12.77,0,22.56-8.83,22.56-25.53ZM834.14,431.44c0-20.64,13.92-35.23,33.69-35.23s33.6,14.69,33.6,35.23-14.01,35.33-33.6,35.33-33.69-14.69-33.69-35.33ZM892.22,431.53c0-16.13-9.89-26.78-24.38-26.78s-24.38,10.75-24.38,26.78,9.7,26.69,24.38,26.69,24.38-10.75,24.38-26.69ZM914.21,397.65h9.79l28.41,44.25,6.33,9.89v-54.14h8.83v67.67h-9.89l-28.32-44.16-6.43-9.98v54.14h-8.74v-67.67ZM511.51,465.42h-190.22v-96.99h-9.78l-.59-3.72c-1.68-10.52-10.64-18.15-21.31-18.15s-19.63,7.63-21.31,18.15l-.59,3.72h-9.78v96.99H67.71v-131.69l15.73-3.37c.04-38.07,0-130.08-.04-167.72l-15.73-3.37v-91.75h443.81v91.77l-15.73,3.25c.12,41.1.14,128.92.04,167.91l15.73,3.25v131.72ZM330.13,456.59h172.56v-115.69l-15.75-3.26v-3.61c.13-37.98.11-134.51-.03-175.07v-3.61s15.74-3.26,15.74-3.26v-75.75H76.49v75.78l15.72,3.37v3.56c.05,36.16.09,138.17.05,174.88v3.56s-15.73,3.37-15.73,3.37v115.72h172.56v-96.99h11.32c3.72-12.88,15.46-21.87,29.2-21.87s25.48,9,29.2,21.87h11.32v96.99Z"/>
</svg>