<svg xmlns="http://www.w3.org/2000/svg" width="126.43" height="126.721" viewBox="0 0 126.43 126.721">
  <g id="max_weber" data-name="max weber" transform="translate(63.215 63.361)">
    <g id="Gruppe_271" data-name="Gruppe 271" transform="translate(-63.215 -63.361)">
      <path id="Pfad_95350" data-name="Pfad 95350" d="M78.69,41.85a3.629,3.629,0,0,1-1.28-1.64,6.244,6.244,0,0,1-.43-2.41,6.726,6.726,0,0,1,.42-2.42,3.913,3.913,0,0,1,1.27-1.74,3.436,3.436,0,0,1,2.13-.65,3.378,3.378,0,0,1,2.06.62,3.7,3.7,0,0,1,1.26,1.69,6.707,6.707,0,0,1,.43,2.5,6.405,6.405,0,0,1-.44,2.49,3.439,3.439,0,0,1-1.27,1.59,3.565,3.565,0,0,1-2,.56,3.636,3.636,0,0,1-2.11-.59m5,7.28a4.375,4.375,0,0,0,2-1.56,4.573,4.573,0,0,0,.85-2.75V31.36h-2v2.08h-.2c-.15-.23-.36-.52-.63-.88a3.646,3.646,0,0,0-1.17-.99,4.169,4.169,0,0,0-2-.42,5.186,5.186,0,0,0-2.91.82,5.419,5.419,0,0,0-2,2.32,8.143,8.143,0,0,0-.71,3.51,7.511,7.511,0,0,0,.73,3.47,5.19,5.19,0,0,0,2,2.18,5.454,5.454,0,0,0,2.85.75,4.31,4.31,0,0,0,2-.4,3.61,3.61,0,0,0,1.16-.93,8.988,8.988,0,0,0,.62-.88h.18v2.66a2.787,2.787,0,0,1-1,2.4,4.25,4.25,0,0,1-2.61.77,4.545,4.545,0,0,1-1.92-.35,3.611,3.611,0,0,1-1.14-.81c-.28-.31-.51-.58-.69-.82l-1.6,1.13a5.25,5.25,0,0,0,2.84,2.25,7.5,7.5,0,0,0,2.51.37,7.684,7.684,0,0,0,2.85-.5M63.98,34.63a3,3,0,0,1,1.19-1.22,3.509,3.509,0,0,1,1.72-.42,2.852,2.852,0,0,1,2.2.87,3.443,3.443,0,0,1,.8,2.41v8.18h2V36.13a6.076,6.076,0,0,0-.55-2.76,3.739,3.739,0,0,0-1.55-1.64,4.837,4.837,0,0,0-2.33-.54,4.321,4.321,0,0,0-2.42.61,3.731,3.731,0,0,0-1.4,1.6h-.16v-2h-1.9V44.45h2V36.57a4,4,0,0,1,.43-1.94m-8.67,6.49a3.245,3.245,0,0,1-1.31,1.17,3.415,3.415,0,0,1-1.53.39,2.71,2.71,0,0,1-2.06-.86,3.161,3.161,0,0,1-.86-2.25V31.36h-2v8.32a6.216,6.216,0,0,0,.55,2.76,3.692,3.692,0,0,0,1.5,1.64,4.348,4.348,0,0,0,2.18.54,4.16,4.16,0,0,0,2.46-.69,4.38,4.38,0,0,0,1.43-1.7h.13v2.22h2V31.36h-2V39.1a3.508,3.508,0,0,1-.53,2m-15.56.12a3.159,3.159,0,0,0,.54,1.9,3.2,3.2,0,0,0,1.34,1.11,4,4,0,0,0,1.67.37,4.757,4.757,0,0,0,.93-.08c.24-.06.43-.11.57-.16l-.4-1.79-.34.07a3.883,3.883,0,0,1-.55,0,2.638,2.638,0,0,1-.84-.14,1.255,1.255,0,0,1-.64-.57,2.5,2.5,0,0,1-.25-1.27V28.22h-2Zm-2-8.18h6.84v-1.7h-6.8ZM33.11,44.45V30.03a2.161,2.161,0,0,1,.47-1.46,1.818,1.818,0,0,1,1.43-.5,2.622,2.622,0,0,1,.7.08l.43.13.55-1.71a4.75,4.75,0,0,0-1.91-.34A4.3,4.3,0,0,0,33,26.6a3.314,3.314,0,0,0-1.42,1.08,3.182,3.182,0,0,0-.49,1.89v14.9ZM28.98,33.06h7.06v-1.7H28.98Zm-2.4-4.28a1.32,1.32,0,0,0,.064-1.866c-.02-.022-.042-.043-.064-.064a1.479,1.479,0,0,0-2,0,1.32,1.32,0,0,0-.064,1.866c.02.022.042.043.064.064a1.479,1.479,0,0,0,2,0m0,2.58h-2V44.45h2Zm-9.86,9.88a3.159,3.159,0,0,0,.54,1.9,3.2,3.2,0,0,0,1.32,1.11,4,4,0,0,0,1.67.37,4.757,4.757,0,0,0,.93-.08c.24-.06.43-.11.57-.16l-.44-1.81-.34.07a3.883,3.883,0,0,1-.55,0,2.528,2.528,0,0,1-.84-.07,1.267,1.267,0,0,1-.65-.57,2.5,2.5,0,0,1-.25-1.27V28.22h-2Zm-2-8.18h6.76v-1.7H14.7Zm-2.35-1.7A4.062,4.062,0,0,0,11.58,29,5.171,5.171,0,0,0,9.5,27.36a7.163,7.163,0,0,0-3-.6,7.172,7.172,0,0,0-3,.61,5.219,5.219,0,0,0-2.22,1.7,4.24,4.24,0,0,0-.8,2.56,3.688,3.688,0,0,0,1.2,2.86,8.135,8.135,0,0,0,3.23,1.68l2.15.61a12.162,12.162,0,0,1,1.71.6,3.475,3.475,0,0,1,1.28.88,2,2,0,0,1,.53,1.42,2.621,2.621,0,0,1-.56,1.66,3.662,3.662,0,0,1-1.53,1.11,5.557,5.557,0,0,1-2.17.4,6.068,6.068,0,0,1-1.98-.28,3.461,3.461,0,0,1-1.48-1,2.649,2.649,0,0,1-.67-1.63H0a4.813,4.813,0,0,0,.89,2.51,5,5,0,0,0,2.14,1.69,8.082,8.082,0,0,0,3.25.61,7.861,7.861,0,0,0,3.42-.68,5.1,5.1,0,0,0,2.15-1.81,4.626,4.626,0,0,0,.73-2.55,3.921,3.921,0,0,0-.5-2.07,4.586,4.586,0,0,0-1.27-1.39A7.314,7.314,0,0,0,9.2,35.4c-.56-.21-1.07-.38-1.52-.5L5.9,34.43c-.32-.09-.68-.2-1.06-.34a5.671,5.671,0,0,1-1.11-.52,3,3,0,0,1-.87-.82,2.164,2.164,0,0,1-.28-1.18,2.456,2.456,0,0,1,.48-1.49,3.168,3.168,0,0,1,1.35-1,5.006,5.006,0,0,1,2-.38,4.755,4.755,0,0,1,2.68.72,2.661,2.661,0,0,1,1.24,2Z"/>
      <path id="Pfad_95351" data-name="Pfad 95351" d="M121.47,17.45V9.17a2.937,2.937,0,0,1,.43-1.6,3.1,3.1,0,0,1,1.18-1.09,3.584,3.584,0,0,1,1.7-.39,6.023,6.023,0,0,1,.76,0l.46.08v-2h-1.05a3.863,3.863,0,0,0-2.12.61,3.146,3.146,0,0,0-1.25,1.56h-.14v-2H119.5V17.45Zm-8.11-.14a4.992,4.992,0,0,0,1.79-1.16,4.338,4.338,0,0,0,1-1.73l-2-.55a3.165,3.165,0,0,1-.72,1.14,3.081,3.081,0,0,1-1.11.68,4.351,4.351,0,0,1-1.44.23,4.154,4.154,0,0,1-2.14-.54,3.636,3.636,0,0,1-1.44-1.56,5.583,5.583,0,0,1-.51-2.51V10.15a4.38,4.38,0,0,1,.47-2,3.906,3.906,0,0,1,1.43-1.58,3.553,3.553,0,0,1,2.07-.59,3.48,3.48,0,0,1,1.9.5,3.384,3.384,0,0,1,1.25,1.37,4.363,4.363,0,0,1,.43,2h-8v1.72h10.09v-.86a8.391,8.391,0,0,0-.49-3.08,5.222,5.222,0,0,0-1.3-2,5.044,5.044,0,0,0-1.86-1.06,6.081,6.081,0,0,0-2-.34,5.561,5.561,0,0,0-3.09.86,5.819,5.819,0,0,0-2.11,2.37,8.133,8.133,0,0,0-.73,3.55,8,8,0,0,0,.73,3.56,5.6,5.6,0,0,0,2.11,2.35,6.107,6.107,0,0,0,3.26.84,6.65,6.65,0,0,0,2.39-.41m-20.1-9a3.736,3.736,0,0,1,1.28-1.78A3.4,3.4,0,0,1,96.58,6a3.361,3.361,0,0,1,2.13.65,3.91,3.91,0,0,1,1.27,1.76,7,7,0,0,1,.42,2.49,7.05,7.05,0,0,1-.43,2.54,4.09,4.09,0,0,1-1.28,1.81,3.331,3.331,0,0,1-2.11.67,3.289,3.289,0,0,1-2-.64,3.887,3.887,0,0,1-1.31-1.71,7.289,7.289,0,0,1-.44-2.62,7.237,7.237,0,0,1,.43-2.57M92.8,17.5v-2h.24q.229.36.63.9a3.588,3.588,0,0,0,1.17,1,4.167,4.167,0,0,0,2,.42,5.066,5.066,0,0,0,2.89-.83,5.639,5.639,0,0,0,2-2.35,8.529,8.529,0,0,0,.7-3.6,8.424,8.424,0,0,0-.7-3.58,5.652,5.652,0,0,0-2-2.35,5.221,5.221,0,0,0-2.92-.82,4.1,4.1,0,0,0-2,.42,3.576,3.576,0,0,0-1.14,1c-.27.36-.47.65-.62.88h-.17V0h-2V17.45Zm-8.31-.14a4.992,4.992,0,0,0,1.79-1.16,4.327,4.327,0,0,0,1-1.73l-1.94-.55a3.063,3.063,0,0,1-.73,1.14,3.011,3.011,0,0,1-1.11.68,4.351,4.351,0,0,1-1.44.23,4.107,4.107,0,0,1-2.13-.54,3.517,3.517,0,0,1-1.44-1.56,5.573,5.573,0,0,1-.52-2.51V10.15a4.521,4.521,0,0,1,.47-2,3.914,3.914,0,0,1,1.37-1.58,3.6,3.6,0,0,1,2.08-.59,3.48,3.48,0,0,1,1.9.5,3.358,3.358,0,0,1,1.24,1.39,4.367,4.367,0,0,1,.44,2h-8v1.7h10.1v-.86a8.608,8.608,0,0,0-.49-3.08,5.348,5.348,0,0,0-1.3-2,5.152,5.152,0,0,0-1.87-1.06,6.107,6.107,0,0,0-2-.34,5.612,5.612,0,0,0-3.1.86A5.8,5.8,0,0,0,76.75,7.5a8.125,8.125,0,0,0-.74,3.55,8,8,0,0,0,.72,3.52,5.507,5.507,0,0,0,2.1,2.35,6.125,6.125,0,0,0,3.26.84,6.7,6.7,0,0,0,2.4-.41m-23.8.14L64.58,3.57h.13l3.87,13.88h2.18L75.48,0H73.33L69.69,14.21h-.17L65.8,0H63.41L59.7,14.21h-.12L55.88,0H53.73L58.5,17.45ZM34.58,4.36l4.16,6.54-4.16,6.55H36.9l3.13-5.08,3.14,5.08h2.32L41.26,10.9l4.23-6.54H43.13L39.99,9.71,36.86,4.36ZM24,15.42a1.8,1.8,0,0,1-.78-1.58,1.75,1.75,0,0,1,.41-1.22,2.552,2.552,0,0,1,1.09-.67,8.138,8.138,0,0,1,1.47-.33l.84-.11,1.09-.15a9.445,9.445,0,0,0,1-.21,1.238,1.238,0,0,0,.55-.28v1.84a3.108,3.108,0,0,1-.42,1.56,3.218,3.218,0,0,1-1.24,1.21,4.047,4.047,0,0,1-2,.47,3.468,3.468,0,0,1-2-.53m3.61,2a4.054,4.054,0,0,0,1.26-.85,3.736,3.736,0,0,0,.68-.91h.1v1.77h2V8.82a5.147,5.147,0,0,0-.51-2.48,3.542,3.542,0,0,0-1.27-1.39,4.626,4.626,0,0,0-1.59-.61,8.32,8.32,0,0,0-1.46-.15,7.762,7.762,0,0,0-2,.27,5.266,5.266,0,0,0-1.88.93,4.634,4.634,0,0,0-1.37,1.87l1.91.68a3.746,3.746,0,0,1,1.15-1.37,3.633,3.633,0,0,1,2.26-.63,2.778,2.778,0,0,1,2.08.7,2.72,2.72,0,0,1,.68,2v.07a.711.711,0,0,1-.34.68,3.145,3.145,0,0,1-1.09.28l-1.94.23c-.61.08-1.21.19-1.81.32a5.993,5.993,0,0,0-1.64.6,3.187,3.187,0,0,0-1.19,1.11,3.378,3.378,0,0,0-.44,1.82,3.83,3.83,0,0,0,.6,2.18,3.716,3.716,0,0,0,1.61,1.37,5.139,5.139,0,0,0,2.25.48,5,5,0,0,0,1.91-.36m-26.86,0h2V4.19h.17L8.36,17.45h1.91L15.72,4.19h.17V17.45h2V0H15.35L9.41,14.48h-.2L3.28,0H.75Z"/>
      <path id="Pfad_95352" data-name="Pfad 95352" d="M102.58,125.98v-7.6l-.16-.09-1.76.51v.39l1,.12v2.39a2.1,2.1,0,0,0-.7-.57,2,2,0,0,0-.77-.16,2.242,2.242,0,0,0-1,.21,2.437,2.437,0,0,0-.75.6,2.736,2.736,0,0,0-.51.92,3.871,3.871,0,0,0,0,2.3,2.676,2.676,0,0,0,.46.89,2.23,2.23,0,0,0,.73.57,2.062,2.062,0,0,0,.94.2,1.94,1.94,0,0,0,.91-.2,2.007,2.007,0,0,0,.66-.61l.08.76,1.76-.12v-.4Zm-1-.56a2.16,2.16,0,0,1-.61.49,1.451,1.451,0,0,1-.66.15,1.41,1.41,0,0,1-.62-.13,1.247,1.247,0,0,1-.49-.4,1.774,1.774,0,0,1-.32-.68,3.482,3.482,0,0,1-.12-1,3.628,3.628,0,0,1,.12-1,2.005,2.005,0,0,1,.34-.69,1.341,1.341,0,0,1,.49-.41,1.386,1.386,0,0,1,.6-.14,1.565,1.565,0,0,1,.58.13,2.666,2.666,0,0,1,.69.46Zm-5.58.55v-2.91a2.763,2.763,0,0,0-.36-1.6,1.241,1.241,0,0,0-1.08-.48,2.288,2.288,0,0,0-1.08.28,3.742,3.742,0,0,0-1,.74l-.09-.91-.17-.11-1.56.69v.39l.89.1v3.78l-.83.16v.4h2.66v-.4l-.8-.13v-3.4a3.254,3.254,0,0,1,.79-.54,1.884,1.884,0,0,1,.76-.17.812.812,0,0,1,.71.3,2,2,0,0,1,.21,1.07v2.79l-.83.16v.4h2.61v-.4Zm-6.05-.17-.06.07a.826.826,0,0,1-.18.13.442.442,0,0,1-.23.06c-.25,0-.38-.22-.38-.66v-2.41a2.22,2.22,0,0,0-.42-1.53,1.762,1.762,0,0,0-1.32-.45,2.549,2.549,0,0,0-1.45.39,1.661,1.661,0,0,0-.74,1,.5.5,0,0,0,.15.35.523.523,0,0,0,.38.13q.45,0,.6-.54l.28-.77h.57a1.629,1.629,0,0,1,.43,0,.641.641,0,0,1,.32.21,1.089,1.089,0,0,1,.19.42,3.14,3.14,0,0,1,.06.67v.3l-.67.19-.59.18a6.084,6.084,0,0,0-.94.42,2.48,2.48,0,0,0-.57.41,1.217,1.217,0,0,0-.28.43,1.522,1.522,0,0,0,.04,1.08,1.222,1.222,0,0,0,.33.44,1.327,1.327,0,0,0,.48.27,1.84,1.84,0,0,0,.58.09,2.116,2.116,0,0,0,.45,0,2.214,2.214,0,0,0,.39-.17,2.482,2.482,0,0,0,.38-.28l.42-.4a1.067,1.067,0,0,0,.35.62,1.133,1.133,0,0,0,.74.23.931.931,0,0,0,.91-.6Zm-1.8-.45-.41.29a2.918,2.918,0,0,1-.3.19,1.052,1.052,0,0,1-.26.1,1.13,1.13,0,0,1-.26,0,.933.933,0,0,1-.68-.26,1.351,1.351,0,0,1-.16-.23.9.9,0,0,1-.06-.36.816.816,0,0,1,0-.27.794.794,0,0,1,.14-.3,2.023,2.023,0,0,1,.33-.29,2.466,2.466,0,0,1,.59-.3l.46-.16.57-.17Zm-4.82.62v-5.95l.05-1.6-.16-.09-1.76.51v.39l.93.12v6.62l-.89.16v.4h2.77v-.4Zm-4.49-2.68a2.488,2.488,0,0,1-.81-.41.671.671,0,0,1-.23-.53.741.741,0,0,1,.26-.6,1.192,1.192,0,0,1,.78-.22,1.792,1.792,0,0,1,.79.19l.17.9h.59v-1.15a3.49,3.49,0,0,0-.74-.34,2.716,2.716,0,0,0-.83-.12,2.365,2.365,0,0,0-.82.14,2.006,2.006,0,0,0-.62.36,1.581,1.581,0,0,0-.39.51,1.332,1.332,0,0,0-.14.62,1.233,1.233,0,0,0,.37.91,2.806,2.806,0,0,0,1,.59l.52.19a2.642,2.642,0,0,1,.8.42.681.681,0,0,1,.26.57.753.753,0,0,1-.31.63,1.579,1.579,0,0,1-1,.24,2.173,2.173,0,0,1-.91-.18l-.21-1h-.62v1.22a4.2,4.2,0,0,0,.82.34,3.354,3.354,0,0,0,.87.1,3.024,3.024,0,0,0,1-.13,2.147,2.147,0,0,0,.69-.36,1.463,1.463,0,0,0,.41-.52,1.479,1.479,0,0,0-.21-1.55,2.869,2.869,0,0,0-1.2-.72Zm-3.83,2.67v-4.72l-.11-.12-1.63.16v.39l.8.17v3.33a2.322,2.322,0,0,1-1.57.73.769.769,0,0,1-.68-.29,1.835,1.835,0,0,1-.24-1.04v-3.31l-.11-.12-1.65.16v.39l.8.17v2.84a4.125,4.125,0,0,0,.1.94,1.525,1.525,0,0,0,.29.63,1.053,1.053,0,0,0,.46.35,1.768,1.768,0,0,0,.62.1,2.376,2.376,0,0,0,1-.24,3.1,3.1,0,0,0,1-.81l.12,1,1.56-.12v-.4Zm-6.25,0-2.41-7h-.67l-2.41,6.92-.95.14v.55H64.9v-.46l-1.09-.14.63-1.85h2.59l.63,1.86-1.1.13v.46h3.02v-.46Zm-4.18-2.39,1.13-3.25,1.1,3.25Zm-6.32,2.42V123a2.4,2.4,0,0,0-.38-1.51,1.281,1.281,0,0,0-1.06-.46,2.455,2.455,0,0,0-1.08.26,2.882,2.882,0,0,0-1,.8,1.331,1.331,0,0,0-.46-.81,1.378,1.378,0,0,0-.87-.25,2.127,2.127,0,0,0-1.05.28,3.491,3.491,0,0,0-.93.74l-.09-.91-.16-.11-1.57.69v.39l.89.1v3.78l-.83.16v.4h2.61v-.4l-.7-.18v-3.4a4.247,4.247,0,0,1,.77-.54,1.679,1.679,0,0,1,.74-.17.81.81,0,0,1,.7.3,1.9,1.9,0,0,1,.22,1.07v2.8l-.84.16v.4h2.61v-.4l-.78-.16V122.6a3.341,3.341,0,0,1,.79-.56,1.807,1.807,0,0,1,.73-.17.859.859,0,0,1,.71.29,1.788,1.788,0,0,1,.22,1.06v2.81l-.83.16v.4h2.61v-.4Zm-10.27,0v-4.85l-.17-.11-1.73.69v.39l.89.1v3.78l-.84.16v.4h2.61v-.4Zm0-6.37a.659.659,0,0,0,.22-.52.67.67,0,0,0-.22-.53.763.763,0,0,0-.54-.19.791.791,0,0,0-.54.19.735.735,0,0,0,.54,1.26.734.734,0,0,0,.54-.21m-5.7,4.21a.524.524,0,0,1,.06-.28,3.4,3.4,0,0,0,0-.35,2.593,2.593,0,0,0-.16-.91,2.055,2.055,0,0,0-.45-.69,1.862,1.862,0,0,0-.67-.42,2.235,2.235,0,0,0-.82-.15,2.478,2.478,0,0,0-1,.21,2.713,2.713,0,0,0-.82.6,2.823,2.823,0,0,0-.56.92,3.379,3.379,0,0,0-.2,1.17,3.491,3.491,0,0,0,.18,1.16,2.756,2.756,0,0,0,.5.89,2.21,2.21,0,0,0,.79.55,2.634,2.634,0,0,0,1,.19,2.37,2.37,0,0,0,1.32-.35,2.442,2.442,0,0,0,.84-1l-.27-.22a3.066,3.066,0,0,1-.67.59,1.667,1.667,0,0,1-.9.22,1.629,1.629,0,0,1-1.3-.56,2.464,2.464,0,0,1-.52-1.61Zm-3.58-.48a2.732,2.732,0,0,1,.2-.83,1.924,1.924,0,0,1,.36-.56,1.282,1.282,0,0,1,.46-.32,1.465,1.465,0,0,1,.49-.09,1.121,1.121,0,0,1,.48.1,1.452,1.452,0,0,1,.38.27,1.266,1.266,0,0,1,.36.84.64.64,0,0,1-.14.42.68.68,0,0,1-.54.17Zm-2,2.42a1.27,1.27,0,0,1-.75.31.559.559,0,0,1-.46-.19,1,1,0,0,1-.16-.64v-3.42h1.53v-.6H35.45l.06-1.55h-.69l-.24,1.51-1,.12v.5h.93v3.55a1.26,1.26,0,0,0,.35,1,1.36,1.36,0,0,0,.94.31,1.925,1.925,0,0,0,.77-.16,1.492,1.492,0,0,0,.55-.44Zm-4.63.21v-4.72l-.11-.12-1.63.16v.39l.8.17v3.33a2.322,2.322,0,0,1-1.57.73.769.769,0,0,1-.68-.29,1.837,1.837,0,0,1-.22-1.06v-3.31l-.11-.12-1.65.16v.39l.8.17v2.84a3.631,3.631,0,0,0,.1.94,1.525,1.525,0,0,0,.29.63,1.053,1.053,0,0,0,.46.35,1.768,1.768,0,0,0,.62.1,2.376,2.376,0,0,0,1-.24,3.1,3.1,0,0,0,1-.81l.12,1,1.56-.12v-.4Zm-5.83-.21a1.3,1.3,0,0,1-.75.31.559.559,0,0,1-.46-.19,1,1,0,0,1-.16-.64v-3.42h1.53v-.6H24.99l.06-1.55h-.69l-.28,1.53-1,.12v.5h.93v3.55a1.249,1.249,0,0,0,.34,1,1.4,1.4,0,0,0,.94.31,1.891,1.891,0,0,0,.77-.16,1.452,1.452,0,0,0,.56-.44Zm-4.6.22v-4.85l-.17-.11-1.73.69v.39l.89.1v3.78l-.84.16v.4h2.61v-.4Zm0-6.37a.659.659,0,0,0,.22-.52.67.67,0,0,0-.22-.53.763.763,0,0,0-.54-.19.791.791,0,0,0-.54.19.735.735,0,0,0,.54,1.26.734.734,0,0,0,.54-.21m-2.67,6.15a1.3,1.3,0,0,1-.76.31.552.552,0,0,1-.45-.19,1,1,0,0,1-.17-.64v-3.42h1.53v-.6h-1.5v-1.55h-.68l-.29,1.53-1,.12v.5h.94v3.55a1.249,1.249,0,0,0,.34,1,1.382,1.382,0,0,0,.94.31,1.925,1.925,0,0,0,.77-.16,1.525,1.525,0,0,0,.56-.44Zm-5.81-2.46a2.488,2.488,0,0,1-.81-.41.649.649,0,0,1-.24-.53.721.721,0,0,1,.27-.6,1.192,1.192,0,0,1,.78-.22,1.792,1.792,0,0,1,.79.19l.17.9h.58l.05-1.15a3.568,3.568,0,0,0-.75-.34,2.656,2.656,0,0,0-.83-.12,2.283,2.283,0,0,0-.81.14,1.874,1.874,0,0,0-.62.36,1.77,1.77,0,0,0-.4.51,1.478,1.478,0,0,0-.14.62,1.269,1.269,0,0,0,.37.91,2.806,2.806,0,0,0,1,.59l.52.19a2.752,2.752,0,0,1,.81.42.7.7,0,0,1,.26.57.753.753,0,0,1-.31.63,1.579,1.579,0,0,1-1,.24,2.142,2.142,0,0,1-.91-.18l-.22-1h-.61v1.22a4.053,4.053,0,0,0,.82.34,3.27,3.27,0,0,0,.87.1,3.054,3.054,0,0,0,.95-.13,2.089,2.089,0,0,0,.68-.36,1.344,1.344,0,0,0,.41-.52,1.439,1.439,0,0,0-.2-1.55,2.869,2.869,0,0,0-1.2-.72Zm-3.8,2.68v-2.91a2.763,2.763,0,0,0-.36-1.6A1.249,1.249,0,0,0,7.93,121a2.288,2.288,0,0,0-1.08.28,3.743,3.743,0,0,0-1,.74l-.09-.91L5.59,121l-1.56.69v.39l.89.1v3.78l-.83.16v.4H6.86v-.4l-.79-.16v-3.39a3.254,3.254,0,0,1,.79-.54,1.813,1.813,0,0,1,.76-.17.821.821,0,0,1,.71.3,2,2,0,0,1,.21,1.07v2.79l-.83.16v.4h2.57v-.4Zm-6.3-6.5v-.46H0v.46l1,.12V126l-1,.12v.45H3.19v-.46l-1-.12v-6.36Z"/>
      <path id="Pfad_95353" data-name="Pfad 95353" d="M126.25,108.81a.524.524,0,0,1,.06-.28,3.4,3.4,0,0,0,0-.35,2.593,2.593,0,0,0-.16-.91,2.055,2.055,0,0,0-.45-.69,1.862,1.862,0,0,0-.67-.42,2.235,2.235,0,0,0-.82-.15,2.478,2.478,0,0,0-1,.21,2.712,2.712,0,0,0-.82.6,2.823,2.823,0,0,0-.56.92,3.379,3.379,0,0,0-.2,1.17,3.491,3.491,0,0,0,.18,1.16,2.756,2.756,0,0,0,.5.89,2.21,2.21,0,0,0,.79.55,2.634,2.634,0,0,0,1,.19,2.369,2.369,0,0,0,1.32-.35,2.442,2.442,0,0,0,.84-1l-.27-.22a3.066,3.066,0,0,1-.67.59,1.667,1.667,0,0,1-.9.22,1.629,1.629,0,0,1-1.3-.56,2.464,2.464,0,0,1-.52-1.61Zm-3.58-.48a2.732,2.732,0,0,1,.2-.83,1.923,1.923,0,0,1,.36-.56,1.282,1.282,0,0,1,.46-.32,1.465,1.465,0,0,1,.49-.09,1.121,1.121,0,0,1,.48.1,1.452,1.452,0,0,1,.38.27,1.266,1.266,0,0,1,.36.84.64.64,0,0,1-.14.42.68.68,0,0,1-.54.17Zm-2.81,2.64v-2.91a2.763,2.763,0,0,0-.36-1.6,1.241,1.241,0,0,0-1.08-.48,2.335,2.335,0,0,0-1.09.29,3.249,3.249,0,0,0-1,.76v-3.6l-.15-.09-1.72.51v.39l.92.12v6.62l-.85.16v.4h2.61v-.4l-.77-.16v-3.41a4.077,4.077,0,0,1,.82-.57,1.908,1.908,0,0,1,.78-.17.812.812,0,0,1,.71.3,2,2,0,0,1,.21,1.07v2.79l-.83.16v.4h2.61v-.4Zm-6.24-.86a1.888,1.888,0,0,1-.67.65,1.772,1.772,0,0,1-.89.22,1.689,1.689,0,0,1-1.3-.56,2.449,2.449,0,0,1-.5-1.65,2.6,2.6,0,0,1,.47-1.67,1.621,1.621,0,0,1,1.49-.55,1.213,1.213,0,0,1,.32.07l.2.74a.879.879,0,0,0,.19.39.54.54,0,0,0,.42.15.46.46,0,0,0,.508-.406l0-.024a1.534,1.534,0,0,0-.22-.58,1.863,1.863,0,0,0-.43-.46,2.339,2.339,0,0,0-.61-.31,2.474,2.474,0,0,0-.73-.11,2.523,2.523,0,0,0-1,.2,2.463,2.463,0,0,0-.83.57,2.534,2.534,0,0,0-.58.9,3.284,3.284,0,0,0-.22,1.2,3.491,3.491,0,0,0,.18,1.16,2.493,2.493,0,0,0,.51.9,2.142,2.142,0,0,0,.79.57,2.717,2.717,0,0,0,1,.19,2.313,2.313,0,0,0,1.35-.37,2.059,2.059,0,0,0,.76-1.08Zm-6.11.86v-4.85l-.17-.11-1.73.69v.39l.89.1v3.78l-.85.16v.4h2.61v-.4Zm0-6.37a.741.741,0,0,0,0-1,.861.861,0,0,0-1.08,0,.761.761,0,0,0,0,1.05.8.8,0,0,0,1.08,0m-3.54,6.37v-7.5l-.16-.09-1.75.51v.39l.92.12v6.62l-.89.16v.4h2.77v-.4Zm-2.58-.22a3,3,0,0,1-.38.23.648.648,0,0,1-.35.08.622.622,0,0,1-.48-.19,1,1,0,0,1-.17-.64v-3.42h1.57v-.6h-1.51l.06-1.55h-.69l-.28,1.55H96.71a5.007,5.007,0,0,1,.09-1.31,2.433,2.433,0,0,1,.29-.8,1.42,1.42,0,0,1,.38-.45l.28.22a2.016,2.016,0,0,0,.41.26,1,1,0,0,0,.41.09.782.782,0,0,0,.48-.14.532.532,0,0,0,.2-.38.689.689,0,0,0-.39-.46,1.679,1.679,0,0,0-.7-.13,2.6,2.6,0,0,0-.8.14,2,2,0,0,0-.78.54,2.259,2.259,0,0,0-.31.43,2.387,2.387,0,0,0-.23.51,5.146,5.146,0,0,0-.15.65c0,.24-.07.51-.1.81l-.94.12v.5h.92v4.16l-.89.16v.4h2.89v-.4l-1-.17v-4.15h2.36v3.55a1.288,1.288,0,0,0,.34,1,1.467,1.467,0,0,0,1,.31,1.738,1.738,0,0,0,.72-.16,1.407,1.407,0,0,0,.55-.44Zm-7.37,0v.07l-.18.13a.478.478,0,0,1-.24.06c-.25,0-.37-.22-.37-.66v-2.41a2.169,2.169,0,0,0-.43-1.53,1.721,1.721,0,0,0-1.31-.45,2.575,2.575,0,0,0-1.46.39,1.7,1.7,0,0,0-.74,1,.548.548,0,0,0,.16.35.49.49,0,0,0,.37.13c.3,0,.5-.18.61-.54l.22-.79h.58a1.622,1.622,0,0,1,.47.06.678.678,0,0,1,.33.21,1.1,1.1,0,0,1,.18.42,3.14,3.14,0,0,1,.06.67v.3l-.67.19-.59.18a6.588,6.588,0,0,0-.94.42,2.189,2.189,0,0,0-.56.41,1.271,1.271,0,0,0-.29.43,1.692,1.692,0,0,0,0,1.08,1.222,1.222,0,0,0,.33.44,1.433,1.433,0,0,0,.48.27,1.9,1.9,0,0,0,.58.09,1.531,1.531,0,0,0,.85-.22,4,4,0,0,0,.38-.28l.42-.4a1.062,1.062,0,0,0,.34.62,1.143,1.143,0,0,0,.75.23,1,1,0,0,0,.49-.12,1.129,1.129,0,0,0,.42-.48Zm-1.8-.45c-.15.12-.29.21-.4.29a2.89,2.89,0,0,1-.31.19.873.873,0,0,1-.25.1,1.13,1.13,0,0,1-.26,0,.94.94,0,0,1-.69-.26.92.92,0,0,1-.15-.23.9.9,0,0,1-.06-.36,1.219,1.219,0,0,1,0-.27.709.709,0,0,1,.15-.3,1.427,1.427,0,0,1,.33-.29,2.147,2.147,0,0,1,.59-.3l.45-.16.57-.17Zm-4.89.62v-2.91a2.763,2.763,0,0,0-.36-1.6,1.249,1.249,0,0,0-1.08-.48,2.335,2.335,0,0,0-1.09.29,3.249,3.249,0,0,0-1,.76v-3.6l-.15-.09-1.73.51v.39l.93.12v6.62l-.84.16v.4h2.61v-.4l-.78-.16v-3.41a4.077,4.077,0,0,1,.82-.57,1.908,1.908,0,0,1,.78-.17.812.812,0,0,1,.71.3,2,2,0,0,1,.21,1.07v2.79l-.83.16v.4h2.61v-.4Zm-6.24-.86a1.888,1.888,0,0,1-.67.65,1.772,1.772,0,0,1-.89.22,1.689,1.689,0,0,1-1.3-.56,2.449,2.449,0,0,1-.5-1.65,2.6,2.6,0,0,1,.47-1.67,1.621,1.621,0,0,1,1.49-.55,1.254,1.254,0,0,1,.32.07l.2.74a.879.879,0,0,0,.19.39.54.54,0,0,0,.42.15.46.46,0,0,0,.508-.406l0-.024a1.534,1.534,0,0,0-.22-.58,1.735,1.735,0,0,0-.44-.46,2.125,2.125,0,0,0-.6-.31,2.571,2.571,0,0,0-3.11,1.56,3.1,3.1,0,0,0-.22,1.2,3.491,3.491,0,0,0,.18,1.16,2.478,2.478,0,0,0,.5.9,2.163,2.163,0,0,0,.8.57,2.676,2.676,0,0,0,1,.19,2.313,2.313,0,0,0,1.35-.37,2.059,2.059,0,0,0,.76-1.08Zm-7.32-1.82a2.488,2.488,0,0,1-.81-.41.639.639,0,0,1-.23-.53.711.711,0,0,1,.26-.6,1.192,1.192,0,0,1,.78-.22,1.792,1.792,0,0,1,.79.19l.17.9h.58v-1.15a3.753,3.753,0,0,0-.74-.34,2.716,2.716,0,0,0-.83-.12,2.315,2.315,0,0,0-.82.14,1.874,1.874,0,0,0-.62.36,1.581,1.581,0,0,0-.39.51,1.332,1.332,0,0,0-.14.62,1.233,1.233,0,0,0,.37.91,2.629,2.629,0,0,0,1,.59l.51.19a2.752,2.752,0,0,1,.81.42.7.7,0,0,1,.26.57.753.753,0,0,1-.31.63,1.58,1.58,0,0,1-1,.24,2.173,2.173,0,0,1-.91-.18l-.21-1h-.51v1.22a4.2,4.2,0,0,0,.82.34,3.354,3.354,0,0,0,.87.1,3.024,3.024,0,0,0,1-.13,2.252,2.252,0,0,0,.69-.36,1.463,1.463,0,0,0,.41-.52,1.479,1.479,0,0,0-.21-1.55,2.869,2.869,0,0,0-1.2-.72Zm-3.8,2.68v-2.91a2.763,2.763,0,0,0-.36-1.6,1.241,1.241,0,0,0-1.08-.48,2.288,2.288,0,0,0-1.08.28,3.771,3.771,0,0,0-.95.74l-.09-.91-.17-.11-1.56.69v.39l.89.1v3.78l-.83.16v.4h2.61v-.4l-.77-.13v-3.4a3.254,3.254,0,0,1,.79-.54,1.813,1.813,0,0,1,.76-.17.812.812,0,0,1,.71.3,2,2,0,0,1,.21,1.07v2.79l-.83.16v.4h2.61v-.4Zm-6.39-2.16a1.869,1.869,0,0,0,0-.28,1.861,1.861,0,0,0,0-.35,2.38,2.38,0,0,0-.17-.91,1.9,1.9,0,0,0-.44-.69,1.862,1.862,0,0,0-.67-.42,2.284,2.284,0,0,0-.83-.15,2.461,2.461,0,0,0-1,.21,2.712,2.712,0,0,0-.82.6,2.68,2.68,0,0,0-.56.92,3.157,3.157,0,0,0-.2,1.17,3.491,3.491,0,0,0,.18,1.16,2.553,2.553,0,0,0,.5.89,2.21,2.21,0,0,0,.79.55,2.634,2.634,0,0,0,1,.19,2.378,2.378,0,0,0,1.33-.35,2.35,2.35,0,0,0,.83-1l-.27-.22a2.792,2.792,0,0,1-.66.59,1.667,1.667,0,0,1-.9.22,1.629,1.629,0,0,1-1.3-.56,2.41,2.41,0,0,1-.52-1.61ZM60,108.33a2.731,2.731,0,0,1,.2-.83,1.923,1.923,0,0,1,.36-.56,1.282,1.282,0,0,1,.46-.32,1.465,1.465,0,0,1,.49-.09,1.121,1.121,0,0,1,.48.1,1.452,1.452,0,0,1,.38.27,1.344,1.344,0,0,1,.26.39,1.181,1.181,0,0,1,.09.45.635.635,0,0,1-.13.42.68.68,0,0,1-.54.17Zm-4,0a2.547,2.547,0,0,1-.82-.41.671.671,0,0,1-.23-.53.741.741,0,0,1,.26-.6,1.2,1.2,0,0,1,.79-.22,1.777,1.777,0,0,1,.78.19l.17.9h.63v-1.15a3.49,3.49,0,0,0-.74-.34,2.716,2.716,0,0,0-.83-.12,2.365,2.365,0,0,0-.82.14,2.006,2.006,0,0,0-.62.36,1.581,1.581,0,0,0-.39.51,1.478,1.478,0,0,0-.14.62,1.233,1.233,0,0,0,.37.91,2.806,2.806,0,0,0,1,.59l.52.19a2.524,2.524,0,0,1,.8.42.679.679,0,0,1,.27.57.761.761,0,0,1-.32.63,1.579,1.579,0,0,1-1,.24,2.2,2.2,0,0,1-.91-.18l-.21-1h-.58v1.22a4.2,4.2,0,0,0,.82.34,3.355,3.355,0,0,0,.87.1,3.024,3.024,0,0,0,1-.13,2.008,2.008,0,0,0,.69-.36,1.463,1.463,0,0,0,.41-.52,1.479,1.479,0,0,0-.21-1.55,2.869,2.869,0,0,0-1.2-.72Zm-5,0a2.663,2.663,0,0,1-.82-.41.671.671,0,0,1-.23-.53.721.721,0,0,1,.27-.6,1.147,1.147,0,0,1,.78-.22,1.823,1.823,0,0,1,.79.19l.17.9h.62v-1.15a3.568,3.568,0,0,0-.75-.34,2.656,2.656,0,0,0-.83-.12,2.283,2.283,0,0,0-.81.14,1.874,1.874,0,0,0-.62.36,1.769,1.769,0,0,0-.4.51,1.478,1.478,0,0,0-.14.62,1.269,1.269,0,0,0,.37.91,2.806,2.806,0,0,0,1,.59l.52.19a2.752,2.752,0,0,1,.81.42.7.7,0,0,1,.26.57.761.761,0,0,1-.32.63,1.541,1.541,0,0,1-1,.24,2.142,2.142,0,0,1-.91-.18l-.22-1h-.62v1.22a4.11,4.11,0,0,0,.81.34,3.392,3.392,0,0,0,.88.1,3.078,3.078,0,0,0,1-.13,2.089,2.089,0,0,0,.68-.36,1.344,1.344,0,0,0,.41-.52,1.433,1.433,0,0,0,.14-.61,1.493,1.493,0,0,0-.34-.94,2.869,2.869,0,0,0-1.2-.72Zm-3.8,2.68v-4.85l-.17-.11-1.73.69v.39l.89.1v3.78l-.85.16v.4h2.61v-.4Zm0-6.37a.761.761,0,0,0,0-1.05.861.861,0,0,0-1.08,0,.761.761,0,0,0,0,1.05.8.8,0,0,0,1.08,0m-2.49,1.61H42.67v.46l.85.14-1.07,3.42-1.28-3.42.84-.14v-.46H39.52v.46l.84.13-1.26,3.45-1.17-3.45.87-.13v-.46H36.24v.46l.64.11,1.81,4.87h.42l1.47-3.96,1.51,3.92h.41l1.66-4.84.61-.14Zm-10.94,2.08a2.663,2.663,0,0,1-.82-.41.671.671,0,0,1-.23-.53.721.721,0,0,1,.27-.6,1.147,1.147,0,0,1,.78-.22,1.823,1.823,0,0,1,.79.19l.16.9h.59v-1.15a3.262,3.262,0,0,0-.74-.34,2.686,2.686,0,0,0-.83-.12,2.388,2.388,0,0,0-.82.14,1.82,1.82,0,0,0-.61.36,1.769,1.769,0,0,0-.4.51,1.478,1.478,0,0,0-.14.62,1.233,1.233,0,0,0,.37.91,2.806,2.806,0,0,0,1,.59l.52.19a2.524,2.524,0,0,1,.8.42.679.679,0,0,1,.27.57.761.761,0,0,1-.32.63,1.561,1.561,0,0,1-1,.24,2.142,2.142,0,0,1-.91-.18l-.22-1h-.62v1.22a3.871,3.871,0,0,0,.92.3,3.354,3.354,0,0,0,.87.1,3.133,3.133,0,0,0,1-.13,2.089,2.089,0,0,0,.68-.36,1.344,1.344,0,0,0,.41-.52,1.419,1.419,0,0,0-.21-1.55,2.752,2.752,0,0,0-1.19-.72Zm-3.28.52a1.065,1.065,0,0,0,.09-.28,1.86,1.86,0,0,0,0-.35,2.378,2.378,0,0,0-.16-.91,2.217,2.217,0,0,0-.44-.69,1.862,1.862,0,0,0-.67-.42,2.305,2.305,0,0,0-.83-.15,2.428,2.428,0,0,0-1,.21,2.751,2.751,0,0,0-.83.6,3,3,0,0,0-.56.92,3.379,3.379,0,0,0-.2,1.17,3.491,3.491,0,0,0,.18,1.16,2.585,2.585,0,0,0,.51.89,2.21,2.21,0,0,0,.79.55,2.592,2.592,0,0,0,1,.19,2.213,2.213,0,0,0,2.16-1.35l-.27-.22a2.792,2.792,0,0,1-.66.59,1.863,1.863,0,0,1-2.21-.34,2.464,2.464,0,0,1-.52-1.61Zm-3.57-.48a2.754,2.754,0,0,1,.19-.83,2.443,2.443,0,0,1,.36-.56,1.306,1.306,0,0,1,.47-.32,1.4,1.4,0,0,1,.48-.09,1.059,1.059,0,0,1,.48.1,1.349,1.349,0,0,1,.39.27,1.293,1.293,0,0,1,.25.39,1,1,0,0,1,.1.45.64.64,0,0,1-.14.42.68.68,0,0,1-.54.17Zm-2,2.42a1.3,1.3,0,0,1-.76.31.552.552,0,0,1-.45-.19,1,1,0,0,1-.16-.64v-3.42h1.53v-.6h-1.5l.05-1.55h-.68l-.28,1.53-1,.12v.5h.93v3.55a1.249,1.249,0,0,0,.34,1,1.382,1.382,0,0,0,.94.31,1.925,1.925,0,0,0,.77-.16,1.452,1.452,0,0,0,.56-.44Zm-5.81-2.46a2.488,2.488,0,0,1-.81-.41.639.639,0,0,1-.23-.53.711.711,0,0,1,.26-.6,1.192,1.192,0,0,1,.78-.22,1.792,1.792,0,0,1,.79.19l.17.9h.58l.05-1.15a3.752,3.752,0,0,0-.74-.34,2.745,2.745,0,0,0-.84-.12,2.283,2.283,0,0,0-.81.14,1.874,1.874,0,0,0-.62.36,1.581,1.581,0,0,0-.39.51,1.332,1.332,0,0,0-.14.62,1.229,1.229,0,0,0,.42.89,2.629,2.629,0,0,0,1,.59l.51.19a2.752,2.752,0,0,1,.81.42.7.7,0,0,1,.26.57.753.753,0,0,1-.31.63,1.579,1.579,0,0,1-1,.24,2.173,2.173,0,0,1-.91-.18l-.21-1h-.62v1.22a4.2,4.2,0,0,0,.82.34,3.354,3.354,0,0,0,.87.1,3,3,0,0,0,.95-.13,2.251,2.251,0,0,0,.69-.36,1.463,1.463,0,0,0,.41-.52,1.479,1.479,0,0,0-.21-1.55,2.869,2.869,0,0,0-1.2-.72Zm-3.8,2.68v-4.85l-.17-.11-1.73.69v.39l.89.1v3.78l-.84.16v.4h2.61v-.4Zm0-6.37a.659.659,0,0,0,.22-.52.67.67,0,0,0-.22-.53.763.763,0,0,0-.54-.19.791.791,0,0,0-.54.19.735.735,0,0,0,.54,1.26.734.734,0,0,0,.54-.21m-3,4.21a1.029,1.029,0,0,0,.06-.28,1.86,1.86,0,0,0,0-.35,2.378,2.378,0,0,0-.16-.91,2.217,2.217,0,0,0-.44-.69,2,2,0,0,0-.67-.42,2.305,2.305,0,0,0-.83-.15,2.428,2.428,0,0,0-1,.21,2.751,2.751,0,0,0-.83.6,2.823,2.823,0,0,0-.56.92,3.379,3.379,0,0,0-.2,1.17,3.491,3.491,0,0,0,.18,1.16,2.585,2.585,0,0,0,.51.89,2.21,2.21,0,0,0,.79.55,2.592,2.592,0,0,0,1,.19,2.213,2.213,0,0,0,2.16-1.35l-.27-.22a2.792,2.792,0,0,1-.66.59,1.667,1.667,0,0,1-.9.22,1.651,1.651,0,0,1-1.31-.56,2.464,2.464,0,0,1-.52-1.61Zm-3.57-.48a2.754,2.754,0,0,1,.19-.83,1.923,1.923,0,0,1,.36-.56,1.376,1.376,0,0,1,.46-.32,1.49,1.49,0,0,1,.49-.09,1.059,1.059,0,0,1,.48.1,1.2,1.2,0,0,1,.38.27,1.165,1.165,0,0,1,.26.39,1,1,0,0,1,.1.45.64.64,0,0,1-.14.42.68.68,0,0,1-.54.17Zm-1.85-.36H4.05v.45l1.16.1v2.36a3.245,3.245,0,0,1-1.2.23,2.53,2.53,0,0,1-2-.87,3.688,3.688,0,0,1-.75-2.48,4.538,4.538,0,0,1,.21-1.44,3.112,3.112,0,0,1,.56-1,2.511,2.511,0,0,1,1.94-.88,3.51,3.51,0,0,1,.67.07,2.584,2.584,0,0,1,.62.23l.22,1.3h.7v-1.63a4.019,4.019,0,0,0-1-.41,5.087,5.087,0,0,0-1.23-.13,3.988,3.988,0,0,0-1.57.3,3.621,3.621,0,0,0-1.99,2.07,4.671,4.671,0,0,0,0,3.13,3.712,3.712,0,0,0,.69,1.16,3.538,3.538,0,0,0,1.2.83,4,4,0,0,0,1.54.29,4.5,4.5,0,0,0,1.3-.18,7.173,7.173,0,0,0,1.17-.48v-2.46l.68-.07Z"/>
      <path id="Pfad_95354" data-name="Pfad 95354" d="M46.42,93.81a.524.524,0,0,1,.06-.28,3.4,3.4,0,0,0,0-.35,2.416,2.416,0,0,0-.16-.91,1.929,1.929,0,0,0-.45-.68,1.879,1.879,0,0,0-.67-.43,2.235,2.235,0,0,0-.82-.15,2.319,2.319,0,0,0-1,.22,2.537,2.537,0,0,0-.82.59,2.823,2.823,0,0,0-.56.92,3.379,3.379,0,0,0-.2,1.17,3.491,3.491,0,0,0,.18,1.16,2.756,2.756,0,0,0,.5.89,2.086,2.086,0,0,0,.79.55,2.634,2.634,0,0,0,1,.19,2.343,2.343,0,0,0,1.32-.35,2.442,2.442,0,0,0,.84-1l-.27-.22a3.066,3.066,0,0,1-.67.59,1.667,1.667,0,0,1-.9.22,1.629,1.629,0,0,1-1.3-.56,2.464,2.464,0,0,1-.52-1.61Zm-3.58-.48a2.731,2.731,0,0,1,.2-.83,1.923,1.923,0,0,1,.36-.56,1.282,1.282,0,0,1,.46-.32,1.465,1.465,0,0,1,.49-.09,1.121,1.121,0,0,1,.48.1,1.322,1.322,0,0,1,.38.27,1.266,1.266,0,0,1,.36.84.64.64,0,0,1-.14.42.68.68,0,0,1-.54.17Zm-2.81,2.64V93.06a2.7,2.7,0,0,0-.36-1.59,1.22,1.22,0,0,0-1.09-.46,2.335,2.335,0,0,0-1.09.29,3.249,3.249,0,0,0-1,.76v-3.6l-.16-.09-1.72.51v.39l.92.12v6.58l-.85.16v.44h2.61v-.41l-.71-.19v-3.4a3.9,3.9,0,0,1,.83-.57,1.828,1.828,0,0,1,.77-.17.812.812,0,0,1,.71.3,2,2,0,0,1,.21,1.07v2.79l-.83.16v.42h2.61v-.41Zm-6.24-.86a1.888,1.888,0,0,1-.67.65,1.769,1.769,0,0,1-.88.22,1.66,1.66,0,0,1-1.3-.56,2.4,2.4,0,0,1-.5-1.65,2.623,2.623,0,0,1,.46-1.67,1.62,1.62,0,0,1,1.49-.53,1.254,1.254,0,0,1,.32.07l.2.74a.879.879,0,0,0,.19.39.54.54,0,0,0,.42.15.48.48,0,0,0,.52-.43,1.735,1.735,0,0,0-.23-.58,1.863,1.863,0,0,0-.43-.46,2.339,2.339,0,0,0-.61-.31,2.475,2.475,0,0,0-.73-.11,2.523,2.523,0,0,0-1,.2,2.462,2.462,0,0,0-.83.57,2.534,2.534,0,0,0-.58.9,3.3,3.3,0,0,0-.21,1.2,3.5,3.5,0,0,0,.16,1.14,2.493,2.493,0,0,0,.51.9,2.142,2.142,0,0,0,.79.57,2.732,2.732,0,0,0,1.05.19,2.28,2.28,0,0,0,1.34-.37,1.929,1.929,0,0,0,.76-1.08ZM26.48,93.3a2.613,2.613,0,0,1-.82-.42.659.659,0,0,1-.23-.53.749.749,0,0,1,.26-.6,1.2,1.2,0,0,1,.79-.18,1.777,1.777,0,0,1,.78.19l.17.9h.59V91.51a3.49,3.49,0,0,0-.74-.34,2.716,2.716,0,0,0-.83-.12,2.365,2.365,0,0,0-.82.14,2.006,2.006,0,0,0-.62.36,1.581,1.581,0,0,0-.39.51,1.36,1.36,0,0,0-.14.62,1.233,1.233,0,0,0,.37.91,2.806,2.806,0,0,0,1,.59l.52.19a2.914,2.914,0,0,1,.8.42.679.679,0,0,1,.27.57.761.761,0,0,1-.32.63,1.579,1.579,0,0,1-1,.24,2.2,2.2,0,0,1-.91-.18l-.21-1h-.62v1.23a4.125,4.125,0,0,0,.82.33,3.355,3.355,0,0,0,.87.1,3,3,0,0,0,.95-.13,2.147,2.147,0,0,0,.69-.36,1.463,1.463,0,0,0,.41-.52,1.479,1.479,0,0,0-.21-1.55,2.869,2.869,0,0,0-1.2-.72Zm-3,2.45a1.249,1.249,0,0,1-.75.31.581.581,0,0,1-.46-.19,1.092,1.092,0,0,1-.16-.64V91.81h1.53v-.6h-1.5l.06-1.55h-.69l-.28,1.53-1,.13v.49h.94v3.56a1.251,1.251,0,0,0,.35,1,1.382,1.382,0,0,0,.94.31,1.777,1.777,0,0,0,.77-.16,1.331,1.331,0,0,0,.55-.44Zm-4.63.21V91.24l-.11-.12-1.63.16v.4l.8.16v3.33a2.329,2.329,0,0,1-1.57.74.782.782,0,0,1-.68-.3,1.82,1.82,0,0,1-.22-1.04V92.81l.06-1.57-.12-.12-1.65.16v.4l.8.16v2.84a4.125,4.125,0,0,0,.1.94,1.525,1.525,0,0,0,.29.63,1.053,1.053,0,0,0,.46.35,1.768,1.768,0,0,0,.62.1,2.376,2.376,0,0,0,1-.24,3.1,3.1,0,0,0,1-.81l.12,1,1.52-.08v-.41Zm-6.12-2.15a.524.524,0,0,1,.06-.28,3.405,3.405,0,0,0,0-.35,2.426,2.426,0,0,0-.17-.91,1.779,1.779,0,0,0-.44-.68,1.879,1.879,0,0,0-.67-.43,2.284,2.284,0,0,0-.83-.15,2.319,2.319,0,0,0-1,.22,2.537,2.537,0,0,0-.82.59,2.68,2.68,0,0,0-.56.92,3.157,3.157,0,0,0-.2,1.17,3.491,3.491,0,0,0,.18,1.16,2.756,2.756,0,0,0,.5.89,2.086,2.086,0,0,0,.79.55,2.634,2.634,0,0,0,1,.19,2.369,2.369,0,0,0,1.32-.35,2.442,2.442,0,0,0,.84-1l-.15-.18a3.066,3.066,0,0,1-.67.59,1.667,1.667,0,0,1-.9.22,1.629,1.629,0,0,1-1.3-.56,2.41,2.41,0,0,1-.52-1.61Zm-3.58-.48a2.732,2.732,0,0,1,.2-.83,1.923,1.923,0,0,1,.36-.56,1.282,1.282,0,0,1,.46-.32,1.465,1.465,0,0,1,.49-.09,1.121,1.121,0,0,1,.48.1,1.452,1.452,0,0,1,.38.27,1.344,1.344,0,0,1,.26.39,1.181,1.181,0,0,1,.09.45.635.635,0,0,1-.13.42.68.68,0,0,1-.54.17ZM0,89.01v.46l1,.12v6.36l-1,.12v.5H3.11a4.611,4.611,0,0,0,1.47-.28,3.628,3.628,0,0,0,1.25-.72,3.469,3.469,0,0,0,.82-1.18,3.919,3.919,0,0,0,.31-1.61,4.5,4.5,0,0,0-.28-1.62,3.208,3.208,0,0,0-.76-1.17,3,3,0,0,0-1.15-.72,4,4,0,0,0-1.44-.25Zm2.14,7V89.54h1a2.573,2.573,0,0,1,1.06.21,2.154,2.154,0,0,1,.83.61,3.051,3.051,0,0,1,.52,1,4.6,4.6,0,0,1,.19,1.4,4.537,4.537,0,0,1-.16,1.41,2.765,2.765,0,0,1-.52,1,2.23,2.23,0,0,1-.81.62A2.656,2.656,0,0,1,3.18,96Z"/>
      <path id="Pfad_95355" data-name="Pfad 95355" d="M125.67,68.29a1.637,1.637,0,0,0,.55-.56,1.52,1.52,0,0,0-.24-1.85,1.54,1.54,0,0,0-2.62,1.08,1.508,1.508,0,0,0,.45,1.09,1.53,1.53,0,0,0,1.86.24m-13.68,0a1.666,1.666,0,0,0,.56-.56,1.549,1.549,0,0,0,.2-.77,1.53,1.53,0,0,0-3.06,0v0a1.531,1.531,0,0,0,2.3,1.33m-13.67,0a1.637,1.637,0,0,0,.55-.56,1.531,1.531,0,0,0-1.29-2.3,1.5,1.5,0,0,0-1.09.45,1.469,1.469,0,0,0-.45,1.08,1.536,1.536,0,0,0,1.532,1.54h.008a1.46,1.46,0,0,0,.77-.21m-13.68,0a1.666,1.666,0,0,0,.56-.56,1.46,1.46,0,0,0,.21-.77,1.54,1.54,0,0,0-3.07,0,1.508,1.508,0,0,0,.45,1.09,1.469,1.469,0,0,0,1.08.45,1.442,1.442,0,0,0,.77-.21M71,68.29a1.637,1.637,0,0,0,.55-.56,1.53,1.53,0,0,0-1.32-2.3,1.508,1.508,0,0,0-1.09.45,1.469,1.469,0,0,0-.45,1.08,1.539,1.539,0,0,0,1.54,1.54h0a1.46,1.46,0,0,0,.77-.21m-13.68,0a1.666,1.666,0,0,0,.56-.56,1.46,1.46,0,0,0,.21-.77,1.442,1.442,0,0,0-.51-1.08,1.53,1.53,0,0,0-2.61,1.08,1.508,1.508,0,0,0,.45,1.09,1.469,1.469,0,0,0,1.08.45,1.442,1.442,0,0,0,.77-.21m-13.69,0a1.637,1.637,0,0,0,.55-.56,1.53,1.53,0,0,0-1.32-2.3,1.508,1.508,0,0,0-1.09.45,1.469,1.469,0,0,0-.45,1.08,1.539,1.539,0,0,0,1.54,1.54h0a1.46,1.46,0,0,0,.77-.21m-13.68,0a1.666,1.666,0,0,0,.56-.56,1.46,1.46,0,0,0,.21-.77,1.439,1.439,0,0,0-.46-1.08,1.53,1.53,0,0,0-2.61,1.08,1.508,1.508,0,0,0,.45,1.09,1.469,1.469,0,0,0,1.08.45,1.442,1.442,0,0,0,.77-.21m-13.67,0a1.637,1.637,0,0,0,.55-.56,1.53,1.53,0,0,0-2.4-1.85,1.439,1.439,0,0,0-.46,1.08,1.55,1.55,0,0,0,1.54,1.54,1.46,1.46,0,0,0,.77-.21m-13.65,0a1.666,1.666,0,0,0,.56-.56,1.531,1.531,0,0,0-1.33-2.3,1.469,1.469,0,0,0-1.08.45,1.469,1.469,0,0,0-.45,1.08,1.508,1.508,0,0,0,.45,1.09,1.469,1.469,0,0,0,1.08.45,1.442,1.442,0,0,0,.77-.21"/>
    </g>
  </g>
</svg>
