<svg xmlns="http://www.w3.org/2000/svg" width="333" height="180" viewBox="0 0 333 180">
  <g id="MW_Netzwerk_Osteuropa_Logo" data-name="MW Netzwerk Osteuropa Logo" transform="translate(-755 -410)">
    <path id="Pfad_95368" data-name="Pfad 95368" d="M22.082,1.216a18.463,18.463,0,0,1-7.052-1.4,18.692,18.692,0,0,1-6.178-4.15,19.532,19.532,0,0,1-4.337-6.834,25.952,25.952,0,0,1-1.591-9.455A24.528,24.528,0,0,1,4.545-29.8a20.918,20.918,0,0,1,4.337-6.865,18.734,18.734,0,0,1,6.147-4.275,17.783,17.783,0,0,1,7.052-1.467A18.232,18.232,0,0,1,29.1-41a18.446,18.446,0,0,1,6.116,4.15,20.2,20.2,0,0,1,4.337,6.8,25.258,25.258,0,0,1,1.623,9.424,24.956,24.956,0,0,1-1.591,9.174,20.875,20.875,0,0,1-4.306,6.9A18.522,18.522,0,0,1,29.134-.251,17.783,17.783,0,0,1,22.082,1.216Zm0-3.12A9.693,9.693,0,0,0,27.667-3.5,12.126,12.126,0,0,0,31.474-7.74a21.074,21.074,0,0,0,2.153-5.991,34.158,34.158,0,0,0,.687-6.9,33.845,33.845,0,0,0-.687-6.834,21.516,21.516,0,0,0-2.153-6.022,11.773,11.773,0,0,0-3.807-4.244,9.835,9.835,0,0,0-5.586-1.56,9.835,9.835,0,0,0-5.586,1.56,12.043,12.043,0,0,0-3.838,4.244,21.588,21.588,0,0,0-2.216,6.022,32.426,32.426,0,0,0-.718,6.834,32.726,32.726,0,0,0,.718,6.9A21.141,21.141,0,0,0,12.658-7.74,12.411,12.411,0,0,0,16.5-3.5,9.693,9.693,0,0,0,22.082-1.9Zm34.512,3A18.316,18.316,0,0,1,51.788.5a23.144,23.144,0,0,1-4.493-1.779l-.25-6.865h3.432l1.186,5.43a12.045,12.045,0,0,0,5.055,1,8.669,8.669,0,0,0,5.274-1.311,4.117,4.117,0,0,0,1.716-3.432,4.006,4.006,0,0,0-1.435-3.214A13.646,13.646,0,0,0,57.9-11.89l-2.871-1.061A15.257,15.257,0,0,1,49.542-16.2a6.894,6.894,0,0,1-2.059-5.18,7.978,7.978,0,0,1,1.248-4.306,9.1,9.1,0,0,1,3.682-3.245,12.875,12.875,0,0,1,5.929-1.248,15.5,15.5,0,0,1,4.649.655,17.686,17.686,0,0,1,4.088,1.9l-.25,6.366H63.584l-1-4.993a9.537,9.537,0,0,0-4.306-1.061,6.915,6.915,0,0,0-4.337,1.155,3.731,3.731,0,0,0-1.467,3.089,3.821,3.821,0,0,0,1.279,3.12,16.343,16.343,0,0,0,4.462,2.247l1.935.686q4.681,1.747,6.647,3.994a7.633,7.633,0,0,1,1.966,5.18,7.694,7.694,0,0,1-1.373,4.4A9.66,9.66,0,0,1,63.334-.157,15.983,15.983,0,0,1,56.594,1.091Zm27.4,0a7.435,7.435,0,0,1-5.18-1.747Q76.877-2.4,76.877-6.024q0-1.186.031-2.34t.031-2.964V-26.057h-5.18V-28.8l5.554-.686,1.623-8.363h3.745l-.374,8.488h8.425v3.308H82.244V-6.71a5.263,5.263,0,0,0,.936,3.464,3.123,3.123,0,0,0,2.5,1.092A4.873,4.873,0,0,0,87.7-2.591a14.389,14.389,0,0,0,2.153-1.248l1.5,1.623A8.754,8.754,0,0,1,83.991,1.091Zm24.277-28.4a7.159,7.159,0,0,0-3.526,1,8.365,8.365,0,0,0-3.058,3.183,14.445,14.445,0,0,0-1.654,5.8h11.358q2.247,0,2.964-.936a3.683,3.683,0,0,0,.718-2.309,6.437,6.437,0,0,0-.9-3.339,7.08,7.08,0,0,0-2.434-2.465A6.5,6.5,0,0,0,108.268-27.305Zm-.062,28.4A13.16,13.16,0,0,1,98.1-3q-3.807-4.088-3.807-11.265a17.021,17.021,0,0,1,1.966-8.363,14.66,14.66,0,0,1,5.242-5.554,13.475,13.475,0,0,1,7.146-2,12.01,12.01,0,0,1,5.866,1.435,10.808,10.808,0,0,1,4.181,4.088,12.535,12.535,0,0,1,1.56,6.459,14.427,14.427,0,0,1-.125,1.966,10.322,10.322,0,0,1-.312,1.529H99.905q.125,5.742,2.871,8.737a9.354,9.354,0,0,0,7.239,3,9.444,9.444,0,0,0,4.993-1.217,15.784,15.784,0,0,0,3.682-3.152l1.5,1.186a14.007,14.007,0,0,1-4.743,5.274A12.9,12.9,0,0,1,108.206,1.091Zm29.02,0a7.5,7.5,0,0,1-5.991-2.528q-2.184-2.528-2.122-8.706l.187-15.54-4.431-.936v-2.247l9.174-.874.624.624-.312,8.737V-10.7q0,4.057,1.248,5.71a4.393,4.393,0,0,0,3.745,1.654q4.369,0,8.737-4.057l.187-18.348-4.431-.874v-2.247l9.049-.874.624.624-.187,8.737V-2.841l4.244.874V.28l-8.675.5-.624-5.554a16.382,16.382,0,0,1-5.336,4.462A12.774,12.774,0,0,1,137.226,1.091ZM162.314.28V-1.967l4.493-.811q.062-2.372.094-5.149t.031-4.9v-3q0-2.559-.031-4.244t-.156-3.557l-4.93-.562v-2.184l8.737-3.807.936.624.686,7.364a15.366,15.366,0,0,1,4.025-5.866,7.623,7.623,0,0,1,4.961-2.122,5.918,5.918,0,0,1,2.684.624,3.974,3.974,0,0,1,1.81,1.685q0,4.556-3.682,4.556a4.968,4.968,0,0,1-2-.406,7.169,7.169,0,0,1-1.81-1.155l-.749-.686a12.069,12.069,0,0,0-3.12,3.37,19.379,19.379,0,0,0-2.059,4.681v4.681q0,2.059.031,4.805t.094,5.118l5.118.936V.28Zm40.254.811a14.661,14.661,0,0,1-6.9-1.716,13.414,13.414,0,0,1-5.336-5.18,16.537,16.537,0,0,1-2.059-8.581,17.013,17.013,0,0,1,2.059-8.706,13.751,13.751,0,0,1,5.336-5.3,14.252,14.252,0,0,1,6.9-1.779,14.252,14.252,0,0,1,6.9,1.779,13.964,13.964,0,0,1,5.367,5.3,16.809,16.809,0,0,1,2.091,8.706,16.34,16.34,0,0,1-2.091,8.581,13.622,13.622,0,0,1-5.367,5.18A14.661,14.661,0,0,1,202.568,1.091Zm0-2.808a7.1,7.1,0,0,0,6.241-3.214q2.184-3.214,2.184-9.455,0-6.3-2.184-9.611a7.04,7.04,0,0,0-6.241-3.308A6.965,6.965,0,0,0,196.358-24q-2.153,3.308-2.153,9.611,0,6.241,2.153,9.455A7.02,7.02,0,0,0,202.568-1.717ZM221.29,15.2V13.011l4.993-.874q.062-2.559.094-5.086t.031-5.024V-15.822q0-2.559-.031-4.244t-.156-3.557l-4.93-.562v-2.184l8.737-3.807.936.624.374,4.057q4.431-4.681,9.424-4.681a10.329,10.329,0,0,1,6.054,1.872,12.863,12.863,0,0,1,4.275,5.336,19.845,19.845,0,0,1,1.591,8.332A19.146,19.146,0,0,1,251-6.3,13.238,13.238,0,0,1,246.41-.844a11.6,11.6,0,0,1-6.584,1.935,10.843,10.843,0,0,1-4.213-.874,11.359,11.359,0,0,1-4.088-3.183v4.93q0,2.5.031,5.024t.094,5.086l5.679.936V15.2Zm17.974-41.814a9.418,9.418,0,0,0-3.308.718,15.605,15.605,0,0,0-4.244,2.715V-5.649a12.2,12.2,0,0,0,3.432,2.434,8.375,8.375,0,0,0,3.432.749,7.747,7.747,0,0,0,5.991-2.808q2.5-2.808,2.5-8.862,0-5.991-2.184-9.236A6.546,6.546,0,0,0,239.264-26.619ZM281.453.9a5.481,5.481,0,0,1-3.745-1.311A5.773,5.773,0,0,1,275.836-3.9a30.288,30.288,0,0,1-4.493,3.745,8.45,8.45,0,0,1-4.681,1.248,9.168,9.168,0,0,1-5.9-1.966A7.015,7.015,0,0,1,258.3-6.71a6.982,6.982,0,0,1,.842-3.37,9.175,9.175,0,0,1,3.089-3.058,30.408,30.408,0,0,1,6.428-3q1.435-.5,3.308-1.061t3.745-1v-1.56q0-4.556-1.373-6.054t-4.493-1.5q-.687,0-1.529.062a10.991,10.991,0,0,0-1.841.312l-1.186,4.057q-.874,3-3.245,3a2.629,2.629,0,0,1-2.933-2.559,9.106,9.106,0,0,1,4.15-5.648,14.61,14.61,0,0,1,8.02-2.091q4.93,0,7.3,2.465t2.372,8.394V-6.024a4.9,4.9,0,0,0,.624,2.84,1.931,1.931,0,0,0,1.623.843,2.42,2.42,0,0,0,1.373-.374,4.745,4.745,0,0,0,1.061-1l1.248,1.373A6.845,6.845,0,0,1,284.417.186,6.185,6.185,0,0,1,281.453.9Zm-17.6-8.55a4.134,4.134,0,0,0,1.435,3.557,5.82,5.82,0,0,0,3.557,1.061,6.229,6.229,0,0,0,1.779-.25,9.105,9.105,0,0,0,2.028-.967q1.186-.718,3.058-2.091v-9.549q-1.623.437-3.183.967t-2.559.9a14.373,14.373,0,0,0-3.994,2.184,5.751,5.751,0,0,0-1.716,2.184A5.6,5.6,0,0,0,263.853-7.646Z" transform="translate(753.326 516.408)"/>
    <path id="Pfad_95369" data-name="Pfad 95369" d="M2.818-23.273H6.227L14.242-3.695h.276l8.015-19.578h3.409V.313H23.271V-17.607h-.23L15.67.313h-2.58L5.72-17.607H5.49V.313H2.818Zm32.539,24A7.133,7.133,0,0,1,32.305.088a5.183,5.183,0,0,1-2.177-1.854,5.2,5.2,0,0,1-.806-2.942,4.571,4.571,0,0,1,.6-2.47,4.242,4.242,0,0,1,1.6-1.491,8.549,8.549,0,0,1,2.217-.812q1.215-.271,2.447-.432,1.612-.207,2.62-.317A4.007,4.007,0,0,0,40.28-10.6a.97.97,0,0,0,.466-.921v-.092a3.62,3.62,0,0,0-.927-2.649,3.769,3.769,0,0,0-2.8-.944,4.888,4.888,0,0,0-3.052.852,5.038,5.038,0,0,0-1.555,1.82l-2.58-.921a6.216,6.216,0,0,1,1.848-2.516,6.966,6.966,0,0,1,2.534-1.267,10.61,10.61,0,0,1,2.712-.363,11.16,11.16,0,0,1,1.964.2,6.419,6.419,0,0,1,2.154.823A4.823,4.823,0,0,1,42.773-14.7a6.983,6.983,0,0,1,.691,3.363V.313H40.746v-2.4h-.138A4.785,4.785,0,0,1,39.687-.85,5.316,5.316,0,0,1,37.971.267,6.611,6.611,0,0,1,35.357.727Zm.415-2.441A5.424,5.424,0,0,0,38.5-2.348a4.364,4.364,0,0,0,1.681-1.635,4.2,4.2,0,0,0,.57-2.107V-8.578a1.588,1.588,0,0,1-.754.374,11.439,11.439,0,0,1-1.336.288q-.754.121-1.463.207t-1.146.144a10.552,10.552,0,0,0-1.975.443,3.441,3.441,0,0,0-1.474.91A2.324,2.324,0,0,0,32.04-4.57a2.418,2.418,0,0,0,1.054,2.136A4.646,4.646,0,0,0,35.771-1.714Zm13.56-15.662,4.238,7.232,4.238-7.232H60.94L55.228-8.532,60.94.313H57.807L53.569-6.551,49.331.313H46.2l5.62-8.845L46.2-17.376ZM76.313.313,69.863-23.273h2.9L77.694-4.064h.23l5.021-19.209h3.225L91.192-4.064h.23l4.929-19.209h2.9L92.8.313H89.856L84.65-18.482h-.184L79.261.313Zm30.742.369a8.257,8.257,0,0,1-4.4-1.134,7.48,7.48,0,0,1-2.845-3.179,10.749,10.749,0,0,1-1-4.762,10.975,10.975,0,0,1,1-4.8,7.806,7.806,0,0,1,2.787-3.248,7.485,7.485,0,0,1,4.186-1.169,8.385,8.385,0,0,1,2.729.461,6.8,6.8,0,0,1,2.453,1.491,7.217,7.217,0,0,1,1.762,2.724,11.586,11.586,0,0,1,.656,4.169v1.152H100.744V-9.96h10.871a5.846,5.846,0,0,0-.593-2.672,4.565,4.565,0,0,0-1.681-1.854,4.738,4.738,0,0,0-2.562-.679,4.876,4.876,0,0,0-2.8.8,5.33,5.33,0,0,0-1.814,2.079,6.09,6.09,0,0,0-.633,2.741v1.566a7.5,7.5,0,0,0,.7,3.392,4.905,4.905,0,0,0,1.94,2.107,5.667,5.667,0,0,0,2.891.72A5.831,5.831,0,0,0,109-2.065a4.048,4.048,0,0,0,1.5-.921,4.131,4.131,0,0,0,.979-1.537l2.626.737a5.776,5.776,0,0,1-1.393,2.344A6.691,6.691,0,0,1,110.291.123,8.886,8.886,0,0,1,107.055.681Zm10.7-.369V-23.273h2.718v8.706h.23q.3-.461.835-1.18a4.874,4.874,0,0,1,1.543-1.29,5.565,5.565,0,0,1,2.735-.57,7.021,7.021,0,0,1,3.939,1.117,7.432,7.432,0,0,1,2.66,3.167,11.35,11.35,0,0,1,.956,4.837,11.449,11.449,0,0,1-.956,4.866A7.5,7.5,0,0,1,129.77-.442a6.9,6.9,0,0,1-3.9,1.123,5.612,5.612,0,0,1-2.729-.57,4.957,4.957,0,0,1-1.578-1.3q-.553-.731-.852-1.215h-.322V.313Zm2.672-8.845A9.788,9.788,0,0,0,121.017-5a5.3,5.3,0,0,0,1.716,2.384,4.434,4.434,0,0,0,2.764.858,4.459,4.459,0,0,0,2.85-.9,5.509,5.509,0,0,0,1.727-2.441,9.619,9.619,0,0,0,.582-3.426,9.438,9.438,0,0,0-.57-3.369,5.293,5.293,0,0,0-1.716-2.384,4.575,4.575,0,0,0-2.873-.881,4.556,4.556,0,0,0-2.787.835,5.085,5.085,0,0,0-1.7,2.326A9.609,9.609,0,0,0,120.43-8.532ZM143.8.681a8.257,8.257,0,0,1-4.4-1.134,7.48,7.48,0,0,1-2.845-3.179,10.749,10.749,0,0,1-1-4.762,10.975,10.975,0,0,1,1-4.8,7.806,7.806,0,0,1,2.787-3.248,7.485,7.485,0,0,1,4.186-1.169,8.385,8.385,0,0,1,2.729.461,6.8,6.8,0,0,1,2.453,1.491,7.217,7.217,0,0,1,1.762,2.724,11.586,11.586,0,0,1,.656,4.169v1.152H137.491V-9.96h10.871a5.846,5.846,0,0,0-.593-2.672,4.565,4.565,0,0,0-1.681-1.854,4.738,4.738,0,0,0-2.562-.679,4.876,4.876,0,0,0-2.8.8,5.33,5.33,0,0,0-1.814,2.079,6.09,6.09,0,0,0-.633,2.741v1.566a7.5,7.5,0,0,0,.7,3.392,4.9,4.9,0,0,0,1.941,2.107,5.667,5.667,0,0,0,2.891.72,5.831,5.831,0,0,0,1.941-.305,4.048,4.048,0,0,0,1.5-.921,4.131,4.131,0,0,0,.979-1.537l2.626.737a5.776,5.776,0,0,1-1.393,2.344A6.691,6.691,0,0,1,147.038.123,8.886,8.886,0,0,1,143.8.681ZM154.137.313V-17.376h2.626V-14.7h.184a4.248,4.248,0,0,1,1.75-2.131,5.153,5.153,0,0,1,2.856-.818q.3,0,.749.012t.679.035v2.764q-.138-.035-.628-.109a6.816,6.816,0,0,0-1.031-.075,4.82,4.82,0,0,0-2.3.536,4.087,4.087,0,0,0-1.589,1.474,3.972,3.972,0,0,0-.582,2.136V.313Zm37.991-23.585V.313h-2.764L176.512-18.206h-.23V.313h-2.856V-23.273h2.764l12.9,18.564h.23V-23.273ZM203.753.681a8.257,8.257,0,0,1-4.4-1.134A7.48,7.48,0,0,1,196.5-3.632a10.749,10.749,0,0,1-1-4.762,10.975,10.975,0,0,1,1-4.8,7.806,7.806,0,0,1,2.787-3.248,7.485,7.485,0,0,1,4.186-1.169,8.385,8.385,0,0,1,2.729.461,6.8,6.8,0,0,1,2.453,1.491,7.217,7.217,0,0,1,1.762,2.724,11.586,11.586,0,0,1,.656,4.169v1.152H197.442V-9.96h10.871a5.846,5.846,0,0,0-.593-2.672,4.565,4.565,0,0,0-1.681-1.854,4.738,4.738,0,0,0-2.562-.679,4.876,4.876,0,0,0-2.8.8,5.33,5.33,0,0,0-1.814,2.079,6.09,6.09,0,0,0-.633,2.741v1.566a7.5,7.5,0,0,0,.7,3.392,4.905,4.905,0,0,0,1.941,2.107,5.667,5.667,0,0,0,2.891.72,5.831,5.831,0,0,0,1.941-.305,4.047,4.047,0,0,0,1.5-.921,4.131,4.131,0,0,0,.979-1.537l2.626.737a5.776,5.776,0,0,1-1.393,2.344A6.691,6.691,0,0,1,206.989.123,8.886,8.886,0,0,1,203.753.681Zm18.028-18.058v2.3h-9.167v-2.3Zm-6.5-4.238H218v16.86a3.44,3.44,0,0,0,.34,1.722,1.667,1.667,0,0,0,.875.76,3.367,3.367,0,0,0,1.134.19,4.291,4.291,0,0,0,.737-.052q.288-.052.461-.086L222.1.221a5.98,5.98,0,0,1-.772.213,5.97,5.97,0,0,1-1.255.109,5.431,5.431,0,0,1-2.251-.5,4.434,4.434,0,0,1-1.82-1.509,4.308,4.308,0,0,1-.72-2.557ZM224.239.313V-1.76l10.042-12.9v-.184h-9.72v-2.534h13.221v2.165L228.017-2.405v.184H238.1V.313Zm20.93,0-5.39-17.689h2.856l3.823,13.543h.184l3.777-13.543h2.9l3.731,13.5h.184l3.823-13.5h2.856L258.528.313h-2.672l-3.869-13.589h-.276L247.841.313Zm28.024.369a8.257,8.257,0,0,1-4.4-1.134,7.48,7.48,0,0,1-2.845-3.179,10.75,10.75,0,0,1-1-4.762,10.975,10.975,0,0,1,1-4.8,7.806,7.806,0,0,1,2.787-3.248,7.485,7.485,0,0,1,4.186-1.169,8.385,8.385,0,0,1,2.729.461,6.8,6.8,0,0,1,2.453,1.491,7.217,7.217,0,0,1,1.762,2.724,11.586,11.586,0,0,1,.656,4.169v1.152H266.883V-9.96h10.871a5.846,5.846,0,0,0-.593-2.672,4.566,4.566,0,0,0-1.681-1.854,4.738,4.738,0,0,0-2.562-.679,4.876,4.876,0,0,0-2.8.8,5.33,5.33,0,0,0-1.814,2.079,6.09,6.09,0,0,0-.633,2.741v1.566a7.5,7.5,0,0,0,.7,3.392A4.905,4.905,0,0,0,270.3-2.48a5.667,5.667,0,0,0,2.891.72,5.83,5.83,0,0,0,1.94-.305,4.047,4.047,0,0,0,1.5-.921,4.131,4.131,0,0,0,.979-1.537l2.626.737a5.776,5.776,0,0,1-1.393,2.344A6.691,6.691,0,0,1,276.43.123,8.886,8.886,0,0,1,273.194.681ZM283.529.313V-17.376h2.626V-14.7h.184a4.248,4.248,0,0,1,1.751-2.131,5.153,5.153,0,0,1,2.856-.818q.3,0,.749.012t.679.035v2.764q-.138-.035-.628-.109a6.816,6.816,0,0,0-1.031-.075,4.82,4.82,0,0,0-2.3.536,4.087,4.087,0,0,0-1.589,1.474,3.972,3.972,0,0,0-.582,2.136V.313ZM297-6.136,296.95-9.5h.553l7.739-7.877H308.6l-8.246,8.338h-.23ZM294.463.313V-23.273h2.718V.313Zm11.24,0-6.91-8.752,1.935-1.889L309.158.313Z" transform="translate(752.182 433.273)"/>
    <circle id="Ellipse_19893" data-name="Ellipse 19893" cx="7" cy="7" r="7" transform="translate(755 576)"/>
    <circle id="Ellipse_19894" data-name="Ellipse 19894" cx="7" cy="7" r="7" transform="translate(801 576)"/>
    <circle id="Ellipse_19895" data-name="Ellipse 19895" cx="7" cy="7" r="7" transform="translate(846 576)"/>
    <circle id="Ellipse_19896" data-name="Ellipse 19896" cx="7" cy="7" r="7" transform="translate(892 576)"/>
    <circle id="Ellipse_19897" data-name="Ellipse 19897" cx="7" cy="7" r="7" transform="translate(937 576)"/>
    <circle id="Ellipse_19898" data-name="Ellipse 19898" cx="7" cy="7" r="7" transform="translate(983 576)"/>
    <circle id="Ellipse_19899" data-name="Ellipse 19899" cx="7" cy="7" r="7" transform="translate(1028 576)"/>
    <circle id="Ellipse_19900" data-name="Ellipse 19900" cx="7" cy="7" r="7" transform="translate(1074 576)"/>
  </g>
</svg>
