<?xml version="1.0" encoding="UTF-8" standalone="no"?><!DOCTYPE svg PUBLIC "-//W3C//DTD SVG 1.1//EN" "http://www.w3.org/Graphics/SVG/1.1/DTD/svg11.dtd"><svg width="100%" height="100%" viewBox="0 0 2363 2955" version="1.1" xmlns="http://www.w3.org/2000/svg" xmlns:xlink="http://www.w3.org/1999/xlink" xml:space="preserve" xmlns:serif="http://www.serif.com/" style="fill-rule:evenodd;clip-rule:evenodd;stroke-linejoin:round;stroke-miterlimit:2;"><g><path d="M322.637,2518.7c6.508,4.896 14.362,8.546 23.562,10.913c9.179,2.367 19.358,3.571 30.558,3.571c13.321,0 24.846,-1.225 34.579,-3.692c9.733,-2.45 17.992,-5.733 24.808,-9.875c6.812,-4.142 12.3,-8.771 16.442,-13.892c4.142,-5.142 7.158,-10.467 9.079,-15.975c1.442,-4.154 2.337,-8.175 2.696,-12.054c2.358,0.592 4.637,1.092 6.829,1.487c4.283,0.754 7.812,1.142 10.567,1.142l58.608,0c5.037,-14.4 7.425,-27.6 7.121,-39.638c-0.308,-12.012 -2.183,-23.233 -5.629,-33.658c-3.45,-10.425 -7.408,-20.296 -11.833,-29.642l-25.05,25.275c5.363,8.571 9.65,16.892 12.871,24.929c3.204,8.038 5.037,16.425 5.508,25.154l-42.738,0c-3.225,0 -6.671,-0.225 -10.342,-0.675c-3.675,-0.467 -7.733,-1.221 -12.179,-2.304c-4.45,-1.079 -9.383,-2.671 -14.813,-4.833c-5.446,-2.142 -11.604,-4.896 -18.5,-8.262l-12.408,24.133c7.183,2.896 12.754,5.425 16.65,7.567c3.917,2.163 6.587,4.183 8.037,6.1c1.471,1.917 2.183,3.858 2.183,5.854c0,2.308 -1.062,4.896 -3.204,7.817c-2.142,2.917 -5.588,5.671 -10.342,8.258c-4.754,2.612 -10.875,4.796 -18.383,6.571c-7.504,1.754 -16.542,2.629 -27.108,2.629c-8.283,0 -15.567,-0.792 -21.829,-2.404c-6.283,-1.613 -11.546,-3.958 -15.75,-7.017c-4.221,-3.063 -7.383,-6.896 -9.525,-11.488c-2.162,-4.587 -3.225,-9.875 -3.225,-15.85c0,-4.446 0.571,-9.342 1.713,-14.708c1.167,-5.367 2.796,-11.096 4.937,-17.237l-23.888,-7.812c-3.833,9.037 -6.546,17.542 -8.158,25.5c-1.612,7.975 -2.408,14.483 -2.408,19.542c0,9.954 1.796,18.646 5.404,26.071c3.592,7.425 8.65,13.608 15.158,18.504Z" style="fill:#231f20;fill-rule:nonzero;"/><path d="M425.579,2564.946l20.437,20.908l19.321,-20.908l-20.463,-20.687l-19.296,20.687Z" style="fill:#231f20;fill-rule:nonzero;"/><path d="M385.617,2564.921l-20.221,-20.688l-19.317,20.913l20.458,20.683l19.275,-20.658l20.221,20.683l19.546,-20.908l-20.463,-20.687l-19.5,20.662Z" style="fill:#231f20;fill-rule:nonzero;"/><path d="M537.833,2336.017l-20.454,-20.908l-19.525,20.908l20.667,20.687l19.313,-20.687Z" style="fill:#231f20;fill-rule:nonzero;"/><path d="M862.033,2423.45c3.221,-3.896 6.158,-6.688 8.854,-8.383c2.671,-1.692 5.079,-2.529 7.242,-2.529c2.446,0 4.733,0.838 6.896,2.529c2.142,1.696 4.383,4.712 6.771,9.079c2.367,4.367 5.079,10.608 8.158,18.725c1.821,5.067 3.946,9.667 6.304,13.9c-4.15,0.704 -8.283,1.008 -12.4,0.808c-6.346,-0.304 -12.404,-1.304 -18.158,-2.996c-5.733,-1.675 -11.017,-3.817 -15.85,-6.429c-3.804,-2.063 -7.146,-4.167 -10.05,-6.317c0.479,-0.804 0.946,-1.579 1.442,-2.413c3.979,-6.733 7.567,-12.058 10.792,-15.975Zm-278.296,46.308c3.142,3.367 7.346,5.979 12.629,7.812c5.283,1.838 11.829,2.754 19.646,2.754l188.125,0l0,-0.038c3.892,-0.05 7.408,-0.362 10.446,-1c3.304,-0.675 6.325,-1.9 9.079,-3.675c2.75,-1.754 5.467,-4.158 8.158,-7.242c1.679,-1.921 3.467,-4.217 5.338,-6.808c3.35,3.079 7.025,6.013 11.083,8.767c5.979,4.062 12.425,7.346 19.321,9.875c6.875,2.529 13.808,3.958 20.787,4.263c6.975,0.308 13.546,-0.65 19.767,-2.875c4.708,-1.687 8.987,-4.375 12.858,-8.05c2.508,1.671 5.208,3.079 8.154,4.133c4.896,1.775 10.729,2.65 17.463,2.65l59.054,0l0,-170.033l-28.25,0l0,142.454l-27.808,0c-3.996,0 -7.362,-0.408 -10.117,-1.267c-2.754,-0.833 -5.325,-2.854 -7.692,-6.079c-2.387,-3.221 -4.875,-8.279 -7.467,-15.175c-4.446,-11.488 -8.854,-20.521 -13.217,-27.113c-4.367,-6.567 -9.079,-11.321 -14.137,-14.237c-5.058,-2.917 -10.712,-4.367 -16.996,-4.367c-4.304,0 -8.462,0.733 -12.525,2.183c-4.058,1.446 -8.117,3.754 -12.179,6.896c-4.058,3.142 -8.2,7.383 -12.4,12.75c-4.225,5.363 -8.629,11.871 -13.221,19.521c-3.225,5.529 -5.975,9.996 -8.283,13.446c-2.283,3.446 -4.362,6.179 -6.2,8.158c-1.837,2 -3.712,3.388 -5.629,4.142c-1.921,0.775 -4.1,1.142 -6.55,1.142l-180.517,0c-4.142,0 -7.467,-0.367 -9.996,-1.142c-2.533,-0.754 -4.45,-1.917 -5.754,-3.45c-1.304,-1.529 -2.225,-3.567 -2.754,-6.079c-0.529,-2.529 -0.796,-5.567 -0.796,-9.075l0,-122.708l-28.275,0l0,131.192c0,5.838 0.696,11.163 2.062,15.975c1.388,4.833 3.65,8.933 6.792,12.3Z" style="fill:#231f20;fill-rule:nonzero;"/><path d="M1073.658,2452.746c2.921,-2.896 6.288,-6.383 10.121,-10.446c3.817,-4.058 7.913,-8.587 12.279,-13.567c0.688,-0.783 1.354,-1.629 2.038,-2.429c2.692,3.275 5.104,6.542 7.162,9.796c3.45,5.425 6.079,10.996 7.917,16.646l-39.517,0Zm38.367,-46.362c3.425,-7.275 6.267,-15.054 8.517,-23.362c2.896,-10.813 4.812,-22.338 5.75,-34.6c0.917,-12.242 0.837,-25.196 -0.246,-38.821l-28.25,5.979c0.304,7.342 0.446,14.504 0.446,21.479c0,6.975 -0.183,13.667 -0.571,20.096c-0.388,6.446 -1.058,12.562 -2.058,18.4c-0.592,3.425 -1.337,6.679 -2.162,9.842c-7.354,-7.362 -15.671,-14.783 -25.071,-22.267c-11.179,-8.875 -23.746,-17.767 -37.679,-26.642l-5.754,30.558c12.871,8.263 24.438,16.238 34.7,23.888c8.579,6.413 16.146,12.708 22.796,18.892c-3.271,4.883 -6.967,9.671 -11.187,14.321c-4.671,5.142 -9.629,10.117 -14.829,14.933c-5.204,4.833 -10.404,9.383 -15.629,13.667l5.283,27.579l81.354,0c1.675,-3.529 2.979,-7.2 3.9,-11.033c0.917,-3.817 1.383,-7.65 1.383,-11.487c0,-8.875 -2.1,-18.113 -6.321,-27.683c-3.417,-7.779 -8.258,-15.7 -14.371,-23.737Z" style="fill:#231f20;fill-rule:nonzero;"/><path d="M1065.4,2307.071l-12.425,0c-5.367,0 -8.954,-0.838 -10.792,-2.529c-1.837,-1.696 -2.754,-3.45 -2.754,-5.283c0,-2 0.717,-3.633 2.183,-4.938c1.45,-1.304 3.633,-1.958 6.55,-1.958c1.529,0 3.017,0.162 4.467,0.471c1.467,0.304 2.958,0.754 4.487,1.367l5.754,-13.325c-2.162,-1.221 -4.613,-2.142 -7.367,-2.75c-2.754,-0.613 -5.588,-0.921 -8.504,-0.921c-6.875,0 -12.487,1.917 -16.771,5.733c-4.283,3.833 -6.425,8.813 -6.425,14.933c0,1.692 0.225,3.346 0.692,4.958c0.45,1.587 1.146,3.017 2.062,4.242l-6.896,0l0,15.158l45.738,0l0,-15.158Z" style="fill:#231f20;fill-rule:nonzero;"/><rect x="1159.583" y="2310.292" width="28.275" height="170.033" style="fill:#231f20;fill-rule:nonzero;"/><path d="M1833.829,2448.154c-3.808,-2.063 -7.146,-4.167 -10.05,-6.317c0.479,-0.804 0.946,-1.579 1.442,-2.413c3.979,-6.733 7.567,-12.058 10.792,-15.975c3.221,-3.896 6.158,-6.688 8.854,-8.383c2.671,-1.692 5.079,-2.529 7.242,-2.529c2.446,0 4.733,0.838 6.896,2.529c2.142,1.696 4.383,4.712 6.771,9.079c2.367,4.367 5.079,10.608 8.158,18.725c1.821,5.067 3.946,9.667 6.304,13.9c-4.15,0.704 -8.283,1.008 -12.4,0.808c-6.346,-0.304 -12.404,-1.304 -18.158,-2.996c-5.733,-1.675 -11.017,-3.817 -15.85,-6.429Zm-103.958,-22.746c-1.529,3.063 -3.754,6.121 -6.671,9.183c-2.917,3.079 -6.508,5.975 -10.792,8.729c-1.388,-1.225 -2.875,-2.671 -4.487,-4.367c-1.612,-1.671 -3.325,-3.425 -5.163,-5.283l-23.212,-24.112c4.587,-1.529 9.729,-2.733 15.4,-3.571c5.65,-0.833 11.1,-1.262 16.3,-1.262c5.221,0 9.325,0.55 12.3,1.612c2.979,1.079 5.163,2.488 6.55,4.242c1.388,1.775 2.058,3.796 2.058,6.1c0,2.754 -0.754,5.671 -2.283,8.729Zm-134.538,77.217c-2.996,1.979 -7.792,2.975 -14.362,2.975c-4.446,0 -8.383,-0.571 -11.829,-1.713c-3.45,-1.162 -6.367,-2.833 -8.733,-5.058c-2.387,-2.225 -4.058,-4.875 -5.058,-7.937c-1,-3.058 -1.183,-6.588 -0.571,-10.567l17.913,0c6.587,0 11.871,0.654 15.85,1.958c3.996,1.287 6.854,3.021 8.629,5.162c1.754,2.142 2.629,4.529 2.629,7.121c0,3.367 -1.487,6.058 -4.467,8.058Zm-32.742,-63.2c1.529,-5.058 3.204,-10.383 5.042,-15.975c1.854,-5.587 3.712,-11.179 5.629,-16.767c0.987,-2.883 1.967,-5.65 2.933,-8.313c2.938,2.567 5.512,5.358 7.654,8.433c3.283,4.733 5.692,9.404 7.221,14.017c1.529,4.588 2.304,8.488 2.304,11.708c0,2.754 -0.467,5.408 -1.388,7.937c-0.917,2.529 -2.283,4.671 -4.121,6.425c-1.833,1.775 -4.179,3.183 -7.017,4.242c-2.833,1.083 -6.158,1.612 -9.996,1.612l-11.954,0c0.917,-3.817 2.142,-8.262 3.692,-13.321Zm319.504,42.167c4.708,-1.687 8.987,-4.375 12.858,-8.05c2.508,1.671 5.208,3.079 8.154,4.133c4.896,1.775 10.729,2.65 17.463,2.65l59.054,0l0,-170.033l-28.25,0l0,142.454l-27.808,0c-3.996,0 -7.362,-0.408 -10.117,-1.267c-2.754,-0.833 -5.325,-2.854 -7.692,-6.079c-2.387,-3.221 -4.875,-8.279 -7.467,-15.175c-4.446,-11.488 -8.854,-20.521 -13.217,-27.113c-4.367,-6.567 -9.079,-11.321 -14.138,-14.237c-5.058,-2.917 -10.712,-4.367 -16.996,-4.367c-4.304,0 -8.463,0.733 -12.525,2.183c-4.058,1.446 -8.117,3.754 -12.179,6.896c-4.058,3.142 -8.2,7.383 -12.4,12.75c-4.225,5.363 -8.629,11.871 -13.221,19.521c-3.225,5.529 -5.975,9.996 -8.283,13.446c-2.283,3.446 -4.362,6.179 -6.2,8.158c-1.838,2 -3.712,3.388 -5.629,4.142c-1.921,0.775 -4.1,1.142 -6.55,1.142l-24.112,0c-2.283,0 -4.508,-0.062 -6.65,-0.225c-2.163,-0.142 -4.225,-0.388 -6.221,-0.692c3.833,-3.508 7.283,-7.467 10.342,-11.833c3.058,-4.367 5.529,-9.037 7.362,-14.012c1.837,-4.979 2.754,-10 2.754,-15.058c0,-7.954 -2.037,-14.421 -6.1,-19.421c-4.058,-4.954 -9.75,-8.608 -17.112,-10.913c-7.346,-2.283 -16.017,-3.446 -25.971,-3.446c-5.813,0 -11.871,0.55 -18.133,1.608c-6.283,1.083 -12.425,2.492 -18.404,4.267c-5.954,1.754 -11.4,3.792 -16.296,6.079l0,35.617l26.104,25.887c-0.125,0.025 -0.258,0.058 -0.383,0.083c-3.2,0.608 -6.546,1.121 -9.996,1.488c-3.446,0.387 -7.3,0.571 -11.604,0.571l-46.413,0c2,-3.204 3.408,-6.608 4.246,-10.221c0.854,-3.592 1.263,-7.242 1.263,-10.913c0,-4.283 -0.838,-9.158 -2.508,-14.587c-1.692,-5.446 -4.304,-11.075 -7.812,-16.892c-3.529,-5.813 -8.017,-11.75 -13.446,-17.808c-5.446,-6.058 -12.075,-11.833 -19.888,-17.358l-22.521,17.704c-2.592,6.733 -5.079,13.137 -7.467,19.179c-2.367,6.058 -4.55,11.912 -6.55,17.583c-1.979,5.671 -3.854,11.221 -5.629,16.667c-1.754,5.425 -3.488,10.996 -5.162,16.646l-148.846,0c-3.367,0 -6.242,-0.45 -8.608,-1.367c-2.387,-0.917 -4.608,-2.571 -6.671,-4.937c-2.058,-2.388 -4.325,-5.629 -6.771,-9.771l-40.208,-70.542l-21.379,27.333l37.679,57.917c0.142,0.221 0.283,0.417 0.425,0.633c-2.808,0.471 -6.192,0.733 -10.3,0.733l-64.792,0l5.042,27.579l59.75,0c4.446,0 8.875,-0.425 13.321,-1.263c4.446,-0.837 8.325,-2.142 11.608,-3.896c1.446,-0.783 2.637,-1.725 3.658,-2.787c0.921,0.671 1.842,1.296 2.767,1.867c3.613,2.204 7.404,3.775 11.383,4.692c3.979,0.921 8.342,1.388 13.096,1.388l144.704,0c-1.367,10.262 -3.25,19.383 0.746,27.337c3.979,7.975 10.1,14.217 18.383,18.725c8.263,4.529 21.467,6.796 33.258,6.796c10.729,0 19.583,-1.471 26.542,-4.367c6.975,-2.917 12.138,-6.854 15.525,-11.833c3.363,-4.996 5.038,-10.546 5.038,-16.667c0,-3.833 -0.713,-7.504 -2.183,-11.033c-1.45,-3.529 -3.163,-6.508 -5.162,-8.958l34.475,0c11.179,0 21.892,-0.958 32.171,-2.875c9.062,-1.692 17.3,-3.979 24.821,-6.8c1.1,0.579 2.204,1.133 3.312,1.637c4.671,2.142 9.629,3.796 14.829,4.937c5.204,1.142 10.875,1.958 16.996,2.408c6.138,0.471 13.033,0.692 20.683,0.692l12.179,0l0,-0.038c3.892,-0.05 7.408,-0.362 10.446,-1c3.304,-0.675 6.325,-1.9 9.079,-3.675c2.75,-1.754 5.467,-4.158 8.158,-7.242c1.679,-1.921 3.467,-4.217 5.338,-6.808c3.35,3.079 7.025,6.013 11.083,8.767c5.979,4.062 12.425,7.346 19.321,9.875c6.875,2.529 13.808,3.958 20.788,4.263c6.975,0.308 13.546,-0.65 19.767,-2.875Z" style="fill:#231f20;fill-rule:nonzero;"/><rect x="2014.55" y="2310.292" width="28.275" height="170.033" style="fill:#231f20;fill-rule:nonzero;"/><path d="M306.096,2565.146l20.458,20.683l19.525,-20.683l-20.442,-20.913l-19.542,20.913Z" style="fill:#231f20;fill-rule:nonzero;"/><path d="M523.946,2757.025l20.463,20.913l19.521,-20.913l-20.442,-20.683l-19.542,20.683Z" style="fill:#231f20;fill-rule:nonzero;"/><path d="M563.929,2757.025l20.462,20.913l19.296,-20.913l-20.458,-20.683l-19.3,20.683Z" style="fill:#231f20;fill-rule:nonzero;"/><path d="M674.904,2546.988l20.462,20.687l19.296,-20.687l-20.458,-20.908l-19.3,20.908Z" style="fill:#231f20;fill-rule:nonzero;"/><path d="M634.921,2546.988l20.463,20.687l19.521,-20.687l-20.442,-20.908l-19.542,20.908Z" style="fill:#231f20;fill-rule:nonzero;"/><path d="M687.654,2653.721c-3.896,0.55 -7.854,0.817 -11.833,0.817c-5.504,0 -9.913,-0.571 -13.217,-1.733c-3.283,-1.142 -5.692,-2.796 -7.221,-4.937c-1.55,-2.142 -2.308,-4.671 -2.308,-7.587c0,-3.513 0.837,-6.958 2.533,-10.325c1.671,-3.388 4.058,-6.221 7.117,-8.504c3.063,-2.308 6.592,-3.45 10.567,-3.45c4.45,0 8.204,1.45 11.263,4.367c3.058,2.917 5.588,6.733 7.587,11.483c1.979,4.754 3.45,9.958 4.367,15.629c0.133,0.812 0.183,1.621 0.296,2.433c-3.029,0.758 -6.067,1.392 -9.15,1.808Zm-333.888,30.904c-8.117,0 -14.054,-0.917 -17.808,-2.754c-3.754,-1.833 -5.629,-4.508 -5.629,-8.038c0,-1.996 0.817,-4.138 2.429,-6.425c1.587,-2.304 4.425,-4.792 8.483,-7.488c4.062,-2.671 9.771,-5.587 17.137,-8.729c3.596,-1.529 7.737,-3.146 12.404,-4.85l0,34.612c0,0.704 0.1,1.408 0.125,2.112c-3.396,0.596 -6.504,0.996 -9.325,1.213c-2.9,0.246 -5.508,0.346 -7.817,0.346Zm366.754,15.975c0.996,-7.425 1.792,-14.975 2.404,-22.625c0.613,-7.671 0.921,-14.483 0.921,-20.458c0,-13.933 -2.063,-25.887 -6.204,-35.846c-4.142,-9.954 -9.912,-17.646 -17.337,-23.092c-7.446,-5.425 -15.892,-8.158 -25.4,-8.158c-6.283,0 -12.342,1.346 -18.154,4.017c-5.817,2.696 -11.017,6.487 -15.629,11.383c-4.587,4.896 -8.242,10.65 -10.913,17.237c-2.671,6.592 -4.017,13.854 -4.017,21.829c0,5.367 0.917,10.179 2.754,14.463c1.833,4.304 4.671,7.979 8.504,11.037c3.837,3.058 8.55,5.488 14.137,7.242c5.592,1.754 12.2,2.633 19.871,2.633c7.363,0 14.788,-0.942 22.296,-2.858c1.371,-0.35 2.687,-0.763 4.008,-1.171c-0.079,2.592 -0.196,5.096 -0.337,7.475c-0.163,2.45 -0.388,5.367 -0.692,8.733l-96.267,0c-4.283,0 -8.346,-0.267 -12.179,-0.796c-3.837,-0.533 -7.425,-1.35 -10.792,-2.408c-0.217,-0.071 -0.408,-0.154 -0.621,-0.225c2.417,-6.104 4.675,-12.371 6.596,-18.971c2.592,-8.958 5.042,-18.808 7.346,-29.521l-32.863,11.488c-0.146,4.142 -0.654,8.875 -1.492,14.237c-0.837,5.367 -1.796,10.467 -2.875,15.279c-1.062,4.837 -2.062,8.467 -2.979,10.917l-131.333,0c-8.142,0 -13.529,-1.492 -16.221,-4.471c-2.671,-2.996 -4.017,-7.771 -4.017,-14.358l0,-74.908l-28.254,0l0,17.967c-8.504,3.513 -16.279,6.908 -23.217,10.163c-9.954,4.692 -18.3,9.362 -25.05,14.037c-6.733,4.671 -11.833,9.792 -15.279,15.379c-3.45,5.592 -5.162,11.996 -5.162,19.196c0,7.65 2.304,14.2 6.896,19.646c4.587,5.425 10.833,9.608 18.725,12.525c7.875,2.896 16.729,4.367 26.542,4.367c6.896,0 12.933,-0.571 18.154,-1.733c2.179,-0.479 4.425,-1.117 6.713,-1.854c2.871,3.408 6.813,6.192 11.896,8.3c5.363,2.225 12.321,3.325 20.908,3.325l148.8,0c2.004,-3.004 3.829,-5.983 5.567,-8.954c0.067,0.033 0.121,0.067 0.183,0.1c4.896,2.529 10.692,4.65 17.342,6.325c6.671,1.692 14.525,2.529 23.562,2.529l109.829,0c1.225,-5.508 2.329,-11.975 3.329,-19.421Z" style="fill:#231f20;fill-rule:nonzero;"/><path d="M1001.933,2601.458l-20.437,-20.687l-19.3,20.687l20.442,20.683l19.296,-20.683Z" style="fill:#231f20;fill-rule:nonzero;"/><path d="M981.496,2567.675l-20.463,-20.687l-19.521,20.687l20.437,20.683l19.546,-20.683Z" style="fill:#231f20;fill-rule:nonzero;"/><path d="M942.654,2622.142l19.542,-20.683l-20.462,-20.687l-19.521,20.687l20.442,20.683Z" style="fill:#231f20;fill-rule:nonzero;"/><path d="M1096.408,2692.442l-34.946,0c-2.754,0 -5.446,-0.104 -8.038,-0.35c-2.612,-0.225 -5.1,-0.571 -7.488,-1.017c-0.212,-0.046 -0.404,-0.104 -0.612,-0.146c0.087,-1.067 0.221,-2.142 0.288,-3.2c0.592,-10.487 0.446,-20.75 -0.471,-30.783c-0.917,-10.037 -2.058,-19.788 -3.446,-29.296l-31.704,21.358c2.45,5.671 4.429,10.771 5.979,15.279c1.508,4.529 2.854,8.937 4.017,13.221c1.142,4.283 2.246,9.279 3.325,14.933l-29.192,0c-11.363,0 -20.875,-1.85 -28.742,-5.362c0.342,-0.821 0.733,-1.625 1.058,-2.454c2.367,-5.975 4.492,-12.483 6.325,-19.521c1.838,-7.038 3.671,-15.012 5.508,-23.908l-33.088,11.504c0,4.592 -0.308,9.446 -0.921,14.587c-0.608,5.142 -1.367,9.912 -2.283,14.362c-0.937,4.446 -2.079,8.038 -3.446,10.792l-21.604,0c-5.846,0 -11.283,-0.538 -16.367,-1.575c0.925,-2.071 1.858,-4.133 2.7,-6.242c2.367,-5.975 4.467,-12.483 6.3,-19.521c1.837,-7.038 3.696,-15.012 5.529,-23.908l-33.087,11.504c-0.163,4.592 -0.508,9.383 -1.042,14.362c-0.529,4.979 -1.262,9.692 -2.183,14.117c-0.917,4.446 -2.058,8.2 -3.446,11.262l-30.092,0c-4.446,0 -8.038,-0.533 -10.808,-1.613c-2.754,-1.063 -5.204,-2.896 -7.346,-5.508c-2.142,-2.592 -4.529,-6.121 -7.121,-10.567l-30.333,-51.696l-21.133,26.196l17.675,25.958l-0.458,-0.233c2.304,3.383 4.408,6.487 6.325,9.3c1.917,2.837 3.446,5.754 4.587,8.733c1.163,2.996 1.738,6.487 1.738,10.462c0,8.425 -1.921,15.933 -5.754,22.521c-3.817,6.592 -9.121,11.754 -15.85,15.504c-6.733,3.754 -14.546,5.633 -23.442,5.633c-3.975,0 -8.504,-0.612 -13.546,-1.838c-5.058,-1.225 -10.2,-2.837 -15.4,-4.833l-9.65,18.625c6.733,5.362 14.017,9.342 21.829,11.954c7.812,2.592 15.013,3.896 21.604,3.896c9.179,0 17.296,-1.529 24.354,-4.592c7.038,-3.058 13.158,-7.117 18.383,-12.179c5.2,-5.058 9.446,-10.687 12.75,-16.887c3.283,-6.204 5.771,-12.608 7.467,-19.2c0.571,-2.221 1.008,-4.392 1.387,-6.533c2.625,1.204 5.329,2.179 8.158,2.863c4.367,1.083 9.221,1.613 14.583,1.613l38.821,0c1.462,-2.142 2.754,-4.2 4.071,-6.267c3.513,1.413 7.404,2.675 11.783,3.738c6.896,1.692 15.012,2.529 24.354,2.529l23.217,0c2.688,-4.075 5.054,-7.971 7.283,-11.787c1.725,0.979 3.462,1.962 5.346,2.933c4.917,2.529 10.688,4.65 17.358,6.325c6.65,1.692 14.504,2.529 23.542,2.529l38.842,0c0.367,-1.25 0.65,-2.479 0.983,-3.721c2.55,0.742 5.246,1.413 8.096,2.008c5.588,1.142 11.913,1.712 18.95,1.712l1.838,0l0,-0.004c0,0 0.012,0.004 0.021,0.004l54.917,0l0,-170.033l-28.254,0l0,142.454Z" style="fill:#231f20;fill-rule:nonzero;"/><rect x="1159.583" y="2549.988" width="28.275" height="170.033" style="fill:#231f20;fill-rule:nonzero;"/><path d="M1333.088,2613.413l19.521,-20.688l-20.442,-20.683l-19.521,20.683l20.442,20.688Z" style="fill:#231f20;fill-rule:nonzero;"/><path d="M1428.212,2617.083l-25.033,25.275c5.204,8.567 9.446,16.892 12.75,24.929c3.283,8.038 5.163,16.421 5.629,25.154l-97.429,0c-7.671,0 -14.483,-0.758 -20.458,-2.287c-5.979,-1.529 -10.65,-4.221 -14.017,-8.058c-3.367,-3.813 -5.058,-9.179 -5.058,-16.075c0,-4.283 0.613,-9.037 1.837,-14.237c1.221,-5.221 3.446,-11.567 6.671,-19.075l-21.363,-9.65c-5.671,9.958 -9.667,19.096 -11.954,27.458c-2.304,8.346 -3.446,15.892 -3.446,22.625c0,14.708 5.2,26.192 15.625,34.475c10.404,8.263 25.725,12.404 45.963,12.404l120.4,0c5.2,-14.404 7.65,-27.6 7.342,-39.638c-0.304,-12.017 -2.179,-23.233 -5.629,-33.658c-3.446,-10.425 -7.383,-20.3 -11.829,-29.642Z" style="fill:#231f20;fill-rule:nonzero;"/><path d="M1392.367,2592.725l-20.437,-20.683l-19.321,20.683l20.462,20.688l19.296,-20.688Z" style="fill:#231f20;fill-rule:nonzero;"/><path d="M1371.929,2558.942l-20.463,-20.683l-19.525,20.683l20.442,20.687l19.546,-20.687Z" style="fill:#231f20;fill-rule:nonzero;"/><path d="M1815.121,2617.083l-25.05,25.275c5.367,8.567 9.65,16.892 12.871,24.929c3.204,8.038 5.042,16.421 5.508,25.154l-48.713,0c-6.142,0 -11.221,-0.371 -15.279,-1.146c-4.063,-0.754 -7.325,-1.996 -9.771,-3.671c-1.354,-0.937 -2.563,-2.042 -3.683,-3.258c0.229,-0.096 0.475,-0.213 0.704,-0.313c6.283,-2.671 11.483,-4.242 15.625,-4.712l0.225,-24.113c-6.283,0 -12.483,-1.304 -18.604,-3.917c-6.142,-2.608 -12.262,-5.771 -18.4,-9.525c-6.121,-3.754 -12.404,-7.55 -18.829,-11.383c-6.446,-3.837 -13.079,-7.037 -19.892,-9.65c-6.812,-2.613 -14.054,-3.917 -21.704,-3.917c-6.283,0 -12.446,1.204 -18.504,3.571c-6.038,2.387 -11.792,6.242 -17.237,11.608c-5.425,5.363 -10.362,12.625 -14.808,21.825l18.846,9.65c4.429,-7.508 9.038,-12.483 13.771,-14.933c4.754,-2.446 9.425,-3.671 14.038,-3.671c4.587,0 9.258,0.712 14.013,2.183c4.733,1.45 9.608,3.325 14.587,5.629c4.975,2.287 10.138,4.733 15.504,7.346c5.362,2.608 10.871,5.058 16.542,7.362c-1.058,0.612 -2.262,1.225 -3.55,1.838c-1.304,0.612 -2.567,1.262 -3.792,1.937c-1.225,0.692 -2.529,1.429 -3.917,2.183c-5.058,2.775 -10.304,5.325 -15.729,7.712c-5.446,2.363 -11.729,4.404 -18.85,6.079c-7.121,1.692 -15.708,2.996 -25.746,3.917c-10.013,0.917 -22.171,1.367 -36.413,1.367l-78.467,0c-4.142,0 -7.467,-0.371 -9.996,-1.146c-2.529,-0.754 -4.446,-1.917 -5.75,-3.446c-1.308,-1.529 -2.225,-3.571 -2.754,-6.079c-0.533,-2.529 -0.796,-5.571 -0.796,-9.079l0,-122.704l-28.275,0l0,131.192c0,5.833 0.692,11.158 2.058,15.975c1.388,4.833 3.654,8.933 6.796,12.3c3.142,3.367 7.342,5.975 12.625,7.812c5.283,1.837 11.833,2.754 19.646,2.754l83.3,0c16.096,0 30.029,-0.754 41.821,-2.304c11.792,-1.533 21.992,-3.55 30.558,-6.079c8.588,-2.529 16.096,-5.283 22.521,-8.283c6.45,-2.979 12.425,-5.937 17.933,-8.833c0.338,-0.179 0.65,-0.333 0.983,-0.508c2.429,5.275 5.263,9.729 8.542,13.258c4.063,4.367 9.346,7.588 15.871,9.65c6.508,2.058 14.588,3.1 24.238,3.1l65.729,0c5.038,-14.404 7.425,-27.6 7.117,-39.638c-0.304,-12.017 -2.183,-23.233 -5.629,-33.658c-3.446,-10.425 -7.404,-20.3 -11.833,-29.642Z" style="fill:#231f20;fill-rule:nonzero;"/><path d="M1784.096,2757.025l20.683,20.913l19.3,-20.913l-20.462,-20.683l-19.521,20.683Z" style="fill:#231f20;fill-rule:nonzero;"/><path d="M1895.071,2549.071l-12.404,0c-5.367,0 -8.954,-0.858 -10.792,-2.529c-1.838,-1.696 -2.754,-3.45 -2.754,-5.283c0,-2 0.713,-3.654 2.183,-4.958c1.446,-1.287 3.629,-1.937 6.546,-1.937c1.533,0 3.021,0.142 4.471,0.446c1.467,0.308 2.958,0.779 4.488,1.388l5.733,-13.342c-2.146,-1.221 -4.592,-2.142 -7.346,-2.754c-2.754,-0.608 -5.588,-0.917 -8.508,-0.917c-6.892,0 -12.483,1.917 -16.767,5.754c-4.283,3.833 -6.425,8.812 -6.425,14.933c0,1.692 0.225,3.325 0.671,4.933c0.471,1.613 1.162,3.042 2.083,4.267l-6.896,0l0,15.154l45.717,0l0,-15.154Z" style="fill:#231f20;fill-rule:nonzero;"/><path d="M2014.796,2549.988l0,142.454l-30.333,0c-8.121,0 -13.283,-1.533 -15.504,-4.592c-2.225,-3.058 -3.346,-7.812 -3.346,-14.237l0,-123.625l-28.254,0l0,102.812c-4.821,-5.233 -10.263,-10.933 -16.321,-17.112c-8.117,-8.263 -17.3,-17.258 -27.558,-26.988c-10.283,-9.733 -21.767,-20.117 -34.475,-31.154l-5.283,30.562c7.812,6.588 15.5,13.217 23.092,19.888c7.588,6.65 14.808,13.242 21.704,19.75c6.896,6.525 13.342,12.829 19.321,18.971c5.667,5.825 10.837,11.392 15.55,16.733c-2.179,1.838 -4.588,3.362 -7.292,4.521c-4.138,1.754 -8.504,2.938 -13.096,3.55c-4.587,0.612 -8.954,0.921 -13.096,0.921l-43.433,0l5.287,27.579l25.5,0c12.563,0 23.333,-0.654 32.292,-1.958c8.954,-1.287 16.358,-3.408 22.175,-6.325c1.612,-0.804 3.104,-1.696 4.512,-2.638c2.896,3.079 6.667,5.638 11.458,7.596c5.429,2.225 12.525,3.325 21.258,3.325l64.096,0l0,-170.033l-28.254,0Z" style="fill:#231f20;fill-rule:nonzero;"/><path d="M1813.683,938.942c147.317,-52.192 253.021,-192.346 253.021,-357.542c0,-209.637 -169.942,-379.588 -379.567,-379.633l-379.642,-0l0,253.087l506.187,0l0,484.088Z" style="fill:#231f20;fill-rule:nonzero;"/><path d="M1813.683,983.138l0,485.133l-506.187,0l0,252.05l379.642,0l0,-0.004c209.625,-0.042 379.567,-169.996 379.567,-379.638c0,-165.192 -105.704,-305.346 -253.021,-357.542Z" style="fill:#231f20;fill-rule:nonzero;"/><path d="M801.308,1468.271l-126.621,0l0,-1013.417l126.621,-0l0,1013.417Zm506.113,-1013.417l-275.154,-0c-52.179,-147.35 -192.363,-253.087 -357.579,-253.087c-209.675,0 -379.642,169.967 -379.642,379.633l0,759.279c0,209.671 169.967,379.642 379.642,379.642c165.217,0 305.4,-105.742 357.579,-253.096l22.062,0l0,1.046l253.092,0l0,-1013.417Z" style="fill:#231f20;fill-rule:nonzero;"/><path d="M1307.421,1340.679l0,127.592l0.075,0l0,-126.025c0,-0.529 -0.075,-1.037 -0.075,-1.567Z" style="fill:#231f20;fill-rule:nonzero;"/><path d="M1307.496,579.833l0,-124.979l-0.075,0l0,126.546c0,-0.529 0.075,-1.038 0.075,-1.567Z" style="fill:#231f20;fill-rule:nonzero;"/><path d="M1307.496,1339.112l0,-756.146c0,-0.529 -0.075,-1.037 -0.075,-1.567l0,759.279c0,-0.529 0.075,-1.037 0.075,-1.567Z" style="fill:#231f20;fill-rule:nonzero;"/><path d="M1307.421,1468.271l0,-1013.417l0,1013.417Z" style="fill:#231f20;fill-rule:nonzero;"/><path d="M345.792,2037.821c3.646,4.054 8.871,6.067 15.671,6.067c6.8,0 12.025,-2.013 15.663,-6.067c3.638,-4.05 5.458,-9.829 5.458,-17.362l0,-76.138c0,-7.521 -1.821,-13.292 -5.458,-17.296c-3.638,-4.017 -8.862,-6.017 -15.663,-6.017c-6.8,0 -12.025,2 -15.671,6.017c-3.638,4.004 -5.462,9.775 -5.462,17.296l0,76.138c0,7.533 1.825,13.312 5.462,17.362Zm54.221,22.346c-9.917,9.462 -22.771,14.2 -38.55,14.2c-15.792,0 -28.654,-4.738 -38.617,-14.2c-9.954,-9.479 -14.937,-21.858 -14.937,-37.163l0,-82.321c0,-14.892 4.983,-26.996 14.937,-36.308c9.962,-9.313 22.825,-13.967 38.617,-13.967c15.862,0 28.729,4.679 38.608,14.025c9.879,9.346 14.817,21.513 14.817,36.488l0,82.329c0,15.142 -4.962,27.437 -14.875,36.917Z" style="fill:#231f20;fill-rule:nonzero;"/><path d="M478.208,1923.438l0,49.538l18.942,0c7.525,0 13.208,-1.917 17.058,-5.767c3.842,-3.838 5.771,-9.358 5.771,-16.575l0,-4.737c0,-7.2 -1.929,-12.746 -5.771,-16.633c-3.85,-3.883 -9.533,-5.825 -17.058,-5.825l-18.942,0Zm48.083,148.504l-31.7,-68.367l-16.383,0l0,68.367l-32.304,0l0,-179.104l55.488,0c14.988,0 27.225,4.796 36.738,14.392c9.513,9.596 14.271,22.033 14.271,37.342l0,7.283c0,10.2 -2.45,19.287 -7.354,27.258c-4.896,7.975 -11.433,14.146 -19.604,18.517l35.571,74.313l-34.721,0Z" style="fill:#231f20;fill-rule:nonzero;"/><rect x="582.563" y="1892.838" width="32.304" height="179.104" style="fill:#231f20;fill-rule:nonzero;"/><path d="M751.158,1923.438l-70.179,0l0,40.558l64.954,0l0,30.6l-64.954,0l0,46.746l70.179,0l0,30.6l-102.483,0l0,-179.104l102.483,0l0,30.6Z" style="fill:#231f20;fill-rule:nonzero;"/><path d="M853.592,1892.838l31.083,0l0,179.104l-34.613,0l-42.258,-116.333l0,116.333l-30.596,0l0,-179.104l38.25,0l38.133,105.275l0,-105.275Z" style="fill:#231f20;fill-rule:nonzero;"/><path d="M1016.346,1892.838l0,30.6l-39.588,0l0,148.504l-32.296,0l0,-148.504l-39.588,0l0,-30.6l111.471,0Z" style="fill:#231f20;fill-rule:nonzero;"/><rect x="1180.892" y="1892.838" width="32.304" height="179.104" style="fill:#231f20;fill-rule:nonzero;"/><path d="M1323.388,1892.838l31.083,0l0,179.104l-34.613,0l-42.254,-116.333l0,116.333l-30.6,0l0,-179.104l38.25,0l38.133,105.275l0,-105.275Z" style="fill:#231f20;fill-rule:nonzero;"/><path d="M1435.629,2074.367c-17.079,0 -30.646,-5.425 -40.679,-16.262c-10.033,-10.85 -14.854,-24.654 -14.45,-41.417l31.579,0c-0.083,8.592 1.954,15.258 6.125,20.046c4.171,4.775 9.975,7.154 17.425,7.154c6.8,0 12.288,-1.979 16.454,-5.946c4.171,-3.971 6.258,-8.696 6.258,-14.204c0,-4.621 -1.221,-8.504 -3.65,-11.658c-2.429,-3.163 -6.267,-6.075 -11.525,-8.742l-25.625,-13.479c-10.933,-5.746 -19.512,-12.771 -25.742,-21.062c-6.242,-8.304 -9.358,-17.592 -9.358,-27.875c0,-14.725 5.083,-26.833 15.246,-36.296c10.154,-9.479 22.971,-14.217 38.429,-14.217c16.346,0 29.4,4.879 39.162,14.629c9.75,9.763 14.629,23.137 14.629,40.137l-31.567,0c-0.25,-7.854 -2.288,-13.85 -6.138,-17.971c-3.85,-4.125 -9.121,-6.196 -15.837,-6.196c-6.729,0 -11.767,1.8 -15.129,5.4c-3.354,3.613 -5.033,7.913 -5.033,12.937c0,4.692 1.35,8.517 4.063,11.479c2.713,2.95 7.025,5.921 12.937,8.921l26.829,13.967c10.033,5.175 17.887,11.858 23.562,20.029c5.663,8.175 8.496,17.321 8.496,27.45c0,6.954 -1.329,13.633 -4.004,20.029c-2.679,6.4 -6.4,12.062 -11.171,17c-4.775,4.942 -10.746,8.862 -17.912,11.775c-7.167,2.917 -14.95,4.371 -23.375,4.371Z" style="fill:#231f20;fill-rule:nonzero;"/><path d="M1616.133,1892.838l0,30.6l-39.592,0l0,148.504l-32.292,0l0,-148.504l-39.592,0l0,-30.6l111.475,0Z" style="fill:#231f20;fill-rule:nonzero;"/><rect x="1636.458" y="1892.838" width="32.304" height="179.104" style="fill:#231f20;fill-rule:nonzero;"/><path d="M1800.567,1892.838l0,30.6l-39.592,0l0,148.504l-32.292,0l0,-148.504l-39.592,0l0,-30.6l111.475,0Z" style="fill:#231f20;fill-rule:nonzero;"/><path d="M1910.2,2060.167c-9.912,9.462 -22.767,14.2 -38.546,14.2c-15.792,0 -28.658,-4.738 -38.621,-14.2c-9.95,-9.479 -14.938,-21.858 -14.938,-37.163l0,-130.167l32.425,0l0,127.621c0,7.533 1.825,13.312 5.463,17.362c3.646,4.054 8.871,6.067 15.671,6.067c6.8,0 12.025,-2.013 15.658,-6.067c3.638,-4.05 5.463,-9.829 5.463,-17.362l0,-127.621l32.304,0l0,130.412c0,15.142 -4.963,27.437 -14.879,36.917Z" style="fill:#231f20;fill-rule:nonzero;"/><path d="M2054.096,1892.838l0,30.6l-39.588,0l0,148.504l-32.296,0l0,-148.504l-39.587,0l0,-30.6l111.471,0Z" style="fill:#231f20;fill-rule:nonzero;"/><path d="M362.671,2250.238c7.771,0 13.787,-2.167 18.029,-6.492c4.254,-4.338 6.388,-10.308 6.388,-17.912c0,-7.533 -2.075,-13.171 -6.196,-16.942c-4.133,-3.767 -10.129,-5.65 -17.971,-5.65l-19.912,0l0,46.996l19.663,0Zm-3.033,-117.904l-16.629,0l0,40.313l19.912,0c6.633,0 11.725,-1.837 15.292,-5.517c3.567,-3.687 5.342,-8.887 5.342,-15.604c0,-6.804 -1.883,-11.708 -5.638,-14.692c-3.767,-2.996 -9.854,-4.5 -18.279,-4.5Zm36.912,55.013c7.288,3.388 12.879,8.175 16.763,14.321c3.887,6.15 5.833,14.738 5.833,25.742c0,15.946 -5.158,28.833 -15.429,38.679c-10.279,9.833 -24.85,14.75 -43.712,14.75l-49.304,0l0,-179.104l55.254,0c16.025,0 28.312,4.217 36.85,12.629c8.542,8.421 12.808,20.162 12.808,35.221c0,8.908 -1.683,16.675 -5.033,23.308c-3.367,6.633 -8.033,11.458 -14.029,14.454Z" style="fill:#231f20;fill-rule:nonzero;"/><path d="M750.721,2132.333l-70.179,0l0,40.558l64.954,0l0,30.6l-64.954,0l0,46.746l70.179,0l0,30.6l-102.483,0l0,-179.104l102.483,0l0,30.6Z" style="fill:#231f20;fill-rule:nonzero;"/><rect x="977.029" y="2101.733" width="32.304" height="179.104" style="fill:#231f20;fill-rule:nonzero;"/><path d="M1278.967,2132.333l0,49.542l18.942,0c7.521,0 13.208,-1.921 17.058,-5.771c3.837,-3.833 5.767,-9.354 5.767,-16.571l0,-4.742c0,-7.2 -1.929,-12.746 -5.767,-16.633c-3.85,-3.883 -9.538,-5.825 -17.058,-5.825l-18.942,0Zm48.083,148.504l-31.7,-68.367l-16.383,0l0,68.367l-32.308,0l0,-179.104l55.488,0c14.987,0 27.225,4.796 36.737,14.392c9.512,9.596 14.275,22.033 14.275,37.342l0,7.283c0,10.2 -2.454,19.292 -7.358,27.258c-4.892,7.975 -11.429,14.146 -19.604,18.517l35.575,74.313l-34.721,0Z" style="fill:#231f20;fill-rule:nonzero;"/><path d="M1689.792,2269.062c-9.917,9.462 -22.771,14.2 -38.55,14.2c-15.788,0 -28.654,-4.738 -38.617,-14.2c-9.95,-9.479 -14.937,-21.858 -14.937,-37.162l0,-130.167l32.421,0l0,127.621c0,7.533 1.825,13.313 5.462,17.363c3.65,4.054 8.875,6.067 15.671,6.067c6.8,0 12.025,-2.013 15.663,-6.067c3.637,-4.05 5.463,-9.829 5.463,-17.363l0,-127.621l32.304,0l0,130.412c0,15.142 -4.963,27.438 -14.879,36.917Z" style="fill:#231f20;fill-rule:nonzero;"/><path d="M2054.096,2101.733l0,30.6l-39.588,0l0,148.504l-32.296,0l0,-148.504l-39.587,0l0,-30.6l111.471,0Z" style="fill:#231f20;fill-rule:nonzero;"/></g></svg>