<?xml version="1.0" encoding="UTF-8" standalone="no"?>
<svg
   width="1800"
   height="1519"
   viewBox="0 0 1800 1519"
   version="1.1"
   xml:space="preserve"
   style="clip-rule:evenodd;fill-rule:evenodd;stroke-linejoin:round;stroke-miterlimit:2"
   id="svg7"
   xmlns="http://www.w3.org/2000/svg"
   xmlns:svg="http://www.w3.org/2000/svg"><defs
     id="defs7" /><g
     id="g7"
     transform="matrix(0.82902039,0,0,0.82902039,174.1776,133.42612)"><path
       d="M 1518.637,737.175 C 1665.954,684.983 1771.658,544.829 1771.658,379.633 1771.658,169.996 1601.716,0.045 1392.091,0 h -379.642 v 253.087 h 506.187 v 484.088 z"
       style="fill:#231f20;fill-rule:nonzero"
       id="path1" /><path
       d="m 1518.637,781.371 v 485.133 H 1012.45 v 252.05 h 379.642 v 0 c 209.625,-0.042 379.567,-169.996 379.567,-379.638 0,-165.192 -105.704,-305.346 -253.021,-357.542 z"
       style="fill:#231f20;fill-rule:nonzero"
       id="path2" /><path
       d="M 506.262,1266.504 H 379.641 V 253.087 H 506.262 Z M 1012.375,253.087 H 737.221 C 685.042,105.737 544.858,0 379.642,0 169.967,0 0,169.967 0,379.633 v 759.279 c 0,209.671 169.967,379.642 379.642,379.642 165.217,0 305.4,-105.742 357.579,-253.096 h 22.062 v 1.046 h 253.092 z"
       style="fill:#231f20;fill-rule:nonzero"
       id="path3" /><path
       d="m 1012.375,1138.912 v 127.592 h 0.075 v -126.025 c 0,-0.529 -0.075,-1.037 -0.075,-1.567 z"
       style="fill:#231f20;fill-rule:nonzero"
       id="path4" /><path
       d="M 1012.45,378.067 V 253.088 h -0.075 v 126.546 c 0,-0.529 0.075,-1.038 0.075,-1.567 z"
       style="fill:#231f20;fill-rule:nonzero"
       id="path5" /><path
       d="M 1012.45,1137.346 V 381.2 c 0,-0.529 -0.075,-1.037 -0.075,-1.567 v 759.279 c 0,-0.529 0.075,-1.037 0.075,-1.567 z"
       style="fill:#231f20;fill-rule:nonzero"
       id="path6" /><path
       d="M 1012.375,1266.504 V 253.087 Z"
       style="fill:#231f20;fill-rule:nonzero"
       id="path7" /></g></svg>
