<?xml version="1.0" encoding="UTF-8"?>
<svg id="Layer_1" xmlns="http://www.w3.org/2000/svg" version="1.1" viewBox="0 0 2889.3428853 954.6245266">
  <!-- Generator: Adobe Illustrator 30.3.0, SVG Export Plug-In . SVG Version: 2.1.3 Build 182)  -->
  <defs>
    <style>
      .st0 {
        fill: #231f20;
      }
    </style>
  </defs>
  <path class="st0" d="M975.3652903,914.6140501h-70.5360107c-40.3259888,0-73.0189819-32.6919999-73.0189819-73.0189957V112.1820143c0-40.3300171,32.6929932-73.0189819,73.0189819-73.0189819h70.5360107c40.3259888,0,73.0189819,32.6889648,73.0189819,73.0189819v729.4130402c0,40.3269958-32.6929932,73.0189957-73.0189819,73.0189957"/>
  <path class="st0" d="M387.6582896,40.0110548c105.8429871,63.4609985,178.0589905,209.125,178.0589905,421.5299988,0,223.6880188-77.4889832,385.6499939-192.946991,453.92099h255.4300232c40.3289795,0,73.0209351-32.6900024,73.0209351-73.0189819V113.0300367c0-40.3269653-32.6919556-73.0189819-73.0209351-73.0189819h-240.5420227Z"/>
  <path class="st0" d="M248.231486,881.3963507c-116.637001,0-177.5379944-130.8879967-177.5379944-399.1229973,0-277.3209534,66.0929947-408.1959534,181.4259949-408.1959534,114.0349884,0,176.2299957,130.875,176.2299957,399.1229248,0,277.3080292-66.0789795,408.1960258-180.1179962,408.1960258"/>
  <path class="st0" d="M1313.6336008,908.77225h140.2080078v-12.0489988h-27.3840332c-17.1619873,0-24.098999-5.1119995-24.098999-28.1150017v-175.2609978c0-21.9069977,9.4940186-28.1139984,24.098999-28.1139984h27.3840332v-12.0490112h-140.2080078v12.0490112h27.3839111c14.6051025,0,24.0980225,6.2070007,24.0980225,28.1139984v175.2609978c0,23.0030022-6.9370117,28.1150017-24.0980225,28.1150017h-27.3839111v12.0489988ZM1547.3085276,914.61425c45.6409912,0,71.5650635-22.2729988,71.5650635-54.7689972,0-24.0980072-14.2399902-40.1640091-40.1640625-46.3710022l-37.6079102-8.7630005c-20.4470215-4.7470016-25.9240723-13.1450043-25.9240723-24.0979919,0-18.2570038,15.335083-27.0200043,37.243042-27.0200043,23.0029297,0,46.3709717,9.4929962,46.3709717,36.8779907h11.68396v-41.6249847c-16.0649414-7.302002-34.6868896-10.9530029-52.2128906-10.9530029-44.5450439,0-71.9300537,20.446991-71.9300537,50.7519913,0,21.1780014,13.5100098,37.2429962,42.3549805,44.1809998l37.243042,9.1279984c18.6209717,4.7470016,25.1939697,16.0650063,25.1939697,27.7500038,0,18.6209984-16.4310303,29.2099991-41.9899902,29.2099991-25.9239502,0-50.3869629-11.3199997-52.2130127-46.0059967h-11.68396v43.4499969c11.68396,9.1280003,36.1469727,18.2560005,62.0709229,18.2560005M1747.7576243,914.61425c37.2429199,0,62.0720215-19.7169991,64.6279297-55.8639984h-9.8590088c-5.4769287,23.7329979-23.7330322,32.4959984-43.8150635,32.4959984-25.9238281,0-37.2429199-13.875-37.2429199-37.243v-94.932991h82.519043v-18.2559967h-82.519043v-42.3540039h-30.6710205v18.2549896c0,18.9869995-6.2069092,28.1150055-32.1309814,28.1150055h-21.5419922v14.2400055h51.4830322v102.234993c0,37.6089973,25.55896,53.3089981,59.1500244,53.3089981M1882.484553,914.61425c30.6700439,0,53.6739502-19.7169991,59.8809814-35.7820015h1.0949707v3.651001c0,22.2720003,13.5090332,32.1310005,31.401123,32.1310005,25.1928711,0,37.9719238-20.4469986,38.3378906-43.8149986h-8.7629395c-1.4609375,12.0489998-6.9370117,20.0809975-17.1610107,20.0809975s-15.7000732-8.0319977-15.335083-22.6369972l1.0950928-83.9790077c.3649902-27.7499847-24.8280029-46.3709869-62.4360352-46.3709869-39.0689697,0-68.6439209,19.7169952-68.6439209,46.7359924,0,14.2399979,7.6679688,20.0820007,18.2558594,20.0820007,12.4140625,0,18.2561035-7.6679993,18.2561035-18.621994,0-3.651001-1.0949707-8.3970032-1.0949707-12.4140015,0-15.3350067,11.68396-23.003006,30.3049316-23.003006,22.6379395,0,32.4970703,12.0490112,32.4970703,37.6080017v29.2099991l-58.4210205,9.8590012c-31.4000244,5.1110001-46.7349854,23.3679962-46.7349854,46.3710022,0,24.0979958,17.1599121,40.8939972,47.4659424,40.8939972M1868.2445627,869.7042501c0-16.7959976,10.5880127-28.4810066,32.1309814-32.132l39.7990723-6.9370041v21.5420036c0,21.5430031-18.2570801,42.3549995-44.9111328,42.3549995-16.7958984,0-27.0189209-8.3979988-27.0189209-24.8279991M2029.2595774,908.77225h90.9169922v-10.9540014h-9.1290283c-12.7789307,0-19.3509521-4.3809986-19.3509521-16.7959976v-75.2160072c0-28.4789963,20.8120117-44.5449905,40.894043-44.5449905,18.2558594,0,33.9570312,10.2230072,33.9570312,36.8779907v82.883007c0,12.414999-6.5720215,16.7959976-19.3520508,16.7959976h-9.1281738v10.9540014h88.361084v-10.9540014h-8.3979492c-13.5100098,0-18.6220703-4.3809986-18.6220703-16.7959976v-93.4720039c0-28.1149979-21.5419922-49.6569901-52.5778809-49.6569901-23.7329102,0-44.5450439,12.7789917-54.769043,30.6710052h-.7299805l-2.5560303-27.75h-58.0550537v10.9539948h9.1280518c13.5100098,0,18.9859619,4.3809967,18.9859619,18.2559967v110.9979973c0,12.414999-5.8409424,16.7959976-17.5249023,16.7959976h-12.0500488v10.9540014ZM2260.0147044,673.265251v241.348999h8.3979492l16.065918-21.9070015c13.8740234,16.4300013,33.5910645,21.9070015,51.4819336,21.9070015,44.9111328,0,88.361084-34.6870003,88.361084-92.012001,0-49.2919998-30.6711426-84.708992-73.7561035-84.708992-25.5588379,0-46.0048828,12.7789917-56.9589844,28.8450012h-.730957v-121.2220154h-54.769043v10.95401h6.2080078c12.0490723,0,15.7001953,4.0160065,15.7001953,16.7949982M2292.8755442,858.7502516v-76.677002c9.4941406-12.7799988,23.7341309-20.446991,40.8950195-20.446991,30.3049316,0,56.2290039,24.0979919,56.2290039,67.182991,0,45.276001-24.4628906,69.3740005-55.8640137,69.3740005-19.3520508,0-41.2600098-9.8580017-41.2600098-39.4329987M2520.7095286,914.61425c27.3840332,0,47.1010742-14.6049995,56.2290039-32.4959984h.7299805v26.6539984h61.342041v-10.9540014h-10.5888672c-12.4140625,0-18.6210938-4.3809986-18.6210938-16.7959976v-140.2079887h-60.611084v10.9539948h8.3979492c12.7790527,0,19.3510742,5.477005,19.3510742,16.7960052v77.4059906c0,31.0359955-25.1928711,45.2759972-43.8139648,45.2759972-15.3359375,0-29.2099609-9.4939995-29.2099609-32.8619995v-117.5699883h-60.6120605v10.9539948h8.3979492c12.7790527,0,19.3520508,5.477005,19.3520508,16.7960052v95.6629906c0,30.3049965,17.526123,50.3869972,49.6569824,50.3869972M2663.1035715,908.77225h137.2880859v-12.0489988h-21.9082031c-20.0817871,0-30.3059082-9.4939995-30.3059082-27.75v-223.4570084h-85.0739746v12.0490112h25.559082c17.5258789,0,26.6538086,9.4929962,26.6538086,27.75v183.6579971c0,18.2560005-10.223877,27.75-30.3059082,27.75h-21.9069824v12.0489988Z"/>
  <path class="st0" d="M1313.6331126,604.5003431h140.2080078v-12.0489807h-27.3840332c-17.1610107,0-24.0980225-5.1119995-24.0980225-28.1150208v-175.2599792c0-21.90802,9.493042-28.1149902,24.0980225-28.1149902h27.3840332v-12.0490112h-140.2080078v12.0490112h27.3850098c14.6049805,0,24.0979004,6.2069702,24.0979004,28.1149902v175.2599792c0,23.0030212-6.9379883,28.1150208-24.0979004,28.1150208h-27.3850098v12.0489807ZM1485.2371165,604.5003431h90.9160156v-10.9539795h-9.1280518c-12.7790527,0-19.3509521-4.381012-19.3509521-16.7960205v-75.2159729c0-28.4790039,20.8118896-44.5450134,40.8939209-44.5450134,18.2559814,0,33.9560547,10.223999,33.9560547,36.8779907v82.8829956c0,12.4150085-6.5720215,16.7960205-19.3510742,16.7960205h-9.1279297v10.9539795h88.3599854v-10.9539795h-8.3969727c-13.5100098,0-18.6220703-4.381012-18.6220703-16.7960205v-93.4719849c0-28.1139832-21.5419922-49.6570129-52.5780029-49.6570129-23.7329102,0-44.5449219,12.7789917-54.7689209,30.6710205h-.7301025l-2.5559082-27.75h-58.0550537v10.9539795h9.1280518c13.5089111,0,18.9859619,4.381012,18.9859619,18.256012v110.9979858c0,12.4150085-5.8409424,16.7960205-17.5250244,16.7960205h-12.0499268v10.9539795ZM1777.3330637,610.3423536c45.6409912,0,71.5639648-22.2730103,71.5639648-54.7690125,0-24.0979919-14.2390137-40.1639709-40.1629639-46.3710022l-37.6080322-8.7630005c-20.4470215-4.7469788-25.9239502-13.144989-25.9239502-24.0979919,0-18.2569885,15.335083-27.019989,37.243042-27.019989,23.0029297,0,46.3709717,9.4940186,46.3709717,36.8779907h11.68396v-41.6239929c-16.0649414-7.303009-34.6870117-10.95401-52.2128906-10.95401-44.5461426,0-71.9300537,20.4470215-71.9300537,50.7520142,0,21.1779785,13.5100098,37.242981,42.3549805,44.1809998l37.243042,9.1279907c18.6209717,4.7470093,25.1928711,16.0660095,25.1928711,27.75,0,18.6210022-16.4299316,29.2099915-41.9890137,29.2099915-25.9249268,0-50.3879395-11.3190002-52.2128906-46.0059814h-11.684082v43.4499817c11.684082,9.1280212,36.1469727,18.256012,62.0710449,18.256012M1988.0061594,610.3423536c37.2429199,0,62.0709229-19.7170105,64.6269531-55.8640137h-9.8590088c-5.4759521,23.7330017-23.7330322,32.4960022-43.8140869,32.4960022-25.9239502,0-37.2429199-13.875-37.2429199-37.242981v-94.9330139h82.5180664v-18.2559814h-82.5180664v-42.3550415h-30.6710205v18.257019c0,18.9860229-6.2070312,28.1140137-32.1309814,28.1140137h-21.5419922v14.2399902h51.4819336v102.2360229c0,37.6079712,25.559082,53.3079834,59.151123,53.3079834M2086.9500071,604.5003431h137.2871094v-12.0489807h-21.9069824c-20.0820312,0-30.3061523-9.4930115-30.3061523-27.75v-88.3600159c0-18.2569885,9.1281738-27.75,26.6550293-27.75h25.5581055v-12.0489807h-137.2871094v12.0489807h25.559082c17.526123,0,26.6540527,9.4930115,26.6540527,27.75v88.3600159c0,18.2569885-10.2241211,27.75-30.3061523,27.75h-21.9069824v12.0489807ZM2131.1299387,379.2173536c0,14.6049805,10.2231445,24.4639893,24.4641113,24.4639893,13.875,0,24.4631348-9.8590088,24.4631348-24.4639893s-10.5881348-24.8280029-24.4631348-24.8280029c-14.2409668,0-24.4641113,10.2230225-24.4641113,24.8280029M2364.8062083,610.3423536c37.2429199,0,62.0708008-19.7170105,64.6269531-55.8640137h-9.8581543c-5.4768066,23.7330017-23.7329102,32.4960022-43.8149414,32.4960022-25.9240723,0-37.2429199-13.875-37.2429199-37.242981v-94.9330139h82.5180664v-18.2559814h-82.5180664v-42.3550415h-30.6711426v18.257019c0,18.9860229-6.2070312,28.1140137-32.1308594,28.1140137h-21.5419922v14.2399902h51.4819336v102.2360229c0,37.6079712,25.559082,53.3079834,59.151123,53.3079834M2521.4390208,610.3423536c27.3850098,0,47.1020508-14.605011,56.2299805-32.4960022h.7299805v26.6539917h61.3410645v-10.9539795h-10.5878906c-12.4140625,0-18.6220703-4.381012-18.6220703-16.7960205v-140.2079773h-60.6101074v10.9539795h8.3969727c12.7800293,0,19.3520508,5.4769897,19.3520508,16.7960205v77.4060059c0,31.0359802-25.1928711,45.2759705-43.8149414,45.2759705-15.3349609,0-29.2099609-9.492981-29.2099609-32.8609924v-117.5709839h-60.611084v10.9539795h8.3981934c12.7788086,0,19.3518066,5.4769897,19.3518066,16.7960205v95.6629944c0,30.3049927,17.526123,50.3869934,49.6560059,50.3869934M2754.0200754,610.3423536c37.2429199,0,62.0720215-19.7170105,64.6269531-55.8640137h-9.8579102c-5.4770508,23.7330017-23.7331543,32.4960022-43.8149414,32.4960022-25.9240723,0-37.2431641-13.875-37.2431641-37.242981v-94.9330139h82.5180664v-18.2559814h-82.5180664v-42.3550415h-30.6699219v18.257019c0,18.9860229-6.2080078,28.1140137-32.1320801,28.1140137h-21.5419922v14.2399902h51.4821777v102.2360229c0,37.6079712,25.5598145,53.3079834,59.1508789,53.3079834"/>
  <path class="st0" d="M1381.5464426,306.0702589c51.8479004,0,91.2819824-53.3079834,91.2819824-138.0170288,0-82.1539917-38.3389893-128.8899536-86.9000244-128.8899536-51.8480225,0-91.2819824,53.30896-91.2819824,138.0179443,0,82.1530151,38.3389893,128.8890381,86.9000244,128.8890381M1333.3503977,173.8952711c0-78.1370239,18.6209717-115.0150146,51.1169434-115.0150146,32.1311035,0,49.6571045,36.8779907,49.6571045,112.4589844,0,78.1370239-18.6210938,115.0150146-50.7520752,115.0150146-32.8619385,0-50.0219727-36.8779907-50.0219727-112.4589844M1503.493342,300.2292555h122.6820068v-10.9550171h-26.2889404c-18.9859619,0-26.6540527-6.9370117-26.6540527-24.0979614v-50.3870239c0-38.7030029,26.2890625-61.3410034,43.81604-61.3410034,19.3509521,0,17.5250244,21.9069824,36.8769531,21.9069824,10.5889893,0,18.9870605-6.5719604,18.9870605-18.6209717,0-14.6060181-13.875-27.3850098-36.5130615-27.3850098-27.7489014,0-50.3869629,15.7009888-62.0709229,40.1640015h-1.0960693l-2.9210205-37.242981h-65.3569336v10.9539795h16.4299316c13.5100098,0,18.9870605,4.382019,18.9870605,18.257019v103.6950073c0,17.1609497-7.6679688,24.0979614-26.6540527,24.0979614h-10.223999v10.9550171ZM1698.4653879,300.2292555h137.2879639v-12.0499878h-21.907959c-20.0820312,0-30.3050537-9.493042-30.3050537-27.7490234v-88.3610229c0-18.2559814,9.1280518-27.75,26.6540527-27.75h25.55896v-12.0489502h-137.2879639v12.0489502h25.55896c17.526001,0,26.6540527,9.4940186,26.6540527,27.75v88.3610229c0,18.2559814-10.2230225,27.7490234-30.3050537,27.7490234h-21.907959v12.0499878ZM1742.6464182,74.9452589c0,14.6060181,10.2230225,24.4639893,24.4630127,24.4639893,13.875,0,24.4639893-9.8579712,24.4639893-24.4639893,0-14.6049805-10.5889893-24.8280029-24.4639893-24.8280029-14.2399902,0-24.4630127,10.2230225-24.4630127,24.8280029M1951.1283518,306.0702589c40.894043,0,70.4689941-23.367981,74.8510742-56.5939941h-9.4940186c-7.302002,24.0979614-30.6700439,34.3219604-52.9429932,34.3219604-36.5130615,0-62.0720215-28.4799805-62.0720215-74.4859619,0-2.5560303,0-4.7470093.3659668-6.9370117h124.1430664c2.9210205-46.7369995-30.6710205-73.026001-71.2000732-73.026001-50.3879395,0-87.6300049,40.5289917-87.6300049,91.6469727,0,51.118042,35.7821045,85.0740356,83.9790039,85.0740356M1903.6614329,187.039253c6.9379883-28.8450317,26.6549072-42.7200317,48.9279785-42.7200317,23.7319336,0,39.0679932,15.7010498,39.0679932,31.7670288,0,10.9530029-6.5720215,10.9530029-11.6850586,10.9530029h-76.3109131ZM2052.6283518,300.2292555h90.9161377v-10.9550171h-9.1281738c-12.7800293,0-19.3519287-4.3809814-19.3519287-16.7949829v-75.2160034c0-28.4799805,20.8131104-44.5460205,40.8948975-44.5460205,18.2561035,0,33.9560547,10.223999,33.9560547,36.8779907v82.8840332c0,12.4140015-6.5720215,16.7949829-19.3520508,16.7949829h-9.1279297v10.9550171h88.361084v-10.9550171h-8.3979492c-13.5100098,0-18.6210938-4.3809814-18.6210938-16.7949829v-93.4730225c0-28.1139526-21.5429688-49.6569824-52.5791016-49.6569824-23.7329102,0-44.5449219,12.7789917-54.7689209,30.6710205h-.7299805l-2.5560303-27.75h-58.0539551v10.9539795h9.1269531c13.5100098,0,18.9870605,4.382019,18.9870605,18.257019v110.9979858c0,12.4140015-5.842041,16.7949829-17.5269775,16.7949829h-12.0480957v10.9550171ZM2364.8054758,306.0702589c37.2429199,0,62.0720215-19.7160034,64.6279297-55.8640137h-9.8591309c-5.4768066,23.7340088-23.7329102,32.4960327-43.8149414,32.4960327-25.9228516,0-37.2429199-13.8740234-37.2429199-37.2420044v-94.9330444h82.519043v-18.256958h-82.519043v-42.3540039h-30.6699219v18.2559814c0,18.9869995-6.2080078,28.1149902-32.1311035,28.1149902h-21.5419922v14.2399902h51.4819336v102.2350464c0,37.6079712,25.559082,53.3079834,59.1501465,53.3079834M2474.7034251,211.5032423h125.6030273v-20.0820312h-125.6030273v20.0820312Z"/>
  <metadata>
    <sfw xmlns="http://ns.adobe.com/SaveForWeb/1.0/">
      <slices/>
      <sliceSourceBounds x="-5536.74" y="-1483.47" width="13652.12" height="6760.59" bottomLeftOrigin="true"/>
    </sfw>
  </metadata>
</svg>