<svg xmlns="http://www.w3.org/2000/svg" width="453.999" height="73.008" viewBox="0 0 453.999 73.008">
  <g id="Gruppe_281" data-name="Gruppe 281" transform="translate(2686 -2611.545)">
    <g id="Gruppe_280" data-name="Gruppe 280" transform="translate(-2686 2611.584)">
      <g id="Gruppe_1" data-name="Gruppe 1" transform="translate(8.372)">
        <path id="Pfad_1" data-name="Pfad 1" d="M82.453,0H43.1V60.817a8.414,8.414,0,0,0,8.411,8.411H61.922V11.985h4.526v3.671A12.805,12.805,0,0,1,76.782,11.4c5.983.583,10.1,5.3,10.237,15.306.136,10.625-4.293,16.627-11.13,17.152a11.2,11.2,0,0,1-9.421-4.176V69.208H90.728V8.255A8.277,8.277,0,0,0,82.453,0Z" transform="translate(-43.1)" fill="#ef7f01"/>
        <path id="Pfad_2" data-name="Pfad 2" d="M172.138,103.11c5.109-.1,7.148-5.245,7.323-11.849.194-7.653-2.253-12.062-6.857-12.82-3.788-.622-7.614,2.234-9.265,4.409L163.3,98.584C166.388,102.566,169.71,103.168,172.138,103.11Z" transform="translate(-139.952 -63.135)" fill="#ef7f01"/>
      </g>
      <rect id="Rechteck_1" data-name="Rechteck 1" width="4.468" height="69.228" fill="#ef7f01"/>
    </g>
    <path id="Pfad_780" data-name="Pfad 780" d="M2.982-1.36v-9.418H5.771a5.218,5.218,0,0,1,1.935.315,3.135,3.135,0,0,1,1.281.918A3.694,3.694,0,0,1,9.7-8.083a7.933,7.933,0,0,1,.218,1.946,6.768,6.768,0,0,1-.235,1.912,4.6,4.6,0,0,1-.6,1.318,3.106,3.106,0,0,1-.828.833,4.1,4.1,0,0,1-.933.468,3.994,3.994,0,0,1-.889.2q-.418.042-.7.043ZM1.326-12.138V0H5.6A7.642,7.642,0,0,0,8.281-.425a4.69,4.69,0,0,0,1.865-1.232,5.029,5.029,0,0,0,1.081-1.989,9.6,9.6,0,0,0,.349-2.712,5.635,5.635,0,0,0-1.551-4.352A6.3,6.3,0,0,0,5.6-12.138ZM15.114-10.37v-1.768H13.632v1.768ZM13.632-8.789V0h1.482V-8.789ZM23.864-5.236H18.687a2.948,2.948,0,0,1,.227-.96,2.556,2.556,0,0,1,.523-.791,2.4,2.4,0,0,1,.793-.535,2.637,2.637,0,0,1,1.037-.2,2.59,2.59,0,0,1,1.02.2,2.57,2.57,0,0,1,.8.527,2.473,2.473,0,0,1,.54.791A2.9,2.9,0,0,1,23.864-5.236Zm1.429,2.448H23.829A2.047,2.047,0,0,1,23.036-1.5a2.612,2.612,0,0,1-1.543.425,3.137,3.137,0,0,1-1.272-.238,2.491,2.491,0,0,1-.889-.638,2.465,2.465,0,0,1-.505-.918,3.407,3.407,0,0,1-.139-1.1h6.746a6.829,6.829,0,0,0-.148-1.683,4.8,4.8,0,0,0-.662-1.632A3.9,3.9,0,0,0,23.35-8.509a3.771,3.771,0,0,0-2-.484,4.187,4.187,0,0,0-1.7.34,3.991,3.991,0,0,0-1.342.952,4.367,4.367,0,0,0-.88,1.445,5.171,5.171,0,0,0-.314,1.836,6.886,6.886,0,0,0,.305,1.853,4.015,4.015,0,0,0,.811,1.462,3.69,3.69,0,0,0,1.333.952,4.732,4.732,0,0,0,1.874.34,4.163,4.163,0,0,0,2.545-.748A3.5,3.5,0,0,0,25.294-2.788Zm8.8-3.536v-4.454h3.242a3.1,3.1,0,0,1,2.066.569,2.08,2.08,0,0,1,.654,1.657A2.106,2.106,0,0,1,39.4-6.885a3.01,3.01,0,0,1-2.066.561ZM32.44-12.138V0H34.1V-4.964h3.8a3.85,3.85,0,0,0,2.85-.935,3.552,3.552,0,0,0,.967-2.652,3.523,3.523,0,0,0-.967-2.643,3.924,3.924,0,0,0-2.85-.943ZM51.144,0V-8.789H49.662v4.964a3.479,3.479,0,0,1-.166,1.1,2.474,2.474,0,0,1-.5.876,2.205,2.205,0,0,1-.828.578,3.088,3.088,0,0,1-1.177.2,1.84,1.84,0,0,1-1.342-.476,1.722,1.722,0,0,1-.488-1.292v-5.95H43.683v5.78a5.31,5.31,0,0,0,.148,1.3A2.44,2.44,0,0,0,44.346-.7a2.363,2.363,0,0,0,.959.655,4.134,4.134,0,0,0,1.482.23A3.678,3.678,0,0,0,48.512-.2a2.99,2.99,0,0,0,1.2-1.2h.035V0Zm2.475-12.138V0H55.1V-1.173h.035a2.349,2.349,0,0,0,.6.654,3.19,3.19,0,0,0,.758.417,4.2,4.2,0,0,0,.811.221,4.563,4.563,0,0,0,.741.068,4.276,4.276,0,0,0,1.8-.357,3.6,3.6,0,0,0,1.29-.978A4.127,4.127,0,0,0,61.907-2.6a6.058,6.058,0,0,0,.253-1.768A5.87,5.87,0,0,0,61.9-6.137a4.429,4.429,0,0,0-.776-1.47,3.689,3.689,0,0,0-1.29-1.012,4.152,4.152,0,0,0-1.822-.374,4.389,4.389,0,0,0-1.726.331A2.2,2.2,0,0,0,55.135-7.6H55.1v-4.539Zm6.972,7.667a5.645,5.645,0,0,1-.139,1.258A3.282,3.282,0,0,1,60-2.125a2.358,2.358,0,0,1-.828.765,2.585,2.585,0,0,1-1.281.289,2.808,2.808,0,0,1-1.307-.28,2.521,2.521,0,0,1-.88-.74,3.057,3.057,0,0,1-.5-1.062,4.946,4.946,0,0,1-.157-1.25A4.977,4.977,0,0,1,55.2-5.61a3.125,3.125,0,0,1,.479-1.062,2.529,2.529,0,0,1,.854-.756A2.6,2.6,0,0,1,57.8-7.718a2.7,2.7,0,0,1,1.246.272,2.461,2.461,0,0,1,.872.731,3.2,3.2,0,0,1,.505,1.046A4.39,4.39,0,0,1,60.591-4.471Zm3.591-7.667V0h1.482V-12.138Zm5.543,1.768v-1.768H68.243v1.768ZM68.243-8.789V0h1.482V-8.789ZM72.3-12.138V0h1.482V-3.332L75.181-4.59,78.266,0h1.883L76.314-5.593l3.573-3.2H77.9L73.786-4.947v-7.191ZM89.439-.034a2.14,2.14,0,0,1-1.063.221,1.294,1.294,0,0,1-.915-.315,1.346,1.346,0,0,1-.34-1.029A3.54,3.54,0,0,1,85.7-.127a4.8,4.8,0,0,1-1.752.315A4.806,4.806,0,0,1,82.789.051a2.727,2.727,0,0,1-.95-.425A2.052,2.052,0,0,1,81.2-1.13a2.492,2.492,0,0,1-.235-1.13,2.528,2.528,0,0,1,.261-1.224,2.242,2.242,0,0,1,.689-.774,3.191,3.191,0,0,1,.976-.451q.549-.153,1.124-.255.61-.119,1.159-.179a6.606,6.606,0,0,0,.967-.17,1.627,1.627,0,0,0,.662-.323.778.778,0,0,0,.244-.621,1.414,1.414,0,0,0-.183-.765,1.242,1.242,0,0,0-.471-.442,1.948,1.948,0,0,0-.645-.2,4.992,4.992,0,0,0-.706-.051,3.2,3.2,0,0,0-1.569.349,1.469,1.469,0,0,0-.68,1.317H81.317a3.06,3.06,0,0,1,.349-1.377,2.6,2.6,0,0,1,.837-.91,3.557,3.557,0,0,1,1.194-.5,6.459,6.459,0,0,1,1.438-.153,8.645,8.645,0,0,1,1.211.085,3.222,3.222,0,0,1,1.089.349,2.066,2.066,0,0,1,.784.739,2.32,2.32,0,0,1,.3,1.241v4.522a3.3,3.3,0,0,0,.061.748q.061.238.41.238a1.5,1.5,0,0,0,.453-.085ZM87.034-4.539a1.869,1.869,0,0,1-.732.3q-.453.093-.95.153t-1,.136a3.758,3.758,0,0,0-.906.247,1.645,1.645,0,0,0-.654.484,1.333,1.333,0,0,0-.253.859,1.152,1.152,0,0,0,.148.6,1.217,1.217,0,0,0,.383.4,1.631,1.631,0,0,0,.549.221,3.121,3.121,0,0,0,.662.068,3.59,3.59,0,0,0,1.255-.2,2.654,2.654,0,0,0,.854-.493,1.948,1.948,0,0,0,.488-.646,1.6,1.6,0,0,0,.157-.655Zm6.031-4.25v-2.635H91.583v2.635H90.049v1.275h1.534v5.593a3.262,3.262,0,0,0,.122.986,1.2,1.2,0,0,0,.375.578,1.465,1.465,0,0,0,.662.28A5.452,5.452,0,0,0,93.727,0H94.86V-1.275h-.68a5.066,5.066,0,0,1-.566-.025.744.744,0,0,1-.34-.11.42.42,0,0,1-.166-.238,1.54,1.54,0,0,1-.044-.408V-7.514h1.8V-8.789Zm5.194-1.581v-1.768H96.778v1.768ZM96.778-8.789V0h1.482V-8.789Zm5.055,4.4a4.273,4.273,0,0,1,.218-1.42,3.044,3.044,0,0,1,.6-1.045,2.558,2.558,0,0,1,.9-.646,2.73,2.73,0,0,1,1.089-.221,2.73,2.73,0,0,1,1.089.221,2.558,2.558,0,0,1,.9.646,3.044,3.044,0,0,1,.6,1.045,4.274,4.274,0,0,1,.218,1.42,4.274,4.274,0,0,1-.218,1.419,2.952,2.952,0,0,1-.6,1.037,2.608,2.608,0,0,1-.9.638,2.73,2.73,0,0,1-1.089.221,2.73,2.73,0,0,1-1.089-.221,2.608,2.608,0,0,1-.9-.638,2.952,2.952,0,0,1-.6-1.037A4.273,4.273,0,0,1,101.833-4.386Zm-1.569,0a5.642,5.642,0,0,0,.279,1.8,4.087,4.087,0,0,0,.837,1.453,3.847,3.847,0,0,0,1.377.969,4.773,4.773,0,0,0,1.883.348,4.757,4.757,0,0,0,1.891-.348A3.864,3.864,0,0,0,107.9-1.13a4.087,4.087,0,0,0,.837-1.453,5.642,5.642,0,0,0,.279-1.8,5.72,5.72,0,0,0-.279-1.811,4.075,4.075,0,0,0-.837-1.462,3.957,3.957,0,0,0-1.368-.978,4.658,4.658,0,0,0-1.891-.357,4.673,4.673,0,0,0-1.883.357,3.938,3.938,0,0,0-1.377.978,4.075,4.075,0,0,0-.837,1.462A5.72,5.72,0,0,0,100.264-4.386Zm10.685-4.4V0h1.482V-4.964a3.479,3.479,0,0,1,.166-1.1,2.474,2.474,0,0,1,.5-.875,2.205,2.205,0,0,1,.828-.578,3.088,3.088,0,0,1,1.177-.2,1.84,1.84,0,0,1,1.342.476,1.722,1.722,0,0,1,.488,1.292V0h1.482V-5.78a5.31,5.31,0,0,0-.148-1.3,2.44,2.44,0,0,0-.514-1.011,2.436,2.436,0,0,0-.959-.663,4,4,0,0,0-1.482-.238,3.136,3.136,0,0,0-2.928,1.6h-.035V-8.789Zm10.79,6.018h-1.482a3.117,3.117,0,0,0,.349,1.386,2.58,2.58,0,0,0,.837.918,3.553,3.553,0,0,0,1.2.5,6.493,6.493,0,0,0,1.429.153A7.5,7.5,0,0,0,125.443.06a3.775,3.775,0,0,0,1.238-.451,2.627,2.627,0,0,0,.889-.85,2.4,2.4,0,0,0,.34-1.326,2.031,2.031,0,0,0-.253-1.054,2.222,2.222,0,0,0-.662-.705,3.59,3.59,0,0,0-.941-.451q-.532-.17-1.089-.289-.523-.119-1.046-.23a6.149,6.149,0,0,1-.941-.272,2.167,2.167,0,0,1-.689-.408.8.8,0,0,1-.27-.621.843.843,0,0,1,.174-.552,1.243,1.243,0,0,1,.453-.34,2.3,2.3,0,0,1,.619-.179,4.518,4.518,0,0,1,.671-.051,3.446,3.446,0,0,1,.723.076,2.251,2.251,0,0,1,.654.247,1.469,1.469,0,0,1,.488.451,1.438,1.438,0,0,1,.227.705h1.482a3.165,3.165,0,0,0-.349-1.334,2.31,2.31,0,0,0-.793-.85,3.315,3.315,0,0,0-1.142-.442,7.29,7.29,0,0,0-1.412-.128,5.1,5.1,0,0,0-1.194.144,3.651,3.651,0,0,0-1.081.442,2.463,2.463,0,0,0-.784.773,2.066,2.066,0,0,0-.305,1.139,1.891,1.891,0,0,0,.436,1.326,2.943,2.943,0,0,0,1.089.739,7.513,7.513,0,0,0,1.421.408q.767.144,1.421.323a3.756,3.756,0,0,1,1.089.467.955.955,0,0,1,.436.85,1.047,1.047,0,0,1-.209.672,1.322,1.322,0,0,1-.532.4,2.738,2.738,0,0,1-.706.187,5.56,5.56,0,0,1-.732.051,4.5,4.5,0,0,1-.88-.085,2.509,2.509,0,0,1-.767-.28,1.559,1.559,0,0,1-.549-.527A1.6,1.6,0,0,1,121.739-2.771Zm8.053-6.018V3.349h1.482V-1.173h.035a2.348,2.348,0,0,0,.6.654,3.19,3.19,0,0,0,.758.417,4.2,4.2,0,0,0,.811.221,4.563,4.563,0,0,0,.741.068,4.276,4.276,0,0,0,1.8-.357,3.6,3.6,0,0,0,1.29-.978A4.127,4.127,0,0,0,138.08-2.6a6.057,6.057,0,0,0,.253-1.768,5.87,5.87,0,0,0-.261-1.768,4.429,4.429,0,0,0-.776-1.47,3.689,3.689,0,0,0-1.29-1.012,4.152,4.152,0,0,0-1.822-.374,4.389,4.389,0,0,0-1.726.331,2.2,2.2,0,0,0-1.15,1.063h-.035v-1.19Zm6.972,4.318a5.644,5.644,0,0,1-.139,1.258,3.282,3.282,0,0,1-.453,1.088,2.358,2.358,0,0,1-.828.765,2.585,2.585,0,0,1-1.281.289,2.808,2.808,0,0,1-1.307-.28,2.521,2.521,0,0,1-.88-.74,3.057,3.057,0,0,1-.5-1.062,4.946,4.946,0,0,1-.157-1.25,4.977,4.977,0,0,1,.148-1.207,3.125,3.125,0,0,1,.479-1.062,2.528,2.528,0,0,1,.854-.756,2.6,2.6,0,0,1,1.272-.289,2.7,2.7,0,0,1,1.246.272,2.461,2.461,0,0,1,.872.731,3.2,3.2,0,0,1,.505,1.046A4.39,4.39,0,0,1,136.764-4.471Zm3.591-7.667V0h1.482V-12.138Zm11.958,12.1a2.14,2.14,0,0,1-1.063.221,1.294,1.294,0,0,1-.915-.315,1.346,1.346,0,0,1-.34-1.029,3.54,3.54,0,0,1-1.421,1.029,4.8,4.8,0,0,1-1.752.315,4.806,4.806,0,0,1-1.159-.136,2.727,2.727,0,0,1-.95-.425,2.052,2.052,0,0,1-.636-.756,2.492,2.492,0,0,1-.235-1.13,2.528,2.528,0,0,1,.261-1.224,2.242,2.242,0,0,1,.689-.774,3.19,3.19,0,0,1,.976-.451q.549-.153,1.124-.255.61-.119,1.159-.179a6.605,6.605,0,0,0,.967-.17,1.627,1.627,0,0,0,.662-.323.778.778,0,0,0,.244-.621,1.414,1.414,0,0,0-.183-.765,1.242,1.242,0,0,0-.471-.442,1.948,1.948,0,0,0-.645-.2,4.992,4.992,0,0,0-.706-.051,3.2,3.2,0,0,0-1.569.349,1.469,1.469,0,0,0-.68,1.317H144.19a3.06,3.06,0,0,1,.349-1.377,2.6,2.6,0,0,1,.837-.91,3.557,3.557,0,0,1,1.194-.5,6.459,6.459,0,0,1,1.438-.153,8.646,8.646,0,0,1,1.211.085,3.222,3.222,0,0,1,1.089.349,2.066,2.066,0,0,1,.784.739,2.32,2.32,0,0,1,.3,1.241v4.522a3.3,3.3,0,0,0,.061.748q.061.238.41.238a1.5,1.5,0,0,0,.453-.085Zm-2.405-4.505a1.869,1.869,0,0,1-.732.3q-.453.093-.95.153t-1,.136a3.758,3.758,0,0,0-.906.247,1.645,1.645,0,0,0-.654.484,1.333,1.333,0,0,0-.253.859,1.152,1.152,0,0,0,.148.6,1.217,1.217,0,0,0,.383.4,1.631,1.631,0,0,0,.549.221,3.121,3.121,0,0,0,.662.068,3.591,3.591,0,0,0,1.255-.2,2.654,2.654,0,0,0,.854-.493,1.948,1.948,0,0,0,.488-.646,1.6,1.6,0,0,0,.157-.655Zm6.031-4.25v-2.635h-1.482v2.635h-1.534v1.275h1.534v5.593a3.262,3.262,0,0,0,.122.986,1.2,1.2,0,0,0,.375.578,1.465,1.465,0,0,0,.662.28A5.452,5.452,0,0,0,156.6,0h1.133V-1.275h-.68a5.065,5.065,0,0,1-.566-.025.744.744,0,0,1-.34-.11.42.42,0,0,1-.166-.238,1.539,1.539,0,0,1-.044-.408V-7.514h1.8V-8.789Zm5.682,0v-2.635h-1.482v2.635h-1.534v1.275h1.534v5.593a3.262,3.262,0,0,0,.122.986,1.2,1.2,0,0,0,.375.578,1.465,1.465,0,0,0,.662.28,5.452,5.452,0,0,0,.985.076h1.133V-1.275h-.68a5.066,5.066,0,0,1-.567-.025.744.744,0,0,1-.34-.11.42.42,0,0,1-.166-.238,1.539,1.539,0,0,1-.044-.408V-7.514h1.8V-8.789Zm4.236,1.275V0h1.482V-7.514h1.743V-8.789h-1.743v-1.224a.889.889,0,0,1,.3-.782,1.464,1.464,0,0,1,.837-.2,3.76,3.76,0,0,1,.418.026,1.877,1.877,0,0,1,.418.094v-1.258a2.611,2.611,0,0,0-.479-.1,3.888,3.888,0,0,0-.479-.034,2.754,2.754,0,0,0-1.856.553,2.034,2.034,0,0,0-.636,1.623v1.309H164.34v1.275Zm5.822,3.128a4.273,4.273,0,0,1,.218-1.42,3.044,3.044,0,0,1,.6-1.045,2.558,2.558,0,0,1,.9-.646,2.73,2.73,0,0,1,1.089-.221,2.73,2.73,0,0,1,1.089.221,2.558,2.558,0,0,1,.9.646,3.045,3.045,0,0,1,.6,1.045,4.274,4.274,0,0,1,.218,1.42,4.274,4.274,0,0,1-.218,1.419,2.952,2.952,0,0,1-.6,1.037,2.608,2.608,0,0,1-.9.638,2.73,2.73,0,0,1-1.089.221,2.73,2.73,0,0,1-1.089-.221,2.608,2.608,0,0,1-.9-.638,2.952,2.952,0,0,1-.6-1.037A4.273,4.273,0,0,1,171.678-4.386Zm-1.569,0a5.642,5.642,0,0,0,.279,1.8,4.087,4.087,0,0,0,.837,1.453,3.847,3.847,0,0,0,1.377.969,4.773,4.773,0,0,0,1.883.348,4.757,4.757,0,0,0,1.891-.348,3.865,3.865,0,0,0,1.368-.969,4.087,4.087,0,0,0,.837-1.453,5.642,5.642,0,0,0,.279-1.8,5.721,5.721,0,0,0-.279-1.811,4.075,4.075,0,0,0-.837-1.462,3.958,3.958,0,0,0-1.368-.978,4.658,4.658,0,0,0-1.891-.357,4.673,4.673,0,0,0-1.883.357,3.938,3.938,0,0,0-1.377.978,4.075,4.075,0,0,0-.837,1.462A5.721,5.721,0,0,0,170.11-4.386Zm10.633-4.4V0h1.482V-3.91a5.868,5.868,0,0,1,.174-1.5,2.856,2.856,0,0,1,.558-1.113,2.391,2.391,0,0,1,1.011-.7,4.287,4.287,0,0,1,1.516-.238v-1.53a3.4,3.4,0,0,0-1.987.476,3.938,3.938,0,0,0-1.325,1.581h-.035V-8.789Zm6.049,0V0h1.482V-5.474a2.052,2.052,0,0,1,.131-.637,2.437,2.437,0,0,1,.418-.74,2.494,2.494,0,0,1,.75-.612,2.258,2.258,0,0,1,1.107-.255,2.037,2.037,0,0,1,.828.145,1.256,1.256,0,0,1,.514.408,1.638,1.638,0,0,1,.27.621,3.645,3.645,0,0,1,.078.782V0h1.482V-5.474a2.176,2.176,0,0,1,.628-1.632,2.366,2.366,0,0,1,1.726-.612,2.16,2.16,0,0,1,.88.153,1.3,1.3,0,0,1,.532.417,1.542,1.542,0,0,1,.261.621,3.99,3.99,0,0,1,.07.765V0h1.482V-6.443a2.826,2.826,0,0,0-.218-1.164,2.048,2.048,0,0,0-.61-.79,2.575,2.575,0,0,0-.941-.451,4.831,4.831,0,0,0-1.229-.144,3.437,3.437,0,0,0-1.63.391,3.114,3.114,0,0,0-1.194,1.1,1.916,1.916,0,0,0-.959-1.156,3.343,3.343,0,0,0-1.516-.34,3.3,3.3,0,0,0-2.911,1.5h-.035V-8.789ZM207.97-4.318a5.645,5.645,0,0,1,.139-1.258,3.283,3.283,0,0,1,.453-1.088,2.337,2.337,0,0,1,.837-.765,2.6,2.6,0,0,1,1.272-.289,2.808,2.808,0,0,1,1.307.28,2.521,2.521,0,0,1,.88.74,3.057,3.057,0,0,1,.5,1.063,4.946,4.946,0,0,1,.157,1.25,4.977,4.977,0,0,1-.148,1.207,3.125,3.125,0,0,1-.479,1.063,2.528,2.528,0,0,1-.854.756,2.6,2.6,0,0,1-1.272.289,2.7,2.7,0,0,1-1.246-.272,2.461,2.461,0,0,1-.872-.731,3.2,3.2,0,0,1-.505-1.046A4.39,4.39,0,0,1,207.97-4.318ZM214.942,0V-12.138H213.46v4.522h-.035a2.349,2.349,0,0,0-.6-.655,3.439,3.439,0,0,0-.758-.425,3.879,3.879,0,0,0-.8-.229,4.5,4.5,0,0,0-.75-.068,4.19,4.19,0,0,0-1.8.366,3.691,3.691,0,0,0-1.29.986,4.126,4.126,0,0,0-.767,1.454A6.057,6.057,0,0,0,206.4-4.42a5.871,5.871,0,0,0,.261,1.768,4.333,4.333,0,0,0,.776,1.462,3.734,3.734,0,0,0,1.29,1,4.152,4.152,0,0,0,1.822.374,4.49,4.49,0,0,0,1.726-.323,2.159,2.159,0,0,0,1.15-1.054h.035V0Zm8.733-5.236H218.5a2.947,2.947,0,0,1,.227-.96,2.556,2.556,0,0,1,.523-.791,2.4,2.4,0,0,1,.793-.535,2.637,2.637,0,0,1,1.037-.2,2.59,2.59,0,0,1,1.02.2,2.57,2.57,0,0,1,.8.527,2.473,2.473,0,0,1,.54.791A2.9,2.9,0,0,1,223.675-5.236ZM225.1-2.788H223.64a2.047,2.047,0,0,1-.793,1.292,2.612,2.612,0,0,1-1.543.425,3.137,3.137,0,0,1-1.272-.238,2.491,2.491,0,0,1-.889-.638,2.465,2.465,0,0,1-.505-.918,3.407,3.407,0,0,1-.139-1.1h6.746a6.83,6.83,0,0,0-.148-1.683,4.8,4.8,0,0,0-.662-1.632,3.9,3.9,0,0,0-1.272-1.233,3.771,3.771,0,0,0-2-.484,4.187,4.187,0,0,0-1.7.34,3.991,3.991,0,0,0-1.342.952,4.367,4.367,0,0,0-.88,1.445,5.171,5.171,0,0,0-.314,1.836,6.886,6.886,0,0,0,.305,1.853,4.015,4.015,0,0,0,.811,1.462,3.69,3.69,0,0,0,1.333.952,4.732,4.732,0,0,0,1.874.34A4.163,4.163,0,0,0,223.8-.561,3.5,3.5,0,0,0,225.1-2.788Zm1.813-6V0H228.4V-3.91a5.867,5.867,0,0,1,.174-1.5,2.856,2.856,0,0,1,.558-1.113,2.391,2.391,0,0,1,1.011-.7,4.287,4.287,0,0,1,1.516-.238v-1.53a3.4,3.4,0,0,0-1.987.476,3.938,3.938,0,0,0-1.325,1.581h-.035V-8.789Zm11.365-3.349V0h1.569V-10.1h.035L243.773,0h1.412l3.887-10.1h.035V0h1.569V-12.138h-2.266l-3.939,10.2-3.922-10.2Zm23.079,12.1A2.14,2.14,0,0,1,260.3.187a1.294,1.294,0,0,1-.915-.315,1.346,1.346,0,0,1-.34-1.029,3.54,3.54,0,0,1-1.421,1.029,4.8,4.8,0,0,1-1.752.315,4.806,4.806,0,0,1-1.159-.136,2.727,2.727,0,0,1-.95-.425,2.052,2.052,0,0,1-.636-.756,2.492,2.492,0,0,1-.235-1.13,2.528,2.528,0,0,1,.261-1.224,2.242,2.242,0,0,1,.689-.774,3.19,3.19,0,0,1,.976-.451q.549-.153,1.124-.255.61-.119,1.159-.179a6.6,6.6,0,0,0,.967-.17,1.627,1.627,0,0,0,.662-.323.778.778,0,0,0,.244-.621,1.414,1.414,0,0,0-.183-.765,1.242,1.242,0,0,0-.471-.442,1.947,1.947,0,0,0-.645-.2,4.992,4.992,0,0,0-.706-.051,3.2,3.2,0,0,0-1.569.349,1.469,1.469,0,0,0-.68,1.317h-1.482a3.06,3.06,0,0,1,.349-1.377,2.6,2.6,0,0,1,.837-.91,3.557,3.557,0,0,1,1.194-.5,6.459,6.459,0,0,1,1.438-.153,8.645,8.645,0,0,1,1.211.085,3.222,3.222,0,0,1,1.089.349,2.066,2.066,0,0,1,.784.739,2.32,2.32,0,0,1,.3,1.241v4.522a3.3,3.3,0,0,0,.061.748q.061.238.41.238a1.5,1.5,0,0,0,.453-.085Zm-2.405-4.505a1.869,1.869,0,0,1-.732.3q-.453.093-.95.153t-1,.136a3.758,3.758,0,0,0-.906.247,1.645,1.645,0,0,0-.654.484,1.333,1.333,0,0,0-.253.859,1.152,1.152,0,0,0,.148.6,1.217,1.217,0,0,0,.383.4,1.631,1.631,0,0,0,.549.221,3.121,3.121,0,0,0,.662.068,3.591,3.591,0,0,0,1.255-.2,2.654,2.654,0,0,0,.854-.493,1.949,1.949,0,0,0,.488-.646,1.6,1.6,0,0,0,.157-.655Zm6.4-.085L261.971,0h1.8l2.51-3.638L268.786,0h1.9L267.2-4.743l3.1-4.046h-1.778l-2.249,3.077-2.161-3.077h-1.9ZM288.675,0,292-12.138h-1.656l-2.527,10.1h-.035l-2.754-10.1h-1.8l-2.789,10.1h-.035l-2.44-10.1h-1.691L279.471,0H281.2l2.876-10.2h.035L286.949,0Zm10.11-5.236h-5.177a2.948,2.948,0,0,1,.227-.96,2.555,2.555,0,0,1,.523-.791,2.4,2.4,0,0,1,.793-.535,2.637,2.637,0,0,1,1.037-.2,2.59,2.59,0,0,1,1.02.2,2.57,2.57,0,0,1,.8.527,2.474,2.474,0,0,1,.54.791A2.9,2.9,0,0,1,298.785-5.236Zm1.429,2.448H298.75a2.047,2.047,0,0,1-.793,1.292,2.612,2.612,0,0,1-1.543.425,3.137,3.137,0,0,1-1.272-.238,2.491,2.491,0,0,1-.889-.638,2.465,2.465,0,0,1-.505-.918,3.407,3.407,0,0,1-.139-1.1h6.746a6.829,6.829,0,0,0-.148-1.683,4.8,4.8,0,0,0-.662-1.632,3.9,3.9,0,0,0-1.272-1.233,3.771,3.771,0,0,0-2-.484,4.187,4.187,0,0,0-1.7.34,3.992,3.992,0,0,0-1.342.952,4.368,4.368,0,0,0-.88,1.445,5.171,5.171,0,0,0-.314,1.836,6.887,6.887,0,0,0,.305,1.853,4.015,4.015,0,0,0,.811,1.462,3.69,3.69,0,0,0,1.333.952,4.732,4.732,0,0,0,1.874.34,4.163,4.163,0,0,0,2.545-.748A3.5,3.5,0,0,0,300.214-2.788Zm1.917-9.35V0h1.482V-1.173h.035a2.348,2.348,0,0,0,.6.654,3.191,3.191,0,0,0,.758.417,4.2,4.2,0,0,0,.811.221,4.563,4.563,0,0,0,.741.068,4.276,4.276,0,0,0,1.8-.357,3.6,3.6,0,0,0,1.29-.978A4.127,4.127,0,0,0,310.42-2.6a6.058,6.058,0,0,0,.253-1.768,5.87,5.87,0,0,0-.261-1.768,4.428,4.428,0,0,0-.776-1.47,3.689,3.689,0,0,0-1.29-1.012,4.152,4.152,0,0,0-1.822-.374,4.389,4.389,0,0,0-1.726.331,2.2,2.2,0,0,0-1.15,1.063h-.035v-4.539ZM309.1-4.471a5.645,5.645,0,0,1-.139,1.258,3.282,3.282,0,0,1-.453,1.088,2.358,2.358,0,0,1-.828.765,2.585,2.585,0,0,1-1.281.289,2.808,2.808,0,0,1-1.307-.28,2.521,2.521,0,0,1-.88-.74,3.057,3.057,0,0,1-.5-1.062,4.945,4.945,0,0,1-.157-1.25,4.976,4.976,0,0,1,.148-1.207,3.125,3.125,0,0,1,.479-1.062,2.529,2.529,0,0,1,.854-.756,2.6,2.6,0,0,1,1.272-.289,2.7,2.7,0,0,1,1.246.272,2.461,2.461,0,0,1,.872.731,3.2,3.2,0,0,1,.505,1.046A4.389,4.389,0,0,1,309.1-4.471Zm9.761-.765h-5.177a2.948,2.948,0,0,1,.227-.96,2.556,2.556,0,0,1,.523-.791,2.4,2.4,0,0,1,.793-.535,2.637,2.637,0,0,1,1.037-.2,2.59,2.59,0,0,1,1.02.2,2.57,2.57,0,0,1,.8.527,2.474,2.474,0,0,1,.54.791A2.9,2.9,0,0,1,318.865-5.236Zm1.429,2.448H318.83a2.047,2.047,0,0,1-.793,1.292,2.612,2.612,0,0,1-1.543.425,3.137,3.137,0,0,1-1.272-.238,2.491,2.491,0,0,1-.889-.638,2.465,2.465,0,0,1-.505-.918,3.407,3.407,0,0,1-.139-1.1h6.746a6.829,6.829,0,0,0-.148-1.683,4.8,4.8,0,0,0-.662-1.632,3.9,3.9,0,0,0-1.272-1.233,3.771,3.771,0,0,0-2-.484,4.187,4.187,0,0,0-1.7.34,3.992,3.992,0,0,0-1.342.952,4.367,4.367,0,0,0-.88,1.445,5.17,5.17,0,0,0-.314,1.836,6.888,6.888,0,0,0,.305,1.853,4.015,4.015,0,0,0,.811,1.462,3.69,3.69,0,0,0,1.333.952,4.732,4.732,0,0,0,1.874.34,4.163,4.163,0,0,0,2.545-.748A3.5,3.5,0,0,0,320.295-2.788Zm1.813-6V0h1.482V-3.91a5.867,5.867,0,0,1,.174-1.5,2.855,2.855,0,0,1,.558-1.113,2.391,2.391,0,0,1,1.011-.7,4.287,4.287,0,0,1,1.516-.238v-1.53a3.4,3.4,0,0,0-1.987.476,3.939,3.939,0,0,0-1.325,1.581H323.5V-8.789Zm18.529.2h1.569a4.191,4.191,0,0,0-.392-1.726,3.378,3.378,0,0,0-.976-1.2,4.067,4.067,0,0,0-1.438-.7,6.809,6.809,0,0,0-1.778-.221,6.537,6.537,0,0,0-1.665.212,4.632,4.632,0,0,0-1.447.646,3.3,3.3,0,0,0-1.02,1.105,3.152,3.152,0,0,0-.383,1.589,2.6,2.6,0,0,0,.34,1.386,2.72,2.72,0,0,0,.906.9,5.334,5.334,0,0,0,1.281.561q.715.212,1.456.374l1.455.314a6.756,6.756,0,0,1,1.281.4,2.5,2.5,0,0,1,.906.638,1.5,1.5,0,0,1,.34,1.02,1.947,1.947,0,0,1-.279,1.088,2.01,2.01,0,0,1-.732.671,3.368,3.368,0,0,1-1.02.349,6.334,6.334,0,0,1-1.124.1,5.447,5.447,0,0,1-1.36-.17,3.422,3.422,0,0,1-1.159-.527,2.725,2.725,0,0,1-.8-.91,2.686,2.686,0,0,1-.305-1.317h-1.569a4.179,4.179,0,0,0,.41,1.912,3.688,3.688,0,0,0,1.116,1.326,4.938,4.938,0,0,0,1.639.774,7.471,7.471,0,0,0,1.978.255,7.749,7.749,0,0,0,1.717-.2,5.039,5.039,0,0,0,1.56-.629,3.613,3.613,0,0,0,1.142-1.122,2.99,2.99,0,0,0,.444-1.658,2.983,2.983,0,0,0-.34-1.5,2.98,2.98,0,0,0-.906-.986,4.851,4.851,0,0,0-1.281-.621q-.715-.229-1.455-.4t-1.455-.314a7.768,7.768,0,0,1-1.281-.365,2.528,2.528,0,0,1-.906-.569,1.247,1.247,0,0,1-.34-.91A1.932,1.932,0,0,1,335-9.987a1.805,1.805,0,0,1,.628-.638,2.772,2.772,0,0,1,.9-.34,5.187,5.187,0,0,1,1.028-.1,3.579,3.579,0,0,1,2.118.587A2.509,2.509,0,0,1,340.636-8.585Zm6.1-.2v-2.635h-1.482v2.635h-1.534v1.275h1.534v5.593a3.261,3.261,0,0,0,.122.986,1.2,1.2,0,0,0,.375.578,1.465,1.465,0,0,0,.662.28A5.452,5.452,0,0,0,347.4,0h1.133V-1.275h-.68a5.067,5.067,0,0,1-.567-.025.744.744,0,0,1-.34-.11.42.42,0,0,1-.166-.238,1.539,1.539,0,0,1-.044-.408V-7.514h1.8V-8.789Zm5.194-1.581v-1.768H350.45v1.768ZM350.45-8.789V0h1.482V-8.789Zm4.584,1.275V0h1.482V-7.514h1.743V-8.789h-1.743v-1.224a.889.889,0,0,1,.3-.782,1.464,1.464,0,0,1,.837-.2,3.759,3.759,0,0,1,.418.026,1.876,1.876,0,0,1,.418.094v-1.258a2.612,2.612,0,0,0-.479-.1,3.888,3.888,0,0,0-.479-.034,2.754,2.754,0,0,0-1.856.553,2.034,2.034,0,0,0-.636,1.623v1.309h-1.516v1.275Zm6.8-1.275v-2.635h-1.482v2.635h-1.534v1.275h1.534v5.593a3.261,3.261,0,0,0,.122.986,1.2,1.2,0,0,0,.375.578,1.465,1.465,0,0,0,.662.28,5.452,5.452,0,0,0,.985.076h1.133V-1.275h-.68a5.067,5.067,0,0,1-.567-.025.744.744,0,0,1-.34-.11.42.42,0,0,1-.166-.238,1.538,1.538,0,0,1-.044-.408V-7.514h1.8V-8.789ZM372.919,0V-8.789h-1.482v4.964a3.48,3.48,0,0,1-.166,1.1,2.474,2.474,0,0,1-.5.876,2.205,2.205,0,0,1-.828.578,3.088,3.088,0,0,1-1.177.2,1.84,1.84,0,0,1-1.342-.476,1.722,1.722,0,0,1-.488-1.292v-5.95h-1.482v5.78a5.31,5.31,0,0,0,.148,1.3A2.44,2.44,0,0,0,366.121-.7a2.363,2.363,0,0,0,.959.655,4.134,4.134,0,0,0,1.482.23A3.678,3.678,0,0,0,370.286-.2a2.99,2.99,0,0,0,1.2-1.2h.035V0Zm2.423-8.789V0h1.482V-4.964a3.48,3.48,0,0,1,.166-1.1,2.474,2.474,0,0,1,.5-.875,2.206,2.206,0,0,1,.828-.578,3.087,3.087,0,0,1,1.177-.2,1.84,1.84,0,0,1,1.342.476,1.721,1.721,0,0,1,.488,1.292V0H382.8V-5.78a5.31,5.31,0,0,0-.148-1.3,2.44,2.44,0,0,0-.514-1.011,2.436,2.436,0,0,0-.959-.663,4,4,0,0,0-1.482-.238,3.136,3.136,0,0,0-2.928,1.6h-.035V-8.789ZM393-.748V-8.789H391.6v1.258h-.017a2.605,2.605,0,0,0-1.116-1.1,3.4,3.4,0,0,0-1.569-.366,4.1,4.1,0,0,0-1.97.434,3.794,3.794,0,0,0-1.29,1.105,4.33,4.33,0,0,0-.7,1.5,6.52,6.52,0,0,0-.209,1.606,5.686,5.686,0,0,0,.253,1.709,4.058,4.058,0,0,0,.758,1.411A3.672,3.672,0,0,0,387-.272a4.055,4.055,0,0,0,1.761.357A3.676,3.676,0,0,0,390.41-.3a2.456,2.456,0,0,0,1.159-1.2h.035v.578a5.705,5.705,0,0,1-.148,1.343,2.774,2.774,0,0,1-.479,1.045,2.31,2.31,0,0,1-.837.68A2.807,2.807,0,0,1,388.9,2.4a4.093,4.093,0,0,1-.767-.077,2.835,2.835,0,0,1-.741-.246,1.837,1.837,0,0,1-.575-.442,1.053,1.053,0,0,1-.253-.663h-1.482a2.233,2.233,0,0,0,.383,1.207,2.735,2.735,0,0,0,.88.8,3.986,3.986,0,0,0,1.185.442,6.279,6.279,0,0,0,1.281.136,4.181,4.181,0,0,0,3.172-1.071A4.553,4.553,0,0,0,393-.748Zm-4.149-.425a2.308,2.308,0,0,1-1.22-.3,2.324,2.324,0,0,1-.784-.782,3.335,3.335,0,0,1-.418-1.08,5.911,5.911,0,0,1-.122-1.19,4.842,4.842,0,0,1,.148-1.207,2.957,2.957,0,0,1,.471-1.02,2.355,2.355,0,0,1,.828-.705,2.611,2.611,0,0,1,1.22-.264,2.4,2.4,0,0,1,1.185.272,2.287,2.287,0,0,1,.793.722,3.137,3.137,0,0,1,.444,1.012,4.7,4.7,0,0,1,.139,1.139,5.185,5.185,0,0,1-.148,1.224,3.526,3.526,0,0,1-.462,1.1,2.4,2.4,0,0,1-.828.782A2.45,2.45,0,0,1,388.85-1.173Z" transform="translate(-2625 2681)" fill="#495353"/>
    <path id="Pfad_762" data-name="Pfad 762" d="M304.912.318a3.445,3.445,0,0,1-2.526-1.054,3.445,3.445,0,0,1-1.054-2.526,3.445,3.445,0,0,1,1.054-2.526,3.445,3.445,0,0,1,2.526-1.054,3.445,3.445,0,0,1,2.526,1.054,3.445,3.445,0,0,1,1.054,2.526A3.425,3.425,0,0,1,308-1.472a3.742,3.742,0,0,1-1.293,1.3A3.409,3.409,0,0,1,304.912.318Zm17.321-18.693V0H317.54V-30.545h4.534v4.773h.4a8.787,8.787,0,0,1,3.261-3.749,10.193,10.193,0,0,1,5.648-1.422,11.208,11.208,0,0,1,5.429,1.263,8.641,8.641,0,0,1,3.619,3.818,14.247,14.247,0,0,1,1.293,6.453V0h-4.693V-19.091a7.954,7.954,0,0,0-1.869-5.618,6.649,6.649,0,0,0-5.131-2.018,8.133,8.133,0,0,0-4.007.974,6.954,6.954,0,0,0-2.774,2.844A9.391,9.391,0,0,0,322.233-18.375ZM363.735.636a14.259,14.259,0,0,1-7.607-1.959,12.917,12.917,0,0,1-4.912-5.489,18.562,18.562,0,0,1-1.72-8.223,18.951,18.951,0,0,1,1.72-8.283,13.479,13.479,0,0,1,4.813-5.608,12.925,12.925,0,0,1,7.229-2.018,14.48,14.48,0,0,1,4.713.8,11.742,11.742,0,0,1,4.236,2.575,12.462,12.462,0,0,1,3.043,4.7,20.007,20.007,0,0,1,1.134,7.2v1.989H352.838v-4.057H371.61a10.1,10.1,0,0,0-1.024-4.614,7.884,7.884,0,0,0-2.9-3.2,8.182,8.182,0,0,0-4.425-1.173,8.42,8.42,0,0,0-4.842,1.382,9.2,9.2,0,0,0-3.132,3.589,10.516,10.516,0,0,0-1.094,4.733v2.7a12.952,12.952,0,0,0,1.2,5.857,8.47,8.47,0,0,0,3.351,3.639,9.786,9.786,0,0,0,4.991,1.243,10.068,10.068,0,0,0,3.351-.527,6.989,6.989,0,0,0,2.6-1.591,7.134,7.134,0,0,0,1.69-2.655l4.534,1.273A9.974,9.974,0,0,1,373.5-3.033a11.553,11.553,0,0,1-4.176,2.7A15.345,15.345,0,0,1,363.735.636Zm33.707-31.182v3.977h-15.83v-3.977Zm-11.216-7.318h4.693V-8.75a5.94,5.94,0,0,0,.587,2.973,2.878,2.878,0,0,0,1.511,1.313,5.814,5.814,0,0,0,1.959.328,7.41,7.41,0,0,0,1.273-.089q.5-.089.8-.149L398-.159a10.326,10.326,0,0,1-1.332.368A10.309,10.309,0,0,1,394.5.4a9.379,9.379,0,0,1-3.888-.855,7.657,7.657,0,0,1-3.142-2.605,7.438,7.438,0,0,1-1.243-4.415Z" transform="translate(-2630 2654.035)" fill="#ef7f01"/>
    <path id="Pfad_761" data-name="Pfad 761" d="M17.1.636A14.258,14.258,0,0,1,9.5-1.322,12.917,12.917,0,0,1,4.584-6.811a18.562,18.562,0,0,1-1.72-8.223,18.951,18.951,0,0,1,1.72-8.283A13.479,13.479,0,0,1,9.4-28.925a12.925,12.925,0,0,1,7.229-2.018,14.48,14.48,0,0,1,4.713.8,11.742,11.742,0,0,1,4.236,2.575,12.462,12.462,0,0,1,3.043,4.7,20.007,20.007,0,0,1,1.134,7.2v1.989H6.2v-4.057H24.977a10.1,10.1,0,0,0-1.024-4.614,7.884,7.884,0,0,0-2.9-3.2,8.182,8.182,0,0,0-4.425-1.173,8.42,8.42,0,0,0-4.842,1.382,9.2,9.2,0,0,0-3.132,3.589,10.516,10.516,0,0,0-1.094,4.733v2.7a12.953,12.953,0,0,0,1.2,5.857,8.47,8.47,0,0,0,3.351,3.639A9.786,9.786,0,0,0,17.1-3.58a10.068,10.068,0,0,0,3.351-.527,6.989,6.989,0,0,0,2.6-1.591,7.133,7.133,0,0,0,1.69-2.655L29.273-7.08a9.974,9.974,0,0,1-2.406,4.047,11.553,11.553,0,0,1-4.176,2.7A15.345,15.345,0,0,1,17.1.636ZM37.525,0V-30.545h4.534v4.614h.318A7.335,7.335,0,0,1,45.4-29.611a8.9,8.9,0,0,1,4.932-1.412q.517,0,1.293.02t1.173.06v4.773q-.239-.06-1.084-.189a11.77,11.77,0,0,0-1.78-.129,8.324,8.324,0,0,0-3.967.925,7.057,7.057,0,0,0-2.744,2.545,6.859,6.859,0,0,0-1,3.689V0ZM80.618-23.7,76.4-22.511a8.144,8.144,0,0,0-1.163-2.058,5.837,5.837,0,0,0-2.078-1.661,7.511,7.511,0,0,0-3.361-.656A8.024,8.024,0,0,0,65.137-25.6a3.827,3.827,0,0,0-1.859,3.251,3.345,3.345,0,0,0,1.273,2.764,10.63,10.63,0,0,0,3.977,1.69l4.534,1.114a12.571,12.571,0,0,1,6.105,3.033,7.15,7.15,0,0,1,2.009,5.24,7.789,7.789,0,0,1-1.5,4.693A10.1,10.1,0,0,1,75.488-.557,15.253,15.253,0,0,1,69.243.636a13.731,13.731,0,0,1-7.736-2.028A8.995,8.995,0,0,1,57.63-7.318l4.455-1.114a6.174,6.174,0,0,0,2.416,3.7A8.03,8.03,0,0,0,69.164-3.5a8.734,8.734,0,0,0,5.22-1.4,4.084,4.084,0,0,0,1.939-3.371,3.585,3.585,0,0,0-1.114-2.675,7.167,7.167,0,0,0-3.42-1.621L66.7-13.761a12.03,12.03,0,0,1-6.155-3.092,7.408,7.408,0,0,1-1.959-5.26,7.52,7.52,0,0,1,1.462-4.574,9.793,9.793,0,0,1,4-3.122A13.966,13.966,0,0,1,69.8-30.943a11.46,11.46,0,0,1,7.129,1.989A10.745,10.745,0,0,1,80.618-23.7Zm8.252,35.159v-42H93.4v4.852h.557q.517-.8,1.442-2.038a8.416,8.416,0,0,1,2.665-2.227,9.61,9.61,0,0,1,4.723-.984,12.125,12.125,0,0,1,6.8,1.929,12.834,12.834,0,0,1,4.594,5.469,19.6,19.6,0,0,1,1.651,8.352,19.77,19.77,0,0,1-1.651,8.4A12.945,12.945,0,0,1,109.612-1.3,11.914,11.914,0,0,1,102.871.636a9.692,9.692,0,0,1-4.713-.984A8.559,8.559,0,0,1,95.433-2.6q-.955-1.263-1.472-2.1h-.4V11.455Zm4.614-26.727a16.9,16.9,0,0,0,1.014,6.1,9.146,9.146,0,0,0,2.963,4.116,7.656,7.656,0,0,0,4.773,1.482,7.7,7.7,0,0,0,4.922-1.561,9.513,9.513,0,0,0,2.983-4.216,16.61,16.61,0,0,0,1-5.916,16.3,16.3,0,0,0-.984-5.817,9.14,9.14,0,0,0-2.963-4.116,7.9,7.9,0,0,0-4.962-1.521,7.868,7.868,0,0,0-4.812,1.442,8.781,8.781,0,0,0-2.943,4.017A16.592,16.592,0,0,0,93.484-15.273ZM136.419.636a14.258,14.258,0,0,1-7.607-1.959A12.917,12.917,0,0,1,123.9-6.811a18.562,18.562,0,0,1-1.72-8.223,18.951,18.951,0,0,1,1.72-8.283,13.479,13.479,0,0,1,4.812-5.608,12.925,12.925,0,0,1,7.229-2.018,14.48,14.48,0,0,1,4.713.8,11.742,11.742,0,0,1,4.236,2.575,12.462,12.462,0,0,1,3.043,4.7,20.006,20.006,0,0,1,1.134,7.2v1.989H125.521v-4.057h18.773a10.1,10.1,0,0,0-1.024-4.614,7.884,7.884,0,0,0-2.9-3.2,8.182,8.182,0,0,0-4.425-1.173,8.42,8.42,0,0,0-4.842,1.382,9.2,9.2,0,0,0-3.132,3.589,10.516,10.516,0,0,0-1.094,4.733v2.7a12.953,12.953,0,0,0,1.2,5.857,8.47,8.47,0,0,0,3.351,3.639,9.786,9.786,0,0,0,4.991,1.243,10.068,10.068,0,0,0,3.351-.527,6.989,6.989,0,0,0,2.6-1.591,7.133,7.133,0,0,0,1.69-2.655l4.534,1.273a9.973,9.973,0,0,1-2.406,4.047,11.553,11.553,0,0,1-4.176,2.7A15.345,15.345,0,0,1,136.419.636Zm32.832,0a13.215,13.215,0,0,1-7.4-2.028A13.219,13.219,0,0,1,157.08-6.98a18.933,18.933,0,0,1-1.67-8.134,18.724,18.724,0,0,1,1.72-8.223,13.5,13.5,0,0,1,4.813-5.588,12.925,12.925,0,0,1,7.229-2.018,13.7,13.7,0,0,1,5.807,1.193,11.12,11.12,0,0,1,4.236,3.341,10.42,10.42,0,0,1,2.048,5.011h-4.693a7.352,7.352,0,0,0-2.376-3.709,7.207,7.207,0,0,0-4.942-1.621,8.24,8.24,0,0,0-4.8,1.422,9.309,9.309,0,0,0-3.2,4,14.766,14.766,0,0,0-1.143,6.036,15.578,15.578,0,0,0,1.124,6.165,9.339,9.339,0,0,0,3.182,4.077A8.185,8.185,0,0,0,169.25-3.58a8.38,8.38,0,0,0,3.321-.636,6.851,6.851,0,0,0,2.526-1.83,7.012,7.012,0,0,0,1.472-2.864h4.693A10.865,10.865,0,0,1,179.3-4.047a10.982,10.982,0,0,1-4.116,3.42A13.24,13.24,0,0,1,169.25.636ZM202-30.545v3.977h-15.83v-3.977Zm-11.216-7.318h4.693V-8.75a5.94,5.94,0,0,0,.587,2.973,2.878,2.878,0,0,0,1.511,1.313,5.814,5.814,0,0,0,1.959.328,7.41,7.41,0,0,0,1.273-.089q.5-.089.8-.149l.955,4.216a10.328,10.328,0,0,1-1.332.368A10.309,10.309,0,0,1,199.06.4a9.379,9.379,0,0,1-3.888-.855,7.657,7.657,0,0,1-3.142-2.605,7.438,7.438,0,0,1-1.243-4.415ZM209.7,0V-30.545h4.693V0Zm2.386-35.636a3.3,3.3,0,0,1-2.357-.935,2.989,2.989,0,0,1-.984-2.247,2.989,2.989,0,0,1,.984-2.247A3.3,3.3,0,0,1,212.085-42a3.3,3.3,0,0,1,2.357.935,2.989,2.989,0,0,1,.984,2.247,2.989,2.989,0,0,1-.984,2.247A3.3,3.3,0,0,1,212.085-35.636Zm36.491,5.091L237.28,0h-4.773l-11.3-30.545H226.3L234.735-6.2h.318l8.432-24.341ZM255.4,0V-30.545h4.693V0Zm2.386-35.636a3.3,3.3,0,0,1-2.357-.935,2.989,2.989,0,0,1-.984-2.247,2.989,2.989,0,0,1,.984-2.247A3.3,3.3,0,0,1,257.783-42a3.3,3.3,0,0,1,2.357.935,2.989,2.989,0,0,1,.984,2.247,2.989,2.989,0,0,1-.984,2.247A3.3,3.3,0,0,1,257.783-35.636ZM278.285.716a12.317,12.317,0,0,1-5.27-1.1,8.949,8.949,0,0,1-3.759-3.2,8.982,8.982,0,0,1-1.392-5.081,7.893,7.893,0,0,1,1.034-4.266,7.325,7.325,0,0,1,2.764-2.575,14.763,14.763,0,0,1,3.828-1.4q2.1-.467,4.226-.746,2.784-.358,4.524-.547a6.919,6.919,0,0,0,2.545-.646,1.675,1.675,0,0,0,.805-1.591V-20.6a6.251,6.251,0,0,0-1.6-4.574,6.508,6.508,0,0,0-4.842-1.631,8.44,8.44,0,0,0-5.27,1.472,8.7,8.7,0,0,0-2.685,3.142l-4.455-1.591a10.733,10.733,0,0,1,3.192-4.345,12.029,12.029,0,0,1,4.375-2.187,18.322,18.322,0,0,1,4.683-.626,19.272,19.272,0,0,1,3.391.348,11.085,11.085,0,0,1,3.719,1.422,8.328,8.328,0,0,1,2.993,3.241,12.058,12.058,0,0,1,1.193,5.807V0h-4.693V-4.136h-.239a8.262,8.262,0,0,1-1.591,2.128A9.18,9.18,0,0,1,282.8-.08,11.416,11.416,0,0,1,278.285.716ZM279-3.5a9.367,9.367,0,0,0,4.7-1.094,7.536,7.536,0,0,0,2.9-2.824,7.252,7.252,0,0,0,.984-3.639v-4.3a2.742,2.742,0,0,1-1.3.646,19.753,19.753,0,0,1-2.307.5q-1.3.209-2.526.358t-1.979.249a18.222,18.222,0,0,0-3.41.766,5.943,5.943,0,0,0-2.545,1.571,4.013,4.013,0,0,0-.964,2.834,4.176,4.176,0,0,0,1.82,3.689A8.022,8.022,0,0,0,279-3.5Z" transform="translate(-2630 2653.545)" fill="#495353"/>
  </g>
</svg>
