<svg xmlns="http://www.w3.org/2000/svg" width="282.722" height="283.466" viewBox="0 0 282.722 283.466">
  <g id="Gruppe_171876" data-name="Gruppe 171876" transform="translate(-0.391 0.001)">
    <path id="Pfad_100507" data-name="Pfad 100507" d="M119.69,107.818a12.477,12.477,0,0,1-2.536-8.509,12.177,12.177,0,0,1-5.923-.267,12.63,12.63,0,0,1-2.629-1.121,7.692,7.692,0,0,0,11.088,9.9Z" fill="#161615"/>
    <path id="Pfad_100508" data-name="Pfad 100508" d="M134.748,58.379a7.692,7.692,0,0,0-9.9,11.088,12.474,12.474,0,0,1,8.509-2.536,12.177,12.177,0,0,1,.266-5.923A12.63,12.63,0,0,1,134.748,58.379Z" fill="#161615"/>
    <path id="Pfad_100509" data-name="Pfad 100509" d="M101.462,138.751a12.185,12.185,0,0,1,.266-5.922,12.642,12.642,0,0,1,1.122-2.629,7.692,7.692,0,0,0-9.9,11.088A12.482,12.482,0,0,1,101.462,138.751Z" fill="#161615"/>
    <path id="Pfad_100510" data-name="Pfad 100510" d="M95.172,112.973a12.477,12.477,0,0,1,2.536,8.509,12.184,12.184,0,0,1,5.922.266,12.746,12.746,0,0,1,2.63,1.121,7.692,7.692,0,0,0-11.088-9.9Z" fill="#161615"/>
    <path id="Pfad_100511" data-name="Pfad 100511" d="M110.516,64.84a12.746,12.746,0,0,1-2.63-1.121,7.692,7.692,0,0,0,11.088,9.9,12.476,12.476,0,0,1-2.536-8.509A12.184,12.184,0,0,1,110.516,64.84Z" fill="#161615"/>
    <path id="Pfad_100512" data-name="Pfad 100512" d="M100.5,104.105a12.174,12.174,0,0,1,.266-5.922,12.608,12.608,0,0,1,1.121-2.629,7.691,7.691,0,0,0-9.9,11.088A12.473,12.473,0,0,1,100.5,104.105Z" fill="#161615"/>
    <path id="Pfad_100513" data-name="Pfad 100513" d="M113.139,125.053a7.692,7.692,0,0,0,9.9-11.088,12.475,12.475,0,0,1-8.509,2.537,12.174,12.174,0,0,1-.266,5.922A12.63,12.63,0,0,1,113.139,125.053Z" fill="#161615"/>
    <path id="Pfad_100514" data-name="Pfad 100514" d="M169.186,55.542a7.691,7.691,0,0,0-9.9,11.088,12.473,12.473,0,0,1,8.508-2.536,12.189,12.189,0,0,1,.267-5.923A12.653,12.653,0,0,1,169.186,55.542Z" fill="#161615"/>
    <path id="Pfad_100515" data-name="Pfad 100515" d="M154.127,104.98a12.477,12.477,0,0,1-2.537-8.509,12.174,12.174,0,0,1-5.922-.266,12.558,12.558,0,0,1-2.629-1.122,7.692,7.692,0,0,0,11.088,9.9Z" fill="#161615"/>
    <path id="Pfad_100516" data-name="Pfad 100516" d="M129.608,110.135a12.478,12.478,0,0,1,2.537,8.509,12.185,12.185,0,0,1,5.922.266,12.7,12.7,0,0,1,2.63,1.122,7.692,7.692,0,0,0-11.089-9.9Z" fill="#161615"/>
    <path id="Pfad_100517" data-name="Pfad 100517" d="M135.651,135.47a12.19,12.19,0,0,1,.266-5.923,12.776,12.776,0,0,1,1.121-2.628,7.691,7.691,0,0,0-9.9,11.088A12.476,12.476,0,0,1,135.651,135.47Z" fill="#161615"/>
    <path id="Pfad_100518" data-name="Pfad 100518" d="M123.309,157.954a7.593,7.593,0,0,0,.69-9.344,12.475,12.475,0,0,1-8.509,2.537,12.167,12.167,0,0,1-.266,5.921,12.592,12.592,0,0,1-1.121,2.63A7.6,7.6,0,0,0,123.309,157.954Z" fill="#161615"/>
    <path id="Pfad_100519" data-name="Pfad 100519" d="M134.935,101.268a12.186,12.186,0,0,1,.266-5.922,12.714,12.714,0,0,1,1.121-2.629,7.692,7.692,0,0,0-9.9,11.088A12.478,12.478,0,0,1,134.935,101.268Z" fill="#161615"/>
    <path id="Pfad_100520" data-name="Pfad 100520" d="M144.094,61.867a12.661,12.661,0,0,1-2.629-1.121,7.691,7.691,0,0,0,11.087,9.9,12.476,12.476,0,0,1-2.536-8.509A12.185,12.185,0,0,1,144.094,61.867Z" fill="#161615"/>
    <path id="Pfad_100521" data-name="Pfad 100521" d="M120.654,142.462a12.473,12.473,0,0,1-2.536-8.508,12.184,12.184,0,0,1-5.922-.267,12.531,12.531,0,0,1-2.63-1.121,7.692,7.692,0,0,0,11.088,9.9Z" fill="#161615"/>
    <path id="Pfad_100522" data-name="Pfad 100522" d="M52.639,148.272a12.48,12.48,0,0,1-2.537-8.509,12.173,12.173,0,0,1-5.922-.266,12.63,12.63,0,0,1-2.629-1.121,7.692,7.692,0,0,0,11.088,9.9Z" fill="#161615"/>
    <path id="Pfad_100523" data-name="Pfad 100523" d="M55.294,163.765a7.6,7.6,0,0,0,.69-9.344,12.48,12.48,0,0,1-8.509,2.537,12.181,12.181,0,0,1-.265,5.921,12.535,12.535,0,0,1-1.122,2.629A7.6,7.6,0,0,0,55.294,163.765Z" fill="#161615"/>
    <path id="Pfad_100524" data-name="Pfad 100524" d="M88.872,160.792a7.6,7.6,0,0,0,.691-9.344,12.483,12.483,0,0,1-8.509,2.537,12.169,12.169,0,0,1-.267,5.921,12.585,12.585,0,0,1-1.121,2.629A7.6,7.6,0,0,0,88.872,160.792Z" fill="#161615"/>
    <path id="Pfad_100525" data-name="Pfad 100525" d="M39.925,197.525a7.691,7.691,0,0,0-11.089-9.894,12.474,12.474,0,0,1,2.537,8.508,12.184,12.184,0,0,1,5.922.267A12.715,12.715,0,0,1,39.925,197.525Z" fill="#161615"/>
    <path id="Pfad_100526" data-name="Pfad 100526" d="M33.448,144.56a12.181,12.181,0,0,1,.267-5.921,12.48,12.48,0,0,1,1.121-2.629,7.691,7.691,0,0,0-9.9,11.087A12.479,12.479,0,0,1,33.448,144.56Z" fill="#161615"/>
    <path id="Pfad_100527" data-name="Pfad 100527" d="M34.163,178.763a12.177,12.177,0,0,1,.267-5.923,12.607,12.607,0,0,1,1.121-2.629,7.692,7.692,0,0,0-9.9,11.088A12.477,12.477,0,0,1,34.163,178.763Z" fill="#161615"/>
    <path id="Pfad_100528" data-name="Pfad 100528" d="M66.311,107.386a12.174,12.174,0,0,1,.266-5.922A12.607,12.607,0,0,1,67.7,98.835a7.691,7.691,0,0,0-9.9,11.088A12.476,12.476,0,0,1,66.311,107.386Z" fill="#161615"/>
    <path id="Pfad_100529" data-name="Pfad 100529" d="M85.5,111.1a12.472,12.472,0,0,1-2.536-8.508,12.172,12.172,0,0,1-5.922-.267,12.532,12.532,0,0,1-2.63-1.121A7.691,7.691,0,0,0,85.5,111.1Z" fill="#161615"/>
    <path id="Pfad_100530" data-name="Pfad 100530" d="M84.809,77.089a12.479,12.479,0,0,1-2.538-8.509,12.174,12.174,0,0,1-5.922-.267,12.63,12.63,0,0,1-2.629-1.121,7.692,7.692,0,0,0,11.089,9.9Z" fill="#161615"/>
    <path id="Pfad_100531" data-name="Pfad 100531" d="M86.217,145.3a12.474,12.474,0,0,1-2.536-8.509,12.177,12.177,0,0,1-5.923-.266,12.577,12.577,0,0,1-2.629-1.121,7.692,7.692,0,0,0,11.088,9.9Z" fill="#161615"/>
    <path id="Pfad_100532" data-name="Pfad 100532" d="M79.645,85.773a12.174,12.174,0,0,1-.266,5.922,12.63,12.63,0,0,1-1.121,2.629,7.692,7.692,0,0,0,9.9-11.088A12.475,12.475,0,0,1,79.645,85.773Z" fill="#161615"/>
    <path id="Pfad_100533" data-name="Pfad 100533" d="M101.171,61.352a7.692,7.692,0,0,0-9.9,11.088A12.483,12.483,0,0,1,99.783,69.9a12.2,12.2,0,0,1,.266-5.922A12.687,12.687,0,0,1,101.171,61.352Z" fill="#161615"/>
    <path id="Pfad_100534" data-name="Pfad 100534" d="M80.339,119.782a12.186,12.186,0,0,1-.266,5.922,12.714,12.714,0,0,1-1.121,2.629,7.692,7.692,0,0,0,9.9-11.088A12.478,12.478,0,0,1,80.339,119.782Z" fill="#161615"/>
    <path id="Pfad_100535" data-name="Pfad 100535" d="M206.116,112.821a12.687,12.687,0,0,1,2.629,1.122,7.692,7.692,0,0,0-11.088-9.9,12.482,12.482,0,0,1,2.537,8.509A12.185,12.185,0,0,1,206.116,112.821Z" fill="#161615"/>
    <path id="Pfad_100536" data-name="Pfad 100536" d="M272.479,156.758a12.189,12.189,0,0,1,.266-5.923,12.6,12.6,0,0,1,1.122-2.629,7.692,7.692,0,0,0-9.9,11.088A12.476,12.476,0,0,1,272.479,156.758Z" fill="#161615"/>
    <path id="Pfad_100537" data-name="Pfad 100537" d="M147.576,122.216a7.691,7.691,0,0,0,9.9-11.088,12.476,12.476,0,0,1-8.509,2.537,12.173,12.173,0,0,1-.266,5.922A12.555,12.555,0,0,1,147.576,122.216Z" fill="#161615"/>
    <path id="Pfad_100538" data-name="Pfad 100538" d="M280.583,150.573a7.6,7.6,0,0,0,1.743,9.206c.341-2.683.6-5.392.787-8.12A12.638,12.638,0,0,1,280.583,150.573Z" fill="#161615"/>
    <path id="Pfad_100539" data-name="Pfad 100539" d="M273.2,190.959a12.185,12.185,0,0,1,.266-5.922,12.683,12.683,0,0,1,1.121-2.629,7.692,7.692,0,0,0-9.9,11.089A12.477,12.477,0,0,1,273.2,190.959Z" fill="#161615"/>
    <path id="Pfad_100540" data-name="Pfad 100540" d="M248.729,79.086A7.692,7.692,0,0,0,258.625,68a12.476,12.476,0,0,1-8.509,2.536,12.189,12.189,0,0,1-.266,5.923A12.715,12.715,0,0,1,248.729,79.086Z" fill="#161615"/>
    <path id="Pfad_100541" data-name="Pfad 100541" d="M256.119,96.264a12.476,12.476,0,0,1-2.536-8.509,12.184,12.184,0,0,1-5.922-.266,12.745,12.745,0,0,1-2.63-1.121,7.692,7.692,0,0,0,11.088,9.9Z" fill="#161615"/>
    <path id="Pfad_100542" data-name="Pfad 100542" d="M258.774,111.755a7.593,7.593,0,0,0,.691-9.343,12.482,12.482,0,0,1-8.509,2.536,12.185,12.185,0,0,1-.266,5.922,12.714,12.714,0,0,1-1.121,2.629A7.6,7.6,0,0,0,258.774,111.755Z" fill="#161615"/>
    <path id="Pfad_100543" data-name="Pfad 100543" d="M215.646,73.652a12.173,12.173,0,0,1-.266,5.922,12.639,12.639,0,0,1-1.121,2.63,7.692,7.692,0,0,0,9.9-11.089A12.475,12.475,0,0,1,215.646,73.652Z" fill="#161615"/>
    <path id="Pfad_100544" data-name="Pfad 100544" d="M32.144,110.859a12.172,12.172,0,0,1,.267-5.922,12.638,12.638,0,0,1,1.121-2.63,7.692,7.692,0,0,0-9.9,11.088A12.477,12.477,0,0,1,32.144,110.859Z" fill="#161615"/>
    <path id="Pfad_100545" data-name="Pfad 100545" d="M230.762,67.006a12.48,12.48,0,0,1,2.535,8.509,12.189,12.189,0,0,1,5.923.266,12.657,12.657,0,0,1,2.629,1.122,7.691,7.691,0,0,0-11.087-9.9Z" fill="#161615"/>
    <path id="Pfad_100546" data-name="Pfad 100546" d="M262.838,82.135a7.6,7.6,0,0,0-.691,9.345,12.476,12.476,0,0,1,8.509-2.537,12.179,12.179,0,0,1,.214-5.7c-.559-1.233-1.14-2.453-1.733-3.667A7.73,7.73,0,0,0,262.838,82.135Z" fill="#161615"/>
    <path id="Pfad_100547" data-name="Pfad 100547" d="M220.809,64.968a12.482,12.482,0,0,1-2.537-8.509,12.185,12.185,0,0,1-5.922-.266,12.63,12.63,0,0,1-2.629-1.121,7.692,7.692,0,0,0,11.088,9.9Z" fill="#161615"/>
    <path id="Pfad_100548" data-name="Pfad 100548" d="M228.27,51.331a7.593,7.593,0,0,0-.691,9.344,12.482,12.482,0,0,1,8.509-2.537,12.185,12.185,0,0,1,.266-5.922,12.692,12.692,0,0,1,1.121-2.63A7.6,7.6,0,0,0,228.27,51.331Z" fill="#161615"/>
    <path id="Pfad_100549" data-name="Pfad 100549" d="M217.012,107.575a12.186,12.186,0,0,1-.266,5.922,12.737,12.737,0,0,1-1.121,2.629,7.692,7.692,0,0,0,9.9-11.088A12.482,12.482,0,0,1,217.012,107.575Z" fill="#161615"/>
    <path id="Pfad_100550" data-name="Pfad 100550" d="M271.418,123.192a12.189,12.189,0,0,1,.266-5.923,12.631,12.631,0,0,1,1.121-2.629,7.692,7.692,0,0,0-9.9,11.088A12.476,12.476,0,0,1,271.418,123.192Z" fill="#161615"/>
    <path id="Pfad_100551" data-name="Pfad 100551" d="M168.513,98.295a12.186,12.186,0,0,1,.267-5.922,12.63,12.63,0,0,1,1.121-2.629,7.691,7.691,0,0,0-9.9,11.088A12.479,12.479,0,0,1,168.513,98.295Z" fill="#161615"/>
    <path id="Pfad_100552" data-name="Pfad 100552" d="M250.955,181.178a7.691,7.691,0,0,0,9.9-11.087,12.474,12.474,0,0,1-8.509,2.536,12.185,12.185,0,0,1-.266,5.922A12.789,12.789,0,0,1,250.955,181.178Z" fill="#161615"/>
    <path id="Pfad_100553" data-name="Pfad 100553" d="M211.635,21.99a12.577,12.577,0,0,1-2.629-1.121,7.692,7.692,0,0,0,11.088,9.9,12.479,12.479,0,0,1-2.537-8.508A12.186,12.186,0,0,1,211.635,21.99Z" fill="#161615"/>
    <path id="Pfad_100554" data-name="Pfad 100554" d="M178.53,59.03a12.63,12.63,0,0,1-2.629-1.121,7.692,7.692,0,0,0,11.088,9.9,12.474,12.474,0,0,1-2.536-8.509A12.177,12.177,0,0,1,178.53,59.03Z" fill="#161615"/>
    <path id="Pfad_100555" data-name="Pfad 100555" d="M154.843,139.182a12.468,12.468,0,0,1-2.538-8.508,12.2,12.2,0,0,1-5.922-.266,12.665,12.665,0,0,1-2.629-1.122,7.692,7.692,0,0,0,11.089,9.9Z" fill="#161615"/>
    <path id="Pfad_100556" data-name="Pfad 100556" d="M157.5,154.674a7.593,7.593,0,0,0,.691-9.344,12.476,12.476,0,0,1-8.509,2.536,12.189,12.189,0,0,1-.266,5.923,12.683,12.683,0,0,1-1.121,2.629A7.6,7.6,0,0,0,157.5,154.674Z" fill="#161615"/>
    <path id="Pfad_100557" data-name="Pfad 100557" d="M274.55,140.834a12.683,12.683,0,0,1,2.629,1.121,7.692,7.692,0,0,0-11.088-9.9,12.474,12.474,0,0,1,2.536,8.509A12.177,12.177,0,0,1,274.55,140.834Z" fill="#161615"/>
    <path id="Pfad_100558" data-name="Pfad 100558" d="M250.192,146.931a7.691,7.691,0,0,0,9.9-11.088,12.474,12.474,0,0,1-8.509,2.536,12.177,12.177,0,0,1-.266,5.923A12.608,12.608,0,0,1,250.192,146.931Z" fill="#161615"/>
    <path id="Pfad_100559" data-name="Pfad 100559" d="M214.93,39.45a12.172,12.172,0,0,1-.266,5.922A12.607,12.607,0,0,1,213.543,48a7.691,7.691,0,0,0,9.9-11.087A12.474,12.474,0,0,1,214.93,39.45Z" fill="#161615"/>
    <path id="Pfad_100560" data-name="Pfad 100560" d="M281.265,126.212a7.762,7.762,0,0,0,1.466,1.006c-.32-3.147-.753-6.259-1.275-9.341a12.653,12.653,0,0,1-1.934-.87A7.6,7.6,0,0,0,281.265,126.212Z" fill="#161615"/>
    <path id="Pfad_100561" data-name="Pfad 100561" d="M275.611,174.4a12.607,12.607,0,0,1,2.629,1.121,7.692,7.692,0,0,0-11.088-9.9,12.476,12.476,0,0,1,2.537,8.509A12.186,12.186,0,0,1,275.611,174.4Z" fill="#161615"/>
    <path id="Pfad_100562" data-name="Pfad 100562" d="M255.279,61.851a12.489,12.489,0,0,1-2.545-8.246c-.063-.079-.127-.156-.189-.235a12.188,12.188,0,0,1-5.724-.294,12.664,12.664,0,0,1-2.629-1.122,7.691,7.691,0,0,0,11.087,9.9Z" fill="#161615"/>
    <path id="Pfad_100563" data-name="Pfad 100563" d="M240.059,110.195a12.638,12.638,0,0,1,2.63,1.121,7.691,7.691,0,0,0-11.088-9.9,12.473,12.473,0,0,1,2.536,8.508A12.184,12.184,0,0,1,240.059,110.195Z" fill="#161615"/>
    <path id="Pfad_100564" data-name="Pfad 100564" d="M273.788,106.586a12.664,12.664,0,0,1,2.629,1.122,7.692,7.692,0,0,0-11.088-9.9,12.476,12.476,0,0,1,2.537,8.509A12.2,12.2,0,0,1,273.788,106.586Z" fill="#161615"/>
    <path id="Pfad_100565" data-name="Pfad 100565" d="M140.62,221.892a12.737,12.737,0,0,1,2.629,1.121,7.692,7.692,0,0,0-11.088-9.9,12.48,12.48,0,0,1,2.537,8.509A12.174,12.174,0,0,1,140.62,221.892Z" fill="#161615"/>
    <path id="Pfad_100566" data-name="Pfad 100566" d="M71.732,193.569a12.661,12.661,0,0,1,2.629,1.121,7.692,7.692,0,0,0-11.088-9.9A12.471,12.471,0,0,1,65.81,193.3,12.173,12.173,0,0,1,71.732,193.569Z" fill="#161615"/>
    <path id="Pfad_100567" data-name="Pfad 100567" d="M105.31,190.6a12.611,12.611,0,0,1,2.629,1.122,7.691,7.691,0,0,0-11.087-9.9,12.476,12.476,0,0,1,2.536,8.509A12.184,12.184,0,0,1,105.31,190.6Z" fill="#161615"/>
    <path id="Pfad_100568" data-name="Pfad 100568" d="M72.588,227.558a12.558,12.558,0,0,1,2.629,1.122,7.691,7.691,0,0,0-11.087-9.9,12.476,12.476,0,0,1,2.536,8.509A12.185,12.185,0,0,1,72.588,227.558Z" fill="#161615"/>
    <path id="Pfad_100569" data-name="Pfad 100569" d="M240.683,143.627a12.631,12.631,0,0,1,2.63,1.119,7.691,7.691,0,0,0-11.089-9.894,12.474,12.474,0,0,1,2.537,8.508A12.184,12.184,0,0,1,240.683,143.627Z" fill="#161615"/>
    <path id="Pfad_100570" data-name="Pfad 100570" d="M106.918,224.654a12.573,12.573,0,0,1,2.629,1.12,7.691,7.691,0,0,0-11.087-9.9A12.474,12.474,0,0,1,101,224.387,12.177,12.177,0,0,1,106.918,224.654Z" fill="#161615"/>
    <path id="Pfad_100571" data-name="Pfad 100571" d="M116.426,227.959a7.691,7.691,0,0,0,9.9-11.088,12.473,12.473,0,0,1-8.509,2.536,12.177,12.177,0,0,1-.266,5.923A12.577,12.577,0,0,1,116.426,227.959Z" fill="#161615"/>
    <path id="Pfad_100572" data-name="Pfad 100572" d="M82.1,230.864a7.692,7.692,0,0,0,9.9-11.089,12.475,12.475,0,0,1-8.509,2.537,12.177,12.177,0,0,1-.266,5.923A12.653,12.653,0,0,1,82.1,230.864Z" fill="#161615"/>
    <path id="Pfad_100573" data-name="Pfad 100573" d="M177.2,24.828a12.638,12.638,0,0,1-2.63-1.121,7.692,7.692,0,0,0,11.088,9.9,12.474,12.474,0,0,1-2.536-8.509A12.172,12.172,0,0,1,177.2,24.828Z" fill="#161615"/>
    <path id="Pfad_100574" data-name="Pfad 100574" d="M241.446,177.873a12.687,12.687,0,0,1,2.629,1.122,7.692,7.692,0,0,0-11.088-9.9,12.483,12.483,0,0,1,2.537,8.51A12.173,12.173,0,0,1,241.446,177.873Z" fill="#161615"/>
    <path id="Pfad_100575" data-name="Pfad 100575" d="M144.225,20.109a7.691,7.691,0,0,0,9.9-11.087,12.477,12.477,0,0,1-8.509,2.536,12.184,12.184,0,0,1-.267,5.922A12.607,12.607,0,0,1,144.225,20.109Z" fill="#161615"/>
    <path id="Pfad_100576" data-name="Pfad 100576" d="M110.4,22.947a7.691,7.691,0,0,0,9.9-11.088,12.475,12.475,0,0,1-8.51,2.536,12.184,12.184,0,0,1-.265,5.922A12.669,12.669,0,0,1,110.4,22.947Z" fill="#161615"/>
    <path id="Pfad_100577" data-name="Pfad 100577" d="M75.889,25.85a7.691,7.691,0,0,0,9.9-11.088A12.479,12.479,0,0,1,77.276,17.3a12.184,12.184,0,0,1-.265,5.922A12.687,12.687,0,0,1,75.889,25.85Z" fill="#161615"/>
    <path id="Pfad_100578" data-name="Pfad 100578" d="M70.157,159.23a12.723,12.723,0,0,1,2.63,1.121,7.692,7.692,0,0,0-11.088-9.9,12.474,12.474,0,0,1,2.536,8.509A12.172,12.172,0,0,1,70.157,159.23Z" fill="#161615"/>
    <path id="Pfad_100579" data-name="Pfad 100579" d="M139.781,187.479a12.576,12.576,0,0,1,2.629,1.121,7.692,7.692,0,0,0-11.088-9.9,12.475,12.475,0,0,1,2.537,8.509A12.162,12.162,0,0,1,139.781,187.479Z" fill="#161615"/>
    <path id="Pfad_100580" data-name="Pfad 100580" d="M107.757,259.067a12.686,12.686,0,0,1,2.63,1.119A7.691,7.691,0,0,0,99.3,250.292a12.473,12.473,0,0,1,2.536,8.508A12.184,12.184,0,0,1,107.757,259.067Z" fill="#161615"/>
    <path id="Pfad_100581" data-name="Pfad 100581" d="M140.5,263.512a7.692,7.692,0,0,0-9.9,11.088,12.474,12.474,0,0,1,8.509-2.536,12.176,12.176,0,0,1,.266-5.923A12.63,12.63,0,0,1,140.5,263.512Z" fill="#161615"/>
    <path id="Pfad_100582" data-name="Pfad 100582" d="M150.128,225.2a7.691,7.691,0,0,0,9.9-11.087,12.479,12.479,0,0,1-8.509,2.537,12.168,12.168,0,0,1-.266,5.921A12.584,12.584,0,0,1,150.128,225.2Z" fill="#161615"/>
    <path id="Pfad_100583" data-name="Pfad 100583" d="M105.424,274.734a12.177,12.177,0,0,1,.266-5.923,12.629,12.629,0,0,1,1.121-2.629A7.7,7.7,0,0,0,96.224,276c.573.2,1.152.376,1.729.563A12.422,12.422,0,0,1,105.424,274.734Z" fill="#161615"/>
    <path id="Pfad_100584" data-name="Pfad 100584" d="M53.709,242.2a12.189,12.189,0,0,1-5.923-.267,12.63,12.63,0,0,1-2.629-1.121,7.18,7.18,0,0,0-.829,3.87q4.02,3.8,8.332,7.288a7.16,7.16,0,0,0,3.585-1.262A12.473,12.473,0,0,1,53.709,242.2Z" fill="#161615"/>
    <path id="Pfad_100585" data-name="Pfad 100585" d="M174.669,260.038a7.691,7.691,0,0,0-9.9,11.088,12.476,12.476,0,0,1,8.509-2.536,12.173,12.173,0,0,1,.266-5.922A12.562,12.562,0,0,1,174.669,260.038Z" fill="#161615"/>
    <path id="Pfad_100586" data-name="Pfad 100586" d="M208.247,257.066a7.691,7.691,0,0,0-9.9,11.087,12.476,12.476,0,0,1,8.509-2.536,12.185,12.185,0,0,1,.266-5.922A12.659,12.659,0,0,1,208.247,257.066Z" fill="#161615"/>
    <path id="Pfad_100587" data-name="Pfad 100587" d="M73.941,261.526a12.737,12.737,0,0,1,2.629,1.121,7.691,7.691,0,0,0-11.088-9.9,12.471,12.471,0,0,1,2.537,8.508A12.185,12.185,0,0,1,73.941,261.526Z" fill="#161615"/>
    <path id="Pfad_100588" data-name="Pfad 100588" d="M207.868,180.846a12.687,12.687,0,0,1,2.629,1.122,7.692,7.692,0,0,0-11.088-9.9,12.477,12.477,0,0,1,2.536,8.51A12.177,12.177,0,0,1,207.868,180.846Z" fill="#161615"/>
    <path id="Pfad_100589" data-name="Pfad 100589" d="M183.9,221.634a7.692,7.692,0,0,0,9.9-11.088,12.476,12.476,0,0,1-8.509,2.537,12.167,12.167,0,0,1-.266,5.921A12.615,12.615,0,0,1,183.9,221.634Z" fill="#161615"/>
    <path id="Pfad_100590" data-name="Pfad 100590" d="M174.4,218.33a12.707,12.707,0,0,1,2.629,1.119,7.691,7.691,0,0,0-11.088-9.894,12.471,12.471,0,0,1,2.537,8.508A12.174,12.174,0,0,1,174.4,218.33Z" fill="#161615"/>
    <path id="Pfad_100591" data-name="Pfad 100591" d="M218.091,218.354a7.692,7.692,0,0,0,9.9-11.088,12.477,12.477,0,0,1-8.509,2.536,12.189,12.189,0,0,1-.266,5.923A12.688,12.688,0,0,1,218.091,218.354Z" fill="#161615"/>
    <path id="Pfad_100592" data-name="Pfad 100592" d="M208.582,215.048a12.566,12.566,0,0,1,2.63,1.122,7.692,7.692,0,0,0-11.088-9.9,12.477,12.477,0,0,1,2.536,8.51A12.172,12.172,0,0,1,208.582,215.048Z" fill="#161615"/>
    <path id="Pfad_100593" data-name="Pfad 100593" d="M241.72,219.583a7.692,7.692,0,0,0-9.9,11.089,12.476,12.476,0,0,1,8.509-2.537,12.173,12.173,0,0,1,.266-5.922A12.715,12.715,0,0,1,241.72,219.583Z" fill="#161615"/>
    <path id="Pfad_100594" data-name="Pfad 100594" d="M37.01,204.247a7.692,7.692,0,0,0-9.9,11.088,12.477,12.477,0,0,1,8.509-2.536,12.189,12.189,0,0,1,.266-5.923A12.738,12.738,0,0,1,37.01,204.247Z" fill="#161615"/>
    <path id="Pfad_100595" data-name="Pfad 100595" d="M21.1,123.692a12.476,12.476,0,0,1-8.509,2.536,12.184,12.184,0,0,1-.266,5.922,12.585,12.585,0,0,1-1.121,2.629,7.691,7.691,0,0,0,9.9-11.087Z" fill="#161615"/>
    <path id="Pfad_100596" data-name="Pfad 100596" d="M18.473,151.745a12.481,12.481,0,0,1-2.537-8.508,12.173,12.173,0,0,1-5.922-.267,12.646,12.646,0,0,1-2.629-1.119,7.691,7.691,0,0,0,11.088,9.894Z" fill="#161615"/>
    <path id="Pfad_100597" data-name="Pfad 100597" d="M32.816,68.106a7.691,7.691,0,0,0-9.9,11.088,12.471,12.471,0,0,1,8.507-2.537,12.185,12.185,0,0,1,.267-5.922A12.554,12.554,0,0,1,32.816,68.106Z" fill="#161615"/>
    <path id="Pfad_100598" data-name="Pfad 100598" d="M1.7,131.474a12.692,12.692,0,0,1,2.63,1.121,7.6,7.6,0,0,0-1.744-9.206,7.846,7.846,0,0,0-1.278-.908q-.585,4.306-.915,8.69A12.363,12.363,0,0,1,1.7,131.474Z" fill="#161615"/>
    <path id="Pfad_100599" data-name="Pfad 100599" d="M17.758,117.543a12.475,12.475,0,0,1-2.537-8.509,12.174,12.174,0,0,1-5.922-.266,12.683,12.683,0,0,1-2.629-1.121,7.692,7.692,0,0,0,11.088,9.9Z" fill="#161615"/>
    <path id="Pfad_100600" data-name="Pfad 100600" d="M51.336,114.57a12.48,12.48,0,0,1-2.537-8.509,12.168,12.168,0,0,1-5.921-.266,12.615,12.615,0,0,1-2.63-1.121,7.691,7.691,0,0,0,11.088,9.9Z" fill="#161615"/>
    <path id="Pfad_100601" data-name="Pfad 100601" d="M9.554,100.508a7.692,7.692,0,0,0,9.9-11.088,12.482,12.482,0,0,1-8.509,2.536,12.172,12.172,0,0,1-.267,5.922A12.638,12.638,0,0,1,9.554,100.508Z" fill="#161615"/>
    <path id="Pfad_100602" data-name="Pfad 100602" d="M5.043,166.8A7.6,7.6,0,0,0,3.3,157.592a7.78,7.78,0,0,0-2.581-1.509c.322,3.2.759,6.366,1.29,9.5.134.035.271.054.4.094A12.68,12.68,0,0,1,5.043,166.8Z" fill="#161615"/>
    <path id="Pfad_100603" data-name="Pfad 100603" d="M19.662,185.145a12.474,12.474,0,0,1-2.536-8.509,12.171,12.171,0,0,1-5.922-.266,12.746,12.746,0,0,1-2.63-1.121,7.692,7.692,0,0,0,11.088,9.9Z" fill="#161615"/>
    <path id="Pfad_100604" data-name="Pfad 100604" d="M45.456,89.054a12.174,12.174,0,0,1-.266,5.922,12.63,12.63,0,0,1-1.121,2.629,7.691,7.691,0,0,0,9.9-11.088A12.475,12.475,0,0,1,45.456,89.054Z" fill="#161615"/>
    <path id="Pfad_100605" data-name="Pfad 100605" d="M16.1,83.272a12.664,12.664,0,0,1-1.87-3.508q-1.151,2.362-2.211,4.774A7.2,7.2,0,0,0,16.1,83.272Z" fill="#161615"/>
    <path id="Pfad_100606" data-name="Pfad 100606" d="M39.532,70.472a7.691,7.691,0,0,0,11.088,9.9,12.477,12.477,0,0,1-2.537-8.508,12.186,12.186,0,0,1-5.922-.267A12.524,12.524,0,0,1,39.532,70.472Z" fill="#161615"/>
    <path id="Pfad_100607" data-name="Pfad 100607" d="M27.6,59.454a12.172,12.172,0,0,1,5.922.266,12.692,12.692,0,0,1,2.63,1.121,7.6,7.6,0,0,0-1.744-9.2,7.8,7.8,0,0,0-1.309-.924q-2.856,3.4-5.5,6.989A11.927,11.927,0,0,1,27.6,59.454Z" fill="#161615"/>
    <path id="Pfad_100608" data-name="Pfad 100608" d="M182.761,153.3a7.692,7.692,0,0,0,9.9-11.089,12.478,12.478,0,0,1-8.509,2.537,12.172,12.172,0,0,1-.267,5.922A12.639,12.639,0,0,1,182.761,153.3Z" fill="#161615"/>
    <path id="Pfad_100609" data-name="Pfad 100609" d="M138.783,153.113a12.61,12.61,0,0,1,2.63,1.122,7.692,7.692,0,0,0-11.089-9.9,12.478,12.478,0,0,1,2.537,8.509A12.185,12.185,0,0,1,138.783,153.113Z" fill="#161615"/>
    <path id="Pfad_100610" data-name="Pfad 100610" d="M104.594,156.393a12.746,12.746,0,0,1,2.63,1.121,7.691,7.691,0,0,0-11.088-9.9,12.471,12.471,0,0,1,2.536,8.508A12.184,12.184,0,0,1,104.594,156.393Z" fill="#161615"/>
    <path id="Pfad_100611" data-name="Pfad 100611" d="M69.442,125.028a12.746,12.746,0,0,1,2.63,1.121,7.692,7.692,0,0,0-11.088-9.9,12.476,12.476,0,0,1,2.536,8.509A12.184,12.184,0,0,1,69.442,125.028Z" fill="#161615"/>
    <path id="Pfad_100612" data-name="Pfad 100612" d="M164.794,141.221a12.475,12.475,0,0,1,2.536,8.508,12.184,12.184,0,0,1,5.922.267,12.638,12.638,0,0,1,2.63,1.121,7.692,7.692,0,0,0-11.088-9.9Z" fill="#161615"/>
    <path id="Pfad_100613" data-name="Pfad 100613" d="M174.092,184.409a12.641,12.641,0,0,1,2.63,1.122,7.692,7.692,0,0,0-11.088-9.9,12.476,12.476,0,0,1,2.536,8.509A12.184,12.184,0,0,1,174.092,184.409Z" fill="#161615"/>
    <path id="Pfad_100614" data-name="Pfad 100614" d="M206.955,147.235a12.661,12.661,0,0,1,2.63,1.121,7.692,7.692,0,0,0-11.089-9.9,12.477,12.477,0,0,1,2.537,8.508A12.186,12.186,0,0,1,206.955,147.235Z" fill="#161615"/>
    <path id="Pfad_100615" data-name="Pfad 100615" d="M35.277,128.5a12.683,12.683,0,0,1,2.629,1.121,7.692,7.692,0,0,0-11.088-9.9,12.481,12.481,0,0,1,2.536,8.509A12.189,12.189,0,0,1,35.277,128.5Z" fill="#161615"/>
    <path id="Pfad_100616" data-name="Pfad 100616" d="M36.58,162.2a12.792,12.792,0,0,1,2.63,1.121,7.692,7.692,0,0,0-11.089-9.9,12.475,12.475,0,0,1,2.537,8.509A12.172,12.172,0,0,1,36.58,162.2Z" fill="#161615"/>
    <path id="Pfad_100617" data-name="Pfad 100617" d="M46.172,123.255a12.177,12.177,0,0,1-.266,5.923,12.6,12.6,0,0,1-1.121,2.628,7.691,7.691,0,0,0,9.9-11.087A12.474,12.474,0,0,1,46.172,123.255Z" fill="#161615"/>
    <path id="Pfad_100618" data-name="Pfad 100618" d="M21.819,157.893a12.476,12.476,0,0,1-8.509,2.537,12.185,12.185,0,0,1-.266,5.922,12.661,12.661,0,0,1-1.121,2.629,7.692,7.692,0,0,0,9.9-11.088Z" fill="#161615"/>
    <path id="Pfad_100619" data-name="Pfad 100619" d="M34.56,94.3a12.723,12.723,0,0,1,2.63,1.121,7.692,7.692,0,0,0-11.088-9.9,12.482,12.482,0,0,1,2.537,8.509A12.181,12.181,0,0,1,34.56,94.3Z" fill="#161615"/>
    <path id="Pfad_100620" data-name="Pfad 100620" d="M67,64.825a7.691,7.691,0,0,0-9.9,11.088,12.472,12.472,0,0,1,8.508-2.537,12.174,12.174,0,0,1,.267-5.922A12.5,12.5,0,0,1,67,64.825Z" fill="#161615"/>
    <path id="Pfad_100621" data-name="Pfad 100621" d="M43.027,63.026a7.692,7.692,0,0,0,9.9-11.088,12.474,12.474,0,0,1-8.509,2.536,12.183,12.183,0,0,1-.265,5.922A12.672,12.672,0,0,1,43.027,63.026Z" fill="#161615"/>
    <path id="Pfad_100622" data-name="Pfad 100622" d="M223.014,133.3a12.476,12.476,0,0,1-2.536-8.509,12.183,12.183,0,0,1-5.922-.266,12.692,12.692,0,0,1-2.63-1.121,7.691,7.691,0,0,0,11.088,9.9Z" fill="#161615"/>
    <path id="Pfad_100623" data-name="Pfad 100623" d="M179.778,8.085a12.19,12.19,0,0,1-.267,5.923,12.63,12.63,0,0,1-1.121,2.629,7.6,7.6,0,0,0,9.206-1.744,7.728,7.728,0,0,0,1.811-6.666q-1.78-.636-3.583-1.224A12.337,12.337,0,0,1,179.778,8.085Z" fill="#161615"/>
    <path id="Pfad_100624" data-name="Pfad 100624" d="M58.16,222.658a12.477,12.477,0,0,1-8.509,2.537,12.178,12.178,0,0,1-.266,5.923,12.653,12.653,0,0,1-1.121,2.629,7.692,7.692,0,0,0,9.9-11.089Z" fill="#161615"/>
    <path id="Pfad_100625" data-name="Pfad 100625" d="M68.6,175.926A12.184,12.184,0,0,1,68.866,170a12.619,12.619,0,0,1,1.122-2.63,7.692,7.692,0,0,0-9.9,11.088A12.476,12.476,0,0,1,68.6,175.926Z" fill="#161615"/>
    <path id="Pfad_100626" data-name="Pfad 100626" d="M136.649,169.835a12.169,12.169,0,0,1,.266-5.921,12.594,12.594,0,0,1,1.121-2.631,7.692,7.692,0,0,0-9.9,11.089A12.475,12.475,0,0,1,136.649,169.835Z" fill="#161615"/>
    <path id="Pfad_100627" data-name="Pfad 100627" d="M150.775,2.874A12.591,12.591,0,0,1,149.225.2Q145.5,0,141.732,0c-.664,0-1.323.016-1.984.025a7.783,7.783,0,0,0,1.683,2.159A7.594,7.594,0,0,0,150.775,2.874Z" fill="#161615"/>
    <path id="Pfad_100628" data-name="Pfad 100628" d="M69.456,209.916a12.209,12.209,0,0,1,.267-5.922,12.585,12.585,0,0,1,1.121-2.63,7.691,7.691,0,0,0-9.9,11.088A12.471,12.471,0,0,1,69.456,209.916Z" fill="#161615"/>
    <path id="Pfad_100629" data-name="Pfad 100629" d="M66.381,22.545a12.687,12.687,0,0,1,2.629,1.122,7.194,7.194,0,0,0,.807-4.082c-1.5.884-2.986,1.787-4.449,2.725C65.707,22.38,66.047,22.445,66.381,22.545Z" fill="#161615"/>
    <path id="Pfad_100630" data-name="Pfad 100630" d="M70.809,243.882a12.169,12.169,0,0,1,.266-5.921,12.585,12.585,0,0,1,1.121-2.629,7.691,7.691,0,0,0-9.9,11.088A12.486,12.486,0,0,1,70.809,243.882Z" fill="#161615"/>
    <path id="Pfad_100631" data-name="Pfad 100631" d="M103.785,207.011a12.185,12.185,0,0,1,.267-5.922,12.607,12.607,0,0,1,1.121-2.629,7.692,7.692,0,0,0-9.9,11.088A12.479,12.479,0,0,1,103.785,207.011Z" fill="#161615"/>
    <path id="Pfad_100632" data-name="Pfad 100632" d="M104.625,241.424a12.186,12.186,0,0,1,.266-5.922,12.665,12.665,0,0,1,1.122-2.629,7.692,7.692,0,0,0-9.9,11.088A12.482,12.482,0,0,1,104.625,241.424Z" fill="#161615"/>
    <path id="Pfad_100633" data-name="Pfad 100633" d="M92.655,263.087a7.6,7.6,0,0,0,.691-9.344,12.483,12.483,0,0,1-8.509,2.537,12.169,12.169,0,0,1-.267,5.921,12.615,12.615,0,0,1-1.121,2.63A7.6,7.6,0,0,0,92.655,263.087Z" fill="#161615"/>
    <path id="Pfad_100634" data-name="Pfad 100634" d="M90,247.6a12.474,12.474,0,0,1-2.537-8.508,12.185,12.185,0,0,1-5.922-.267,12.616,12.616,0,0,1-2.63-1.121A7.692,7.692,0,0,0,90,247.6Z" fill="#161615"/>
    <path id="Pfad_100635" data-name="Pfad 100635" d="M88.648,213.628a12.484,12.484,0,0,1-2.537-8.51,12.173,12.173,0,0,1-5.922-.265,12.687,12.687,0,0,1-2.629-1.122,7.692,7.692,0,0,0,11.088,9.9Z" fill="#161615"/>
    <path id="Pfad_100636" data-name="Pfad 100636" d="M238.314,160.23a12.186,12.186,0,0,1,.266-5.922,12.684,12.684,0,0,1,1.121-2.629,7.692,7.692,0,0,0-9.9,11.089A12.477,12.477,0,0,1,238.314,160.23Z" fill="#161615"/>
    <path id="Pfad_100637" data-name="Pfad 100637" d="M192.807,185.971a7.6,7.6,0,0,0,.69-9.345,12.475,12.475,0,0,1-8.508,2.538,12.186,12.186,0,0,1-.267,5.922,12.63,12.63,0,0,1-1.121,2.629A7.6,7.6,0,0,0,192.807,185.971Z" fill="#161615"/>
    <path id="Pfad_100638" data-name="Pfad 100638" d="M171.263,200.687a12.177,12.177,0,0,1,.266-5.923,12.607,12.607,0,0,1,1.121-2.629,7.692,7.692,0,0,0-9.9,11.088A12.476,12.476,0,0,1,171.263,200.687Z" fill="#161615"/>
    <path id="Pfad_100639" data-name="Pfad 100639" d="M190.152,170.479a12.483,12.483,0,0,1-2.537-8.51,12.173,12.173,0,0,1-5.922-.265,12.688,12.688,0,0,1-2.629-1.122,7.692,7.692,0,0,0,11.088,9.9Z" fill="#161615"/>
    <path id="Pfad_100640" data-name="Pfad 100640" d="M256.987,223.338a12.185,12.185,0,0,1-5.922-.266,12.664,12.664,0,0,1-2.629-1.122,7.6,7.6,0,0,0,1.743,9.206,7.874,7.874,0,0,0,.94.706q3.045-3.691,5.837-7.591C256.957,223.96,256.962,223.648,256.987,223.338Z" fill="#161615"/>
    <path id="Pfad_100641" data-name="Pfad 100641" d="M170.96,166.767a12.173,12.173,0,0,1,.268-5.922,12.6,12.6,0,0,1,1.12-2.63,7.691,7.691,0,0,0-9.9,11.088A12.473,12.473,0,0,1,170.96,166.767Z" fill="#161615"/>
    <path id="Pfad_100642" data-name="Pfad 100642" d="M155.84,173.548a12.477,12.477,0,0,1-2.537-8.509,12.172,12.172,0,0,1-5.922-.266,12.745,12.745,0,0,1-2.63-1.121,7.692,7.692,0,0,0,11.089,9.9Z" fill="#161615"/>
    <path id="Pfad_100643" data-name="Pfad 100643" d="M158.494,189.04a7.6,7.6,0,0,0,.691-9.345,12.482,12.482,0,0,1-8.509,2.537,12.173,12.173,0,0,1-.267,5.922,12.479,12.479,0,0,1-1.121,2.629A7.6,7.6,0,0,0,158.494,189.04Z" fill="#161615"/>
    <path id="Pfad_100644" data-name="Pfad 100644" d="M189.312,136.066a12.478,12.478,0,0,1-2.536-8.51,12.177,12.177,0,0,1-5.923-.266,12.63,12.63,0,0,1-2.629-1.121,7.692,7.692,0,0,0,11.088,9.9Z" fill="#161615"/>
    <path id="Pfad_100645" data-name="Pfad 100645" d="M239.617,193.932a12.173,12.173,0,0,1,.266-5.922A12.684,12.684,0,0,1,241,185.381a7.691,7.691,0,0,0-9.9,11.088A12.475,12.475,0,0,1,239.617,193.932Z" fill="#161615"/>
    <path id="Pfad_100646" data-name="Pfad 100646" d="M245.378,212.7a7.692,7.692,0,0,0-11.088-9.9,12.483,12.483,0,0,1,2.537,8.51,12.173,12.173,0,0,1,5.922.265A12.687,12.687,0,0,1,245.378,212.7Z" fill="#161615"/>
    <path id="Pfad_100647" data-name="Pfad 100647" d="M122.977,210.722a12.475,12.475,0,0,1-2.536-8.508,12.185,12.185,0,0,1-5.922-.267,12.686,12.686,0,0,1-2.63-1.119,7.691,7.691,0,0,0,11.088,9.894Z" fill="#161615"/>
    <path id="Pfad_100648" data-name="Pfad 100648" d="M226.582,182.408a7.6,7.6,0,0,0,.691-9.344,12.476,12.476,0,0,1-8.509,2.536,12.185,12.185,0,0,1-.266,5.922,12.737,12.737,0,0,1-1.121,2.629A7.6,7.6,0,0,0,226.582,182.408Z" fill="#161615"/>
    <path id="Pfad_100649" data-name="Pfad 100649" d="M204.736,163.2a12.174,12.174,0,0,1,.266-5.922,12.63,12.63,0,0,1,1.121-2.629,7.691,7.691,0,0,0-9.9,11.088A12.476,12.476,0,0,1,204.736,163.2Z" fill="#161615"/>
    <path id="Pfad_100650" data-name="Pfad 100650" d="M223.926,166.916a12.476,12.476,0,0,1-2.536-8.509,12.184,12.184,0,0,1-5.922-.266,12.589,12.589,0,0,1-2.63-1.122,7.692,7.692,0,0,0,11.088,9.9Z" fill="#161615"/>
    <path id="Pfad_100651" data-name="Pfad 100651" d="M116.955,5.711a12.6,12.6,0,0,1-1.77-3.219q-4.168.79-8.248,1.816a7.663,7.663,0,0,0,.674.713A7.6,7.6,0,0,0,116.955,5.711Z" fill="#161615"/>
    <path id="Pfad_100652" data-name="Pfad 100652" d="M227.99,250.619a7.593,7.593,0,0,0,.691-9.344,12.476,12.476,0,0,1-8.509,2.537,12.18,12.18,0,0,1-.266,5.921,12.724,12.724,0,0,1-1.121,2.63A7.6,7.6,0,0,0,227.99,250.619Z" fill="#161615"/>
    <path id="Pfad_100653" data-name="Pfad 100653" d="M224.642,201.118a12.481,12.481,0,0,1-2.536-8.509,12.189,12.189,0,0,1-5.923-.266,12.687,12.687,0,0,1-2.629-1.122,7.692,7.692,0,0,0,11.088,9.9Z" fill="#161615"/>
    <path id="Pfad_100654" data-name="Pfad 100654" d="M225.336,235.126a12.474,12.474,0,0,1-2.537-8.508,12.186,12.186,0,0,1-5.922-.267,12.623,12.623,0,0,1-2.629-1.119,7.691,7.691,0,0,0,11.088,9.894Z" fill="#161615"/>
    <path id="Pfad_100655" data-name="Pfad 100655" d="M211.9,250.178a7.69,7.69,0,0,0-11.088-9.894,12.472,12.472,0,0,1,2.537,8.508,12.174,12.174,0,0,1,5.922.267A12.677,12.677,0,0,1,211.9,250.178Z" fill="#161615"/>
    <path id="Pfad_100656" data-name="Pfad 100656" d="M194.515,244.747a12.482,12.482,0,0,1-8.509,2.538,12.174,12.174,0,0,1-.267,5.922,12.524,12.524,0,0,1-1.121,2.629,7.692,7.692,0,0,0,9.9-11.089Z" fill="#161615"/>
    <path id="Pfad_100657" data-name="Pfad 100657" d="M206.144,231.416a12.189,12.189,0,0,1,.266-5.923,12.714,12.714,0,0,1,1.121-2.629,7.692,7.692,0,0,0-9.9,11.088A12.476,12.476,0,0,1,206.144,231.416Z" fill="#161615"/>
    <path id="Pfad_100658" data-name="Pfad 100658" d="M205.451,197.406a12.161,12.161,0,0,1,.267-5.922,12.6,12.6,0,0,1,1.12-2.63,7.692,7.692,0,0,0-9.9,11.089A12.476,12.476,0,0,1,205.451,197.406Z" fill="#161615"/>
    <path id="Pfad_100659" data-name="Pfad 100659" d="M192.474,272.3a12.475,12.475,0,0,1-2.537-8.509,12.173,12.173,0,0,1-5.922-.266,12.693,12.693,0,0,1-2.63-1.121,7.692,7.692,0,0,0,11.089,9.9Z" fill="#161615"/>
    <path id="Pfad_100660" data-name="Pfad 100660" d="M245.2,238.587a7.728,7.728,0,0,0-.845-.894,7.593,7.593,0,0,0-9.344-.691,12.484,12.484,0,0,1,2.537,8.51c.273-.056.552-.081.83-.118Q241.9,242.106,245.2,238.587Z" fill="#161615"/>
    <path id="Pfad_100661" data-name="Pfad 100661" d="M123.817,245.135a12.47,12.47,0,0,1-2.536-8.508,12.177,12.177,0,0,1-5.923-.267,12.731,12.731,0,0,1-2.629-1.119,7.691,7.691,0,0,0,11.088,9.894Z" fill="#161615"/>
    <path id="Pfad_100662" data-name="Pfad 100662" d="M167.955,277.458a12.61,12.61,0,0,1,1.776,3.236q4.137-.83,8.182-1.9a7.463,7.463,0,0,0-9.958-1.339Z" fill="#161615"/>
    <path id="Pfad_100663" data-name="Pfad 100663" d="M133.789,280.931a12.565,12.565,0,0,1,1.416,2.379c2.164.1,4.339.155,6.527.155.962,0,1.92-.017,2.878-.036a7.769,7.769,0,0,0-1.477-1.808A7.6,7.6,0,0,0,133.789,280.931Z" fill="#161615"/>
    <path id="Pfad_100664" data-name="Pfad 100664" d="M217.592,260.555a12.686,12.686,0,0,1-2.629-1.122,7.2,7.2,0,0,0-.8,4.141q2.264-1.349,4.475-2.776C218.288,260.726,217.937,260.658,217.592,260.555Z" fill="#161615"/>
    <path id="Pfad_100665" data-name="Pfad 100665" d="M137.487,204.248a12.181,12.181,0,0,1,.267-5.921,12.585,12.585,0,0,1,1.121-2.629,7.691,7.691,0,0,0-9.9,11.087A12.479,12.479,0,0,1,137.487,204.248Z" fill="#161615"/>
    <path id="Pfad_100666" data-name="Pfad 100666" d="M138.4,237.861a12.186,12.186,0,0,1,.267-5.922,12.615,12.615,0,0,1,1.121-2.63,7.692,7.692,0,0,0-9.9,11.088A12.473,12.473,0,0,1,138.4,237.861Z" fill="#161615"/>
    <path id="Pfad_100667" data-name="Pfad 100667" d="M144.162,256.625a7.692,7.692,0,0,0-11.088-9.9,12.481,12.481,0,0,1,2.537,8.509,12.174,12.174,0,0,1,5.922.266A12.685,12.685,0,0,1,144.162,256.625Z" fill="#161615"/>
    <path id="Pfad_100668" data-name="Pfad 100668" d="M191.17,238.6a12.479,12.479,0,0,1-2.537-8.51,12.173,12.173,0,0,1-5.922-.265,12.7,12.7,0,0,1-2.63-1.122,7.692,7.692,0,0,0,11.089,9.9Z" fill="#161615"/>
    <path id="Pfad_100669" data-name="Pfad 100669" d="M127.162,251.284a12.48,12.48,0,0,1-8.509,2.537,12.173,12.173,0,0,1-.266,5.922,12.608,12.608,0,0,1-1.121,2.629,7.692,7.692,0,0,0,9.9-11.088Z" fill="#161615"/>
    <path id="Pfad_100670" data-name="Pfad 100670" d="M156.679,207.961a12.474,12.474,0,0,1-2.536-8.509,12.172,12.172,0,0,1-5.922-.266,12.692,12.692,0,0,1-2.63-1.121,7.692,7.692,0,0,0,11.088,9.9Z" fill="#161615"/>
    <path id="Pfad_100671" data-name="Pfad 100671" d="M124.615,278.447a12.479,12.479,0,0,1-2.537-8.51,12.173,12.173,0,0,1-5.922-.266,12.683,12.683,0,0,1-2.629-1.121,7.692,7.692,0,0,0,11.088,9.9Z" fill="#161615"/>
    <path id="Pfad_100672" data-name="Pfad 100672" d="M177.74,253.653a7.692,7.692,0,0,0-11.088-9.9,12.476,12.476,0,0,1,2.537,8.509,12.186,12.186,0,0,1,5.922.266A12.6,12.6,0,0,1,177.74,253.653Z" fill="#161615"/>
    <path id="Pfad_100673" data-name="Pfad 100673" d="M190.454,204.4a12.474,12.474,0,0,1-2.537-8.508,12.185,12.185,0,0,1-5.922-.267,12.631,12.631,0,0,1-2.63-1.119,7.691,7.691,0,0,0,11.089,9.894Z" fill="#161615"/>
    <path id="Pfad_100674" data-name="Pfad 100674" d="M196.291,70.124a12.475,12.475,0,0,1,2.537,8.509,12.183,12.183,0,0,1,5.922.265,12.7,12.7,0,0,1,2.63,1.122,7.692,7.692,0,0,0-11.089-9.9Z" fill="#161615"/>
    <path id="Pfad_100675" data-name="Pfad 100675" d="M160.937,247.72a12.479,12.479,0,0,1-8.509,2.538,12.169,12.169,0,0,1-.266,5.921,12.532,12.532,0,0,1-1.121,2.629,7.691,7.691,0,0,0,9.9-11.088Z" fill="#161615"/>
    <path id="Pfad_100676" data-name="Pfad 100676" d="M157.591,241.573a12.474,12.474,0,0,1-2.536-8.509,12.172,12.172,0,0,1-5.922-.266,12.639,12.639,0,0,1-2.63-1.121,7.692,7.692,0,0,0,11.088,9.9Z" fill="#161615"/>
    <path id="Pfad_100677" data-name="Pfad 100677" d="M158.307,275.775a12.477,12.477,0,0,1-2.536-8.509,12.183,12.183,0,0,1-5.922-.266,12.639,12.639,0,0,1-2.63-1.121,7.691,7.691,0,0,0,11.088,9.9Z" fill="#161615"/>
    <path id="Pfad_100678" data-name="Pfad 100678" d="M171.979,234.888a12.173,12.173,0,0,1,.266-5.922,12.586,12.586,0,0,1,1.121-2.63,7.692,7.692,0,0,0-9.9,11.088A12.474,12.474,0,0,1,171.979,234.888Z" fill="#161615"/>
    <path id="Pfad_100679" data-name="Pfad 100679" d="M237.551,125.983a12.174,12.174,0,0,1,.267-5.922,12.5,12.5,0,0,1,1.121-2.629,7.692,7.692,0,0,0-9.9,11.088A12.478,12.478,0,0,1,237.551,125.983Z" fill="#161615"/>
    <path id="Pfad_100680" data-name="Pfad 100680" d="M261.463,213.137a7.594,7.594,0,0,0,.691-9.344,12.476,12.476,0,0,1-8.509,2.536,12.2,12.2,0,0,1-.266,5.922,12.634,12.634,0,0,1-1.122,2.629A7.6,7.6,0,0,0,261.463,213.137Z" fill="#161615"/>
    <path id="Pfad_100681" data-name="Pfad 100681" d="M232.24,41.519a12.174,12.174,0,0,1,5.922.267,12.63,12.63,0,0,1,2.629,1.121,7,7,0,0,0,.669-1.876q-4.734-4.689-9.894-8.926a6.97,6.97,0,0,0-1.863.9A12.483,12.483,0,0,1,232.24,41.519Z" fill="#161615"/>
    <path id="Pfad_100682" data-name="Pfad 100682" d="M257.5,163.943a12.481,12.481,0,0,1-2.536-8.509,12.185,12.185,0,0,1-5.922-.266,12.558,12.558,0,0,1-2.629-1.122,7.691,7.691,0,0,0,11.087,9.9Z" fill="#161615"/>
    <path id="Pfad_100683" data-name="Pfad 100683" d="M256.742,129.694a12.477,12.477,0,0,1-2.537-8.508,12.186,12.186,0,0,1-5.922-.267,12.524,12.524,0,0,1-2.629-1.121,7.691,7.691,0,0,0,11.088,9.9Z" fill="#161615"/>
    <path id="Pfad_100684" data-name="Pfad 100684" d="M258.809,197.645a12.476,12.476,0,0,1-2.537-8.509,12.185,12.185,0,0,1-5.922-.266,12.557,12.557,0,0,1-2.629-1.122,7.692,7.692,0,0,0,11.088,9.9Z" fill="#161615"/>
    <path id="Pfad_100685" data-name="Pfad 100685" d="M180.493,42.287a12.173,12.173,0,0,1-.266,5.922,12.608,12.608,0,0,1-1.121,2.629A7.691,7.691,0,0,0,189,39.751,12.473,12.473,0,0,1,180.493,42.287Z" fill="#161615"/>
    <path id="Pfad_100686" data-name="Pfad 100686" d="M267.868,199.827a12.649,12.649,0,0,1,1.733,3.11c.692-1.443,1.353-2.9,2-4.372A7.174,7.174,0,0,0,267.868,199.827Z" fill="#161615"/>
    <path id="Pfad_100687" data-name="Pfad 100687" d="M147.388,79.327a12.184,12.184,0,0,1-.265,5.922A12.7,12.7,0,0,1,146,87.879a7.692,7.692,0,0,0,9.9-11.089A12.473,12.473,0,0,1,147.388,79.327Z" fill="#161615"/>
    <path id="Pfad_100688" data-name="Pfad 100688" d="M146.674,45.124a12.184,12.184,0,0,1-.267,5.922,12.51,12.51,0,0,1-1.121,2.63,7.691,7.691,0,0,0,9.9-11.088A12.472,12.472,0,0,1,146.674,45.124Z" fill="#161615"/>
    <path id="Pfad_100689" data-name="Pfad 100689" d="M157.957,32.427a12.48,12.48,0,0,1,8.509-2.537,12.174,12.174,0,0,1,.266-5.922,12.631,12.631,0,0,1,1.121-2.629,7.692,7.692,0,0,0-9.9,11.088Z" fill="#161615"/>
    <path id="Pfad_100690" data-name="Pfad 100690" d="M124.024,192.156a7.594,7.594,0,0,0,.691-9.344,12.475,12.475,0,0,1-8.509,2.537,12.177,12.177,0,0,1-.266,5.923,12.684,12.684,0,0,1-1.121,2.629A7.6,7.6,0,0,0,124.024,192.156Z" fill="#161615"/>
    <path id="Pfad_100691" data-name="Pfad 100691" d="M162.471,72.961a12.471,12.471,0,0,1,2.536,8.509,12.172,12.172,0,0,1,5.922.266,12.639,12.639,0,0,1,2.63,1.121,7.691,7.691,0,0,0-11.088-9.9Z" fill="#161615"/>
    <path id="Pfad_100692" data-name="Pfad 100692" d="M161.139,38.759a12.474,12.474,0,0,1,2.536,8.509,12.177,12.177,0,0,1,5.923.266,12.63,12.63,0,0,1,2.629,1.121,7.691,7.691,0,0,0-11.088-9.9Z" fill="#161615"/>
    <path id="Pfad_100693" data-name="Pfad 100693" d="M190.36,117.5a7.6,7.6,0,0,0,.69-9.344,12.47,12.47,0,0,1-8.509,2.537,12.173,12.173,0,0,1-.266,5.922,12.607,12.607,0,0,1-1.121,2.629A7.6,7.6,0,0,0,190.36,117.5Z" fill="#161615"/>
    <path id="Pfad_100694" data-name="Pfad 100694" d="M181.826,76.49a12.19,12.19,0,0,1-.267,5.923,12.631,12.631,0,0,1-1.121,2.629,7.691,7.691,0,0,0,9.9-11.088A12.473,12.473,0,0,1,181.826,76.49Z" fill="#161615"/>
    <path id="Pfad_100695" data-name="Pfad 100695" d="M163.187,107.164a12.473,12.473,0,0,1,2.536,8.508,12.184,12.184,0,0,1,5.922.267,12.615,12.615,0,0,1,2.63,1.121,7.691,7.691,0,0,0-11.088-9.9Z" fill="#161615"/>
    <path id="Pfad_100696" data-name="Pfad 100696" d="M193.084,20.246a7.593,7.593,0,0,0-.69,9.344,12.477,12.477,0,0,1,8.508-2.537,12.186,12.186,0,0,1,.267-5.922A12.524,12.524,0,0,1,202.29,18.5,7.6,7.6,0,0,0,193.084,20.246Z" fill="#161615"/>
    <path id="Pfad_100697" data-name="Pfad 100697" d="M203.006,52.7a7.692,7.692,0,0,0-9.9,11.088,12.477,12.477,0,0,1,8.509-2.536,12.177,12.177,0,0,1,.267-5.923A12.631,12.631,0,0,1,203.006,52.7Z" fill="#161615"/>
    <path id="Pfad_100698" data-name="Pfad 100698" d="M236.928,92.551a12.174,12.174,0,0,1,.266-5.922A12.63,12.63,0,0,1,238.315,84a7.691,7.691,0,0,0-9.9,11.088A12.482,12.482,0,0,1,236.928,92.551Z" fill="#161615"/>
    <path id="Pfad_100699" data-name="Pfad 100699" d="M195.576,35.921a12.474,12.474,0,0,1,2.536,8.509,12.173,12.173,0,0,1,5.922.266,12.638,12.638,0,0,1,2.63,1.121,7.692,7.692,0,0,0-11.088-9.9Z" fill="#161615"/>
    <path id="Pfad_100700" data-name="Pfad 100700" d="M170.121,132.353a12.177,12.177,0,0,1,.266-5.923,12.653,12.653,0,0,1,1.121-2.629,7.691,7.691,0,0,0-9.9,11.088A12.474,12.474,0,0,1,170.121,132.353Z" fill="#161615"/>
    <path id="Pfad_100701" data-name="Pfad 100701" d="M222.174,98.89a12.473,12.473,0,0,1-2.536-8.509,12.185,12.185,0,0,1-5.922-.265,12.664,12.664,0,0,1-2.629-1.122,7.691,7.691,0,0,0,11.087,9.9Z" fill="#161615"/>
    <path id="Pfad_100702" data-name="Pfad 100702" d="M225.669,148.795a7.6,7.6,0,0,0,.691-9.344,12.476,12.476,0,0,1-8.509,2.537,12.184,12.184,0,0,1-.266,5.922,12.769,12.769,0,0,1-1.121,2.63A7.6,7.6,0,0,0,225.669,148.795Z" fill="#161615"/>
    <path id="Pfad_100703" data-name="Pfad 100703" d="M203.823,129.592a12.165,12.165,0,0,1,.267-5.923,12.573,12.573,0,0,1,1.12-2.629,7.691,7.691,0,0,0-9.9,11.088A12.476,12.476,0,0,1,203.823,129.592Z" fill="#161615"/>
    <path id="Pfad_100704" data-name="Pfad 100704" d="M140.748,26.544a7.692,7.692,0,0,0,11.089,9.9,12.47,12.47,0,0,1-2.537-8.509,12.172,12.172,0,0,1-5.922-.266A12.638,12.638,0,0,1,140.748,26.544Z" fill="#161615"/>
    <path id="Pfad_100705" data-name="Pfad 100705" d="M202.984,95.178a12.185,12.185,0,0,1,.266-5.922,12.63,12.63,0,0,1,1.121-2.629,7.691,7.691,0,0,0-9.9,11.088A12.476,12.476,0,0,1,202.984,95.178Z" fill="#161615"/>
    <path id="Pfad_100706" data-name="Pfad 100706" d="M187.705,102.007a12.48,12.48,0,0,1-2.537-8.509,12.174,12.174,0,0,1-5.922-.266,12.63,12.63,0,0,1-2.629-1.121,7.692,7.692,0,0,0,11.088,9.9Z" fill="#161615"/>
    <path id="Pfad_100707" data-name="Pfad 100707" d="M160.424,4.556a12.482,12.482,0,0,1,2.537,8.509,12.186,12.186,0,0,1,5.922.266,12.684,12.684,0,0,1,2.629,1.121,7.692,7.692,0,0,0-11.088-9.9Z" fill="#161615"/>
    <path id="Pfad_100708" data-name="Pfad 100708" d="M39.641,222.357a7.594,7.594,0,0,0-9.345-.691,12.477,12.477,0,0,1,2.537,8.508,12.2,12.2,0,0,1,5.922.267,12.62,12.62,0,0,1,2.63,1.122A7.6,7.6,0,0,0,39.641,222.357Z" fill="#161615"/>
    <path id="Pfad_100709" data-name="Pfad 100709" d="M54.815,216.51A12.473,12.473,0,0,1,52.278,208a12.186,12.186,0,0,1-5.922-.265,12.683,12.683,0,0,1-2.629-1.121,7.691,7.691,0,0,0,11.088,9.895Z" fill="#161615"/>
    <path id="Pfad_100710" data-name="Pfad 100710" d="M53.355,182.474a12.476,12.476,0,0,1-2.537-8.508A12.174,12.174,0,0,1,44.9,173.7a12.624,12.624,0,0,1-2.629-1.119,7.691,7.691,0,0,0,11.088,9.894Z" fill="#161615"/>
    <path id="Pfad_100711" data-name="Pfad 100711" d="M57.083,32.367a7.592,7.592,0,0,0-.69,9.344A12.477,12.477,0,0,1,64.9,39.174a12.21,12.21,0,0,1,.267-5.922,12.63,12.63,0,0,1,1.121-2.629A7.6,7.6,0,0,0,57.083,32.367Z" fill="#161615"/>
    <path id="Pfad_100712" data-name="Pfad 100712" d="M22.317,200.638a7.592,7.592,0,0,0,.69-9.345,12.478,12.478,0,0,1-8.508,2.538,12.193,12.193,0,0,1-.266,5.921,12.558,12.558,0,0,1-.868,2.117c.122.259.241.521.364.779A7.618,7.618,0,0,0,22.317,200.638Z" fill="#161615"/>
    <path id="Pfad_100713" data-name="Pfad 100713" d="M59.575,48.042a12.474,12.474,0,0,1,2.536,8.509,12.173,12.173,0,0,1,5.922.266,12.607,12.607,0,0,1,2.629,1.121,7.691,7.691,0,0,0-11.087-9.9Z" fill="#161615"/>
    <path id="Pfad_100714" data-name="Pfad 100714" d="M39.171,43.909a7.729,7.729,0,0,0,1.062,1.19,7.6,7.6,0,0,0,9.344.69,12.473,12.473,0,0,1-2.536-8.508,12.067,12.067,0,0,1-1.3.184Q42.355,40.583,39.171,43.909Z" fill="#161615"/>
    <path id="Pfad_100715" data-name="Pfad 100715" d="M56.7,188.622a12.475,12.475,0,0,1-8.509,2.537,12.173,12.173,0,0,1-.266,5.922A12.607,12.607,0,0,1,46.8,199.71a7.691,7.691,0,0,0,9.9-11.088Z" fill="#161615"/>
    <path id="Pfad_100716" data-name="Pfad 100716" d="M90.446,195.129a7.593,7.593,0,0,0,.691-9.344,12.475,12.475,0,0,1-8.509,2.537,12.172,12.172,0,0,1-.266,5.922,12.692,12.692,0,0,1-1.121,2.63A7.6,7.6,0,0,0,90.446,195.129Z" fill="#161615"/>
    <path id="Pfad_100717" data-name="Pfad 100717" d="M121.37,176.666a12.478,12.478,0,0,1-2.536-8.51,12.177,12.177,0,0,1-5.923-.265,12.687,12.687,0,0,1-2.629-1.122,7.692,7.692,0,0,0,11.088,9.9Z" fill="#161615"/>
    <path id="Pfad_100718" data-name="Pfad 100718" d="M102.179,172.953a12.184,12.184,0,0,1,.265-5.922,12.7,12.7,0,0,1,1.122-2.63,7.691,7.691,0,0,0-9.9,11.088A12.473,12.473,0,0,1,102.179,172.953Z" fill="#161615"/>
    <path id="Pfad_100719" data-name="Pfad 100719" d="M67.026,141.587a12.169,12.169,0,0,1,.266-5.921,12.585,12.585,0,0,1,1.121-2.629,7.691,7.691,0,0,0-9.9,11.087A12.48,12.48,0,0,1,67.026,141.587Z" fill="#161615"/>
    <path id="Pfad_100720" data-name="Pfad 100720" d="M87.792,179.637a12.48,12.48,0,0,1-2.537-8.509,12.174,12.174,0,0,1-5.922-.266,12.63,12.63,0,0,1-2.629-1.121,7.692,7.692,0,0,0,11.088,9.9Z" fill="#161615"/>
    <path id="Pfad_100721" data-name="Pfad 100721" d="M113.81,82.3a12.148,12.148,0,0,1-.266,5.922,12.576,12.576,0,0,1-1.121,2.629,7.691,7.691,0,0,0,9.9-11.088A12.475,12.475,0,0,1,113.81,82.3Z" fill="#161615"/>
    <path id="Pfad_100722" data-name="Pfad 100722" d="M128.034,75.8a12.48,12.48,0,0,1,2.537,8.509,12.178,12.178,0,0,1,5.923.266,12.645,12.645,0,0,1,2.628,1.121,7.691,7.691,0,0,0-11.088-9.9Z" fill="#161615"/>
    <path id="Pfad_100723" data-name="Pfad 100723" d="M106.583,30.017a7.692,7.692,0,0,0,11.088,9.9,12.476,12.476,0,0,1-2.536-8.509,12.189,12.189,0,0,1-5.923-.266A12.684,12.684,0,0,1,106.583,30.017Z" fill="#161615"/>
    <path id="Pfad_100724" data-name="Pfad 100724" d="M112.508,48.6a12.185,12.185,0,0,1-.266,5.922,12.7,12.7,0,0,1-1.122,2.63,7.692,7.692,0,0,0,9.9-11.089A12.478,12.478,0,0,1,112.508,48.6Z" fill="#161615"/>
    <path id="Pfad_100725" data-name="Pfad 100725" d="M60.29,82.244a12.473,12.473,0,0,1,2.537,8.509,12.185,12.185,0,0,1,5.922.266,12.661,12.661,0,0,1,2.629,1.121,7.692,7.692,0,0,0-11.088-9.9Z" fill="#161615"/>
    <path id="Pfad_100726" data-name="Pfad 100726" d="M126.258,8.03a12.474,12.474,0,0,1,2.536,8.509,12.172,12.172,0,0,1,5.922.266,12.607,12.607,0,0,1,2.629,1.121,7.691,7.691,0,0,0-11.087-9.9Z" fill="#161615"/>
    <path id="Pfad_100727" data-name="Pfad 100727" d="M127.319,41.6a12.48,12.48,0,0,1,2.537,8.509,12.174,12.174,0,0,1,5.922.266,12.684,12.684,0,0,1,2.629,1.121,7.692,7.692,0,0,0-11.088-9.9Z" fill="#161615"/>
    <path id="Pfad_100728" data-name="Pfad 100728" d="M124.137,35.265a12.474,12.474,0,0,1,8.509-2.536,12.171,12.171,0,0,1,.266-5.922,12.638,12.638,0,0,1,1.121-2.63,7.692,7.692,0,0,0-9.9,11.088Z" fill="#161615"/>
    <path id="Pfad_100729" data-name="Pfad 100729" d="M78.929,51.571a12.173,12.173,0,0,1-.266,5.922,12.63,12.63,0,0,1-1.121,2.629,7.691,7.691,0,0,0,9.9-11.088A12.475,12.475,0,0,1,78.929,51.571Z" fill="#161615"/>
    <path id="Pfad_100730" data-name="Pfad 100730" d="M89.971,38.738A12.474,12.474,0,0,1,98.48,36.2a12.177,12.177,0,0,1,.266-5.923,12.63,12.63,0,0,1,1.121-2.629,7.691,7.691,0,0,0-9.9,11.088Z" fill="#161615"/>
    <path id="Pfad_100731" data-name="Pfad 100731" d="M73,32.99a7.692,7.692,0,0,0,11.088,9.9,12.482,12.482,0,0,1-2.537-8.509,12.186,12.186,0,0,1-5.922-.266A12.761,12.761,0,0,1,73,32.99Z" fill="#161615"/>
    <path id="Pfad_100732" data-name="Pfad 100732" d="M92.437,10.867a12.469,12.469,0,0,1,2.536,8.509,12.177,12.177,0,0,1,5.923.266,12.684,12.684,0,0,1,2.629,1.121,7.692,7.692,0,0,0-11.088-9.9Z" fill="#161615"/>
    <path id="Pfad_100733" data-name="Pfad 100733" d="M94.457,78.771a12.474,12.474,0,0,1,2.536,8.509,12.177,12.177,0,0,1,5.923.266,12.63,12.63,0,0,1,2.629,1.121,7.691,7.691,0,0,0-11.088-9.9Z" fill="#161615"/>
    <path id="Pfad_100734" data-name="Pfad 100734" d="M93.153,45.069a12.474,12.474,0,0,1,2.536,8.509,12.172,12.172,0,0,1,5.922.266,12.638,12.638,0,0,1,2.63,1.121,7.691,7.691,0,0,0-11.088-9.9Z" fill="#161615"/>
  </g>
</svg>
